<?xml version="1.0" encoding="utf-8" ?>
<svg baseProfile="full" height="200mm" version="1.1" viewBox="0,0,200,200" width="200mm" xmlns="http://www.w3.org/2000/svg" xmlns:ev="http://www.w3.org/2001/xml-events" xmlns:xlink="http://www.w3.org/1999/xlink"><defs /><rect fill="#1a1a1a" height="200" width="200" x="0" y="0" /><text alignment-baseline="middle" fill="#e1ed5e" style="dominant-baseline: central; font-size:9.0px; font-family:Arial;" text-anchor="middle" x="100.0" y="100.0">2024</text><line stroke="#e1ed5e" stroke-width="0.3" x1="100.0" x2="100.0" y1="15.0" y2="10.0" /><path d="M 100.0 14.0 a86.0,86.0 0 0,1 42.35913384403234,11.155469271406648" fill="none" id="id61" stroke="none" /><text fill="#e1ed5e" style="font-size:6.75px; font-family:Arial;" text-anchor="middle"><textPath startOffset="22.145653131862478" xlink:href="#id61">January</textPath></text><path d="M 101.08105385017728 79.02784411241856 l 0.4533665858009476 -8.795190646681341 a29.806867761729578,29.806867761729578 0 0,0 0.5107699861571057,0.030726654013447745 l -0.6042809240905156 8.786112014843201" fill="#ff5608" stroke="none" /><path d="M 102.51750503828377 79.15144685158666 l 1.6007225977284365 -13.25627939055025 a34.35257488708473,34.35257488708473 0 0,0 0.5848479712995344,0.07572027894902278 l -1.8280483909187626 13.226847515400829" fill="#ff950d" stroke="none" /><path d="M 102.87502721639298 79.19773525538626 l 1.2073592992380573 -8.735850443924415 a29.818888788054366,29.818888788054366 0 0,0 0.5064594766369317,0.0744321021757047 l -1.357143881482671 8.713837268449828" fill="#ff5608" stroke="none" /><path d="M 104.29559338865022 79.4440306129975 l 9.034782983893866 -43.23470720618904 a65.16862246856871,65.16862246856871 0 0,0 1.0930875281232686,0.23823333915934256 l -9.775632928636268 43.07324240889598" fill="#35ff64" stroke="none" /><path d="M 106.72888874123014 80.10723608172694 l 6.579654334491602 -19.45157891196688 a41.534258528855354,41.534258528855354 0 0,0 0.6734369186412008,0.2342563182028104 l -6.912597025177821 19.33576416119548" fill="#fff417" stroke="none" /><path d="M 109.3889696526874 81.21577127319529 l 9.834924245856524 -19.676436646281836 a42.99745198919364,42.99745198919364 0 0,0 0.6573957794955909,0.33567096914082795 l -10.171247247065693 19.504707725468176" fill="#f8ff18" stroke="none" /><path d="M 110.02825361518725 81.54914285379988 l 6.308078079129996 -11.606153171957915 a34.20964195212532,34.20964195212532 0 0,0 0.5135613545955428,0.28486382629733775 l -6.506383621881638 11.496156430227431" fill="#ff930d" stroke="none" /><line stroke="#e1ed5e" stroke-width="0.3" x1="143.13028292997686" x2="145.6673583964461" y1="26.7553504044142" y2="22.446841604673864" /><path d="M 143.63769802327073 25.89364864446614 a86.0,86.0 0 0,1 29.32050498858742,28.57503671076993" fill="none" id="id62" stroke="none" /><text fill="#e1ed5e" style="font-size:6.75px; font-family:Arial;" text-anchor="middle"><textPath startOffset="20.669276256404974" xlink:href="#id62">February</textPath></text><path d="M 111.5731344415666 82.4767994020092 l 17.059121227653335 -25.82968380838645 a51.95458257998311,51.95458257998311 0 0,0 0.7399908809544685,0.4978988894499018 l -17.500008396704807 25.53303524487943" fill="#8eff24" stroke="none" /><path d="M 112.16784306229584 82.88440491214696 l 10.214858764406808 -14.3684780939479 a38.62942149683418,38.62942149683418 0 0,0 0.5371678397782688,0.3888680907969101 l -10.460007614559045 14.191009231777915" fill="#ffcf13" stroke="none" /><path d="M 113.59037401385872 83.9905735841838 l 17.08689569485311 -20.128320164148867 a47.402864941465566,47.402864941465566 0 0,0 0.6158321082886433,0.5319411076875609 l -17.42990728290461 19.832034923996588" fill="#c2ff1e" stroke="none" /><path d="M 114.39649973595853 84.71141617570332 l 12.275953383601964 -13.036637083358452 a38.906784689596435,38.906784689596435 0 0,0 0.48230983529600835,0.4620419119237107 l -12.497935704763284 12.82398304112916" fill="#ffd213" stroke="none" /><path d="M 115.41159269507618 85.73525988315684 l 16.155872922264763 -14.9536347836703 a43.01416414774275,43.01416414774275 0 0,0 0.49692071993367964,0.5462029189046359 l -16.41019134304032 14.674094289207991" fill="#f8ff18" stroke="none" /><path d="M 117.01052211995028 87.68569379921539 l 51.03156635985084 -36.94291860235382 a84.0,84.0 0 0,0 0.8355396058801574,1.175291093161984 l -51.65822106426096 36.06145028248233" fill="#4dd2ff" stroke="none" /><line stroke="#e1ed5e" stroke-width="0.3" x1="172.87174338648825" x2="177.1583165268699" y1="56.24261187166439" y2="53.66864786411523" /><path d="M 173.72905801456457 55.72781907015455 a86.0,86.0 0 0,1 12.242430191666344,42.057860355516425" fill="none" id="id63" stroke="none" /><text fill="#e1ed5e" style="font-size:6.75px; font-family:Arial;" text-anchor="middle"><textPath startOffset="22.145653131862474" xlink:href="#id63">March</textPath></text><path d="M 118.53625476483649 90.13048839642627 l 7.773894250620121 -4.139160822120214 a29.807160957493593,29.807160957493593 0 0,0 0.2366006294466308,0.4537129039262738 l -7.843802949041697 4.005101675089442" fill="#ff5608" stroke="none" /><path d="M 119.31412917781788 91.75594674310238 l 12.151874250698917 -5.186912522514416 a34.21257390976551,34.21257390976551 0 0,0 0.22592379967475626,0.5421348745479752 l -12.239123894910158 4.977545138525163" fill="#ff940d" stroke="none" /><path d="M 119.4528033332814 92.08871423366111 l 16.30719857225598 -6.631995694565446 a38.60420666112853,38.60420666112853 0 0,0 0.24438544692438058,0.6160109706391179 l -16.418642694146484 6.351083706712762" fill="#ffce13" stroke="none" /><path d="M 119.83427380445688 93.10060997987247 l 16.77001287721526 -5.833481004808451 a38.75564227324449,38.75564227324449 0 0,0 0.21318293708981276,0.6302374733805424 l -16.86768123587744 5.544741856953747" fill="#ffd013" stroke="none" /><path d="M 120.26092885502905 94.47779374421319 l 29.851734548127542 -8.13622299585933 a51.94065578119219,51.94065578119219 0 0,0 0.22708088450543062,0.862263105761205 l -29.987004913437705 7.622579385725326" fill="#8eff24" stroke="none" /><path d="M 120.77682067341334 96.94652285012252 l 8.71182160956497 -1.2803377685525978 a29.805401782909478,29.805401782909478 0 0,0 0.07005047686960131,0.5068503550224279 l -8.732516602989783 1.1305991053300843" fill="#ff5608" stroke="none" /><path d="M 120.9064616781168 98.02013634271609 l 17.762808427157733 -1.682156425974129 a38.84228162151219,38.84228162151219 0 0,0 0.057165438622622106,0.6643490490644915 l -17.789067488478093 1.3769863295339757" fill="#ffd113" stroke="none" /><path d="M 120.96210409425399 98.7389718711861 l 13.26731193729477 -0.7981285405057855 a34.291296972404695,34.291296972404695 0 0,0 0.030304379394308235,0.5878968643695623 l -13.27905790614565 0.5702598827594926" fill="#ff950d" stroke="none" /><path d="M 120.99303781780057 99.45929381324524 l 19.801152523158574 -0.5100074494729904 a40.80771942561554,40.80771942561554 0 0,0 0.012025779188946038,0.7004413485348647 l -19.806989733946185 0.17001918496905924" fill="#ffeb16" stroke="none" /><line stroke="#e1ed5e" stroke-width="0.3" x1="184.99686870605535" x2="189.99668451229388" y1="99.2704041080226" y2="99.22748670261217" /><path d="M 185.99683186730306 99.26182062694052 a86.0,86.0 0 0,1 -10.086455211305974,41.156179273409016" fill="none" id="id64" stroke="none" /><text fill="#e1ed5e" style="font-size:6.75px; font-family:Arial;" text-anchor="middle"><textPath startOffset="21.40746469413373" xlink:href="#id64">April</textPath></text><path d="M 120.99922638620191 100.18025310272382 l 17.873728087573568 0.15342445887168918 a38.8743865576723,38.8743865576723 0 0,0 -0.01145603810818868,0.66725678688207 l -17.86846061786671 -0.46022816172283026" fill="#ffd213" stroke="none" /><path d="M 120.98066250479742 100.90099992219065 l 17.82321552591155 0.765405563259092 a38.83964285963602,38.83964285963602 0 0,0 -0.03432390654996291,0.6658746173639536 l -17.807450029905013 -1.0712519739997763" fill="#ffd113" stroke="none" /><path d="M 120.93736805541906 101.62068470465957 l 7.324256718197719 0.5669437918253931 a28.34616646538545,28.34616646538545 0 0,0 -0.041717967421516663,0.4848260181882101 l -7.313445128078461 -0.6925908573892605" fill="#ff4106" stroke="none" /><path d="M 120.9064616781168 101.97986365728391 l 14.609084977762443 1.3834955364024857 a35.67444798916572,35.67444798916572 0 0,0 -0.06296983030931487,0.6091759866175047 l -14.583182754971462 -1.6340760453029217" fill="#ffa70f" stroke="none" /><line stroke="#e1ed5e" stroke-width="0.3" x1="174.33088141563837" x2="178.70328620479359" y1="141.23008692659167" y2="143.65538615756765" /><path d="M 175.20536237346943 141.71514677278685 a86.0,86.0 0 0,1 -30.301960400862466,31.631185727798858" fill="none" id="id65" stroke="none" /><text fill="#e1ed5e" style="font-size:6.75px; font-family:Arial;" text-anchor="middle"><textPath startOffset="22.145653131862474" xlink:href="#id65">May</textPath></text><path d="M 116.79662413953412 112.60449989151573 l 6.128553455179645 4.598980766566276 a28.662231498998246,28.662231498998246 0 0,0 -0.2986986994366161,0.39100618591959896 l -6.048702778388725 -4.703507865726753" fill="#ff4606" stroke="none" /><path d="M 115.6541949942343 113.99807769240083 l 5.489333419084094 4.9085957922545935 a28.363904809108615,28.363904809108615 0 0,0 -0.3276737390377053,0.360170839192777 l -5.4042619792045095 -5.0021042070050425" fill="#ff4106" stroke="none" /><path d="M 115.41159269507618 114.26474011684316 l 6.467104471889679 5.9858553509173476 a29.812145285481925,29.812145285481925 0 0,0 -0.35085227576732947,0.37259295845476803 l -6.36339636238609 -6.095989769316613" fill="#ff5608" stroke="none" /><path d="M 114.91283532996324 114.78537596483092 l 9.37448714216407 9.294363801890832 a34.20099267708675,34.20099267708675 0 0,0 -0.4169395459481006,0.4133759814984654 l -9.213555676086004 -9.45391979361796" fill="#ff930d" stroke="none" /><path d="M 113.59037401385872 116.0094264158162 l 5.700312269186436 6.714953519870297 a29.808187142667663,29.808187142667663 0 0,0 -0.39293672634265786,0.32780179239399715 l -5.584201208681883 -6.8118174961761655" fill="#ff5608" stroke="none" /><path d="M 111.27062007382361 117.71928675628689 l 4.005051652981291 6.296606419884454 a28.462418585819098,28.462418585819098 0 0,0 -0.4145156469021807,0.2586884211116517 l -3.896371877289396 -6.364430637837653" fill="#ff4306" stroke="none" /><line stroke="#e1ed5e" stroke-width="0.3" x1="143.1302829299769" x2="145.66735839644613" y1="173.24464959558577" y2="177.55315839532614" /><path d="M 143.63769802327073 174.10635135553383 a86.0,86.0 0 0,1 -40.68552437913181,11.842963189579606" fill="none" id="id66" stroke="none" /><text fill="#e1ed5e" style="font-size:6.75px; font-family:Arial;" text-anchor="middle"><textPath startOffset="21.407464694133747" xlink:href="#id66">June</textPath></text><path d="M 110.65571695917076 118.09573695890943 l 4.4690351708564835 7.589398744524009 a29.807454153257616,29.807454153257616 0 0,0 -0.4431481762168035,0.25585171882966423 l -4.338094526779281 -7.664997360629845" fill="#ff5608" stroke="none" /><path d="M 110.02825361518725 118.45085714620011 l 3.5074980689689075 6.453401389161978 a28.34499368232937,28.34499368232937 0 0,0 -0.42950923838936583,0.22868947723827698 l -3.396200014792988 -6.512661334122823" fill="#ff4106" stroke="none" /><path d="M 109.71004243097381 118.62028667847754 l 4.070993363440061 7.806666554991691 a29.804375597735415,29.804375597735415 0 0,0 -0.45568446086937237,0.23267573260023236 l -3.9363816808571057 -7.87540023926476" fill="#ff5608" stroke="none" /><path d="M 109.3889696526874 118.78422872680471 l 3.2843598859061167 6.570919877277915 a28.34601986750344,28.34601986750344 0 0,0 -0.4371222861097496,0.21381841461337228 l -3.1710773505342975 -6.626332041988511" fill="#ff4106" stroke="none" /><path d="M 109.06512990194946 118.94263497670748 l 3.802761527605407 7.946309021496179 a29.80935992572374,29.80935992572374 0 0,0 -0.4634805927626305,0.21693231991997244 l -3.6657922209712708 -8.010417572986684" fill="#ff5608" stroke="none" /><path d="M 108.73861861582097 119.09545874513695 l 3.0641806440023114 6.695787703706336 a28.363611613344595,28.363611613344595 0 0,0 -0.4444802108838187,0.19881034476829212 l -2.948787030262866 -6.747401799384479" fill="#ff4106" stroke="none" /><path d="M 107.74402155503746 119.51999308798841 l 3.250295303807165 8.192867415634419 a29.81405105794805,29.81405105794805 0 0,0 -0.4773481396722033,0.18464851503118537 l -3.1091749016414325 -8.247455818803646" fill="#ff5608" stroke="none" /><path d="M 107.407793817531 119.65005319985036 l 3.107106393290929 8.24196885465036 a29.808187142667663,29.808187142667663 0 0,0 -0.4803530427906051,0.17639229089564012 l -2.965164198846197 -8.294091994554721" fill="#ff5608" stroke="none" /><path d="M 107.06938296918513 119.77432235084164 l 2.9657070522878346 8.29561045224629 a29.80979971936977,29.80979971936977 0 0,0 -0.48333641623520646,0.16812949540850228 l -2.8228648640076064 -8.345298380223383" fill="#ff5608" stroke="none" /><path d="M 106.72888874123015 119.89276391827305 l 2.9151205690231805 8.61803597933743 a30.097717959636718,30.097717959636718 0 0,0 -0.4908468595174765,0.1613511121808476 l -2.7667509718579697 -8.666808012920297" fill="#ff5a08" stroke="none" /><path d="M 104.9986988182912 120.39639698878246 l 2.0967463360628242 8.555440567577936 a29.808626936313694,29.808626936313694 0 0,0 -0.4980423206245624,0.11753663156846585 l -1.9495718616983828 -8.590173342792628" fill="#ff5608" stroke="none" /><path d="M 104.64783097203109 120.47920084513623 l 2.9399480080608478 12.953953380328237 a34.28338068677618,34.28338068677618 0 0,0 -0.5750426268207729,0.1253278640747826 l -2.717142964620939 -13.00251270253674" fill="#ff950d" stroke="none" /><path d="M 104.29559338865022 120.5559693870025 l 2.7267687594101297 13.048575615179955 a34.330438606901275,34.330438606901275 0 0,0 -0.5779014619430124,0.11559647746298012 l -2.5023708119361587 -13.093461489305795" fill="#ff950d" stroke="none" /><path d="M 103.94208987418118 120.62667999033965 l 1.6531300247946692 8.649874835982684 a29.806427968083547,29.806427968083547 0 0,0 -0.5033954627234082,0.09173542229335784 l -1.5043998285202038 -8.676978432207406" fill="#ff5608" stroke="none" /><path d="M 102.875027216393 120.80226474461374 l 1.8263825694543216 13.214794461112119 a34.340407262877925,34.340407262877925 0 0,0 -0.5846408191324739,0.07569345895366629 l -1.5992639284310723 -13.244199516266178" fill="#ff950d" stroke="none" /><path d="M 102.51750503828377 120.84855314841334 l 1.055742659039998 8.743063709238005 a29.80657456596556,29.80657456596556 0 0,0 -0.5085059792021047,0.05697915561156917 l -0.9055007782370942 -8.759898625356545" fill="#ff5608" stroke="none" /><path d="M 102.15924093988457 120.88869738790638 l 1.358454657451128 13.141816520117317 a34.21184092035546,34.21184092035546 0 0,0 -0.5846973639865704,0.05537144827708584 l -1.1326577300795424 -13.163199723899586" fill="#ff940d" stroke="none" /><path d="M 100.72087961077811 120.9876233191556 l 0.3022934765299662 8.800944738055257 a29.806134772319528,29.806134772319528 0 0,0 -0.5115111490931904,0.013174712745681855 l -0.15116901336603192 -8.804837168150984" fill="#ff5608" stroke="none" /><line stroke="#e1ed5e" stroke-width="0.3" x1="101.45913802915013" x2="101.54496967792366" y1="184.9874750549273" y2="189.98673829345242" /><path d="M 101.47630435890484 185.9873277026323 a86.0,86.0 0 0,1 -42.54439059252881,-10.42667462771756" fill="none" id="id67" stroke="none" /><text fill="#e1ed5e" style="font-size:6.75px; font-family:Arial;" text-anchor="middle"><textPath startOffset="22.145653131862474" xlink:href="#id67">July</textPath></text><path d="M 100.0 121.0 l 1.6177325265179834e-15 13.209788550007332 a34.20978855000733,34.20978855000733 0 0,0 -0.5872565110882341,-0.005040890853387751 l 0.22676358623938034 -13.20784205734838" fill="#ff930d" stroke="none" /><path d="M 99.63950707515114 120.99690560180557 l -0.22667550707394313 13.202711887531741 a34.20465762413699,34.20465762413699 0 0,0 -0.5869953906908377,-0.01511891904819498 l 0.4532842118355248 -13.196875251133498" fill="#ff930d" stroke="none" /><path d="M 98.19965949673042 120.92268563240118 l -0.7551554250253496 8.776050715247285 a29.808480338431686,29.808480338431686 0 0,0 -0.5094417432520152,-0.048244662750549554 l 0.9056967316623801 -8.761794296991551" fill="#ff5608" stroke="none" /><path d="M 97.84075906011543 120.88869738790638 l -1.3615597655748606 13.17185562448739 a34.24204008404945,34.24204008404945 0 0,0 -0.584175886574346,-0.06545812656495166 l 1.587471553750006 -13.146541737415466" fill="#ff940d" stroke="none" /><path d="M 97.48249496171623 120.84855314841334 l -1.3062119942927433 10.81730911040092 a31.895887580367052,31.895887580367052 0 0,0 -0.5430232000218667,-0.07030522494603673 l 1.491713016205404 -10.793292289254486" fill="#ff730a" stroke="none" /><path d="M 96.41257539226777 120.69131181640829 l -1.8209969558366288 10.50302653015597 a31.659718392449513,31.659718392449513 0 0,0 -0.5346953552074573,-0.0974393053582253 l 2.0010270445951432 -10.470219050866378" fill="#ff700a" stroke="none" /><path d="M 95.70440661134978 120.55596938700252 l -2.7019096195962975 12.92961563206087 a34.20890896271527,34.20890896271527 0 0,0 -0.5737934963391805,-0.12505562190019098 l 2.9234655325546144 -12.88132855202696" fill="#ff930d" stroke="none" /><path d="M 94.6519064749342 120.30758222061772 l -3.3634422974902356 12.77153824637834 a34.20700319024915,34.20700319024915 0 0,0 -0.5665634251359464,-0.15441938091644264 l 3.582187123560877 -12.711918371317754" fill="#ff930d" stroke="none" /><path d="M 93.61358852112213 120.00534299687104 l -4.01501891786179 12.576989574881582 a34.20231205802484,34.20231205802484 0 0,0 -0.5577863904642817,-0.18335546559109353 l 4.230328045973815 -12.506213187888466" fill="#ff930d" stroke="none" /><path d="M 90.93487009805054 118.94263497670748 l -3.807128008092075 7.955433286331485 a29.819475179582405,29.819475179582405 0 0,0 -0.45984435282342256,-0.22493291606031626 l 3.943132610177567 -7.888906620173947" fill="#ff5608" stroke="none" /><line stroke="#e1ed5e" stroke-width="0.3" x1="58.13341422392154" x2="55.67067388415222" y1="173.97424548756322" y2="178.32567169271397" /><path d="M 57.64086615596768 174.84453072859336 a86.0,86.0 0 0,1 -31.369924170532247,-30.572349798747897" fill="none" id="id68" stroke="none" /><text fill="#e1ed5e" style="font-size:6.75px; font-family:Arial;" text-anchor="middle"><textPath startOffset="22.145653131862474" xlink:href="#id68">August</textPath></text><path d="M 89.65649057296885 118.27599006163327 l -4.335856125169225 7.661042319464388 a29.802909618915315,29.802909618915315 0 0,0 -0.4430806125095765,-0.25581271090511015 l 4.466729205539202 -7.585482711283106" fill="#ff5607" stroke="none" /><path d="M 88.1277618465304 117.32195027204791 l -5.231280303855529 7.63259430203118 a30.253258312448953,30.253258312448953 0 0,0 -0.4258576983403808,-0.2972817472171626 l 5.361533093369675 -7.541667739008888" fill="#ff5c08" stroke="none" /><path d="M 87.83215693770417 117.11559508785305 l -5.358730010478654 7.537724851882979 a30.248420582342632,30.248420582342632 0 0,0 -0.4206244388685425,-0.3044996561090631 l 5.487335459721151 -7.444624424400851" fill="#ff5c08" stroke="none" /><path d="M 87.54013794807813 116.9041958592261 l -5.491858442965013 7.450760719835233 a30.256043672207134,30.256043672207134 0 0,0 -0.4154399885841071,-0.3117539124254584 l 5.618951420459886 -7.35538778014576" fill="#ff5c08" stroke="none" /><path d="M 87.2517909369889 116.68781488649013 l -6.618791760168573 8.664210880130517 a31.903070876585524,31.903070876585524 0 0,0 -0.4323474622416052,-0.33619600166931796 l 6.766549167045406 -8.549313826840406" fill="#ff740a" stroke="none" /><path d="M 86.96720088162412 116.46651593811092 l -6.787838495373705 8.576212197715725 a31.937374780975787,31.937374780975787 0 0,0 -0.42697111269686855,-0.34393770468937973 l 6.934060378425836 -8.458426199232935" fill="#ff740a" stroke="none" /><path d="M 86.68645165197938 116.24036423190432 l -8.843510711831884 10.78764513370699 a34.94922826686399,34.94922826686399 0 0,0 -0.46070682788107736,-0.3843380214245287 l 9.027391873874855 -10.63424492837059" fill="#ff9e0e" stroke="none" /><path d="M 86.40962598614128 116.0094264158162 l -6.00010899994053 7.068113314870467 a30.271436449818147,30.271436449818147 0 0,0 -0.393269954312611,-0.33969721991052004 l 6.1205584340160035 -6.9640719624952245" fill="#ff5d08" stroke="none" /><path d="M 86.13680546590413 115.77377054828092 l -6.12830058623157 6.97288111050926 a30.28316428037892,30.28316428037892 0 0,0 -0.3875307305043372,-0.3465323688500448 l 6.247096343559279 -6.866653211775833" fill="#ff5d08" stroke="none" /><path d="M 85.60350026404147 115.28858382429668 l -2.0261770146853375 2.1517297745997914 a23.955559899196505,23.955559899196505 0 0,0 -0.2969662551553517,-0.2844869547903634 l 2.0628157557060036 -2.1166306895038454" fill="#ff0000" stroke="none" /><path d="M 85.34317274990678 115.03919595460226 l -6.148441267391752 6.3088423884561795 a29.80935992572374,29.80935992572374 0 0,0 -0.3634017617494942,-0.3602957824494004 l 6.255834949271209 -6.20236659577812" fill="#ff5608" stroke="none" /><path d="M 85.08716467003676 114.78537596483092 l -9.388228908344322 9.307988117783843 a34.22034359751203,34.22034359751203 0 0,0 -0.4100138151565913,-0.42071029459631887 l 9.546629524651722 -9.145455131119787" fill="#ff940d" stroke="none" /><path d="M 84.83555147118756 114.52719865689866 l -6.376734818603095 6.108767708644421 a29.83061661861514,29.83061661861514 0 0,0 -0.35106966063529116,-0.3728238136513028 l 6.480660312974639 -5.998402435048628" fill="#ff5608" stroke="none" /><path d="M 84.1078160697243 113.72728997021213 l -6.662782220473219 5.755152592625634 a29.8042289998534,29.8042289998534 0 0,0 -0.33111850743546584,-0.3900567691733339 l 6.760595291415798 -5.639929041002746" fill="#ff5608" stroke="none" /><path d="M 83.4222238831116 112.89097897827486 l -3.47875342985756 2.7050997081092514 a25.406732333210005,25.406732333210005 0 0,0 -0.2647720539529384,-0.3465951179215074 l 3.5246774611647935 -2.644983676946874" fill="#ff1602" stroke="none" /><path d="M 83.20337586046588 112.60449989151573 l -7.044899242238959 5.286623728487095 a29.807893946903643,29.807893946903643 0 0,0 -0.30361182455724073,-0.41190775035113286 l 7.13461308638003 -5.164909668867082" fill="#ff5608" stroke="none" /><path d="M 82.78059297857968 112.02048342749411 l -7.224508243648354 5.043267837652086 a29.81067930666183,29.81067930666183 0 0,0 -0.2893201140573663,-0.42212669284605914 l 7.310018094521045 -4.918506409735976" fill="#ff5608" stroke="none" /><path d="M 82.37810715431573 111.42229804090323 l -11.210308435900856 7.266386489046831 a34.35931838965717,34.35931838965717 0 0,0 -0.3165676302948514,-0.49769689530930217 l 11.333393757821597 -7.072875919058857" fill="#ff960d" stroke="none" /><line stroke="#e1ed5e" stroke-width="0.3" x1="26.387840678322732" x2="22.057713659400548" y1="142.50000000000003" y2="145.00000000000006" /><path d="M 25.521815274538298 143.00000000000003 a86.0,86.0 0 0,1 -11.493303480769221,-40.785679425670985" fill="none" id="id69" stroke="none" /><text fill="#e1ed5e" style="font-size:6.75px; font-family:Arial;" text-anchor="middle"><textPath startOffset="21.40746469413373" xlink:href="#id69">September</textPath></text><path d="M 81.4637452351635 109.86951160357371 l -13.553622942102693 7.2165408058214835 a36.35510195533651,36.35510195533651 0 0,0 -0.28857629274036384,-0.5533830915401023 l 13.675507303818007 -6.982811471176878" fill="#ffb110" stroke="none" /><path d="M 81.29705330413844 109.54985784667822 l -7.895114009164098 4.031301467993718 a29.864773925123387,29.864773925123387 0 0,0 -0.22921937396015438,-0.4585922958916045 l 7.96315329633599 -3.8951773159383603" fill="#ff5708" stroke="none" /><path d="M 80.68587082218212 108.24405325689762 l -13.502052538761447 5.763223347124527 a35.68060510021013,35.68060510021013 0 0,0 -0.23561798946184795,-0.5653974009911211 l 13.59899637275978 -5.530593436692125" fill="#ffa70f" stroke="none" /><path d="M 80.41425534168474 107.57618678355246 l -13.726934165024087 5.309873023163163 a35.71813415800459,35.71813415800459 0 0,0 -0.21629765220465147,-0.573755220179807 l 13.816062501043174 -5.073449522789211" fill="#ffa80f" stroke="none" /><path d="M 80.28708602549918 107.23885506374661 l -4.584849841104959 1.683620368441286 a25.884201634915428,25.884201634915428 0 0,0 -0.14958582423626776,-0.41841817319245667 l 4.61307583538517 -1.604667238867908" fill="#ff1d02" stroke="none" /><path d="M 79.73907114497094 105.5222062557868 l -14.236920164814517 3.880335899692059 a35.7562496073271,35.7562496073271 0 0,0 -0.1563238019487751,-0.5935869382679307 l 14.301433447568025 -3.635368457051326" fill="#ffa80f" stroke="none" /><path d="M 79.56144815229197 104.8234425847677 l -14.656505804605688 3.4588954622906805 a36.059120831559035,36.059120831559035 0 0,0 -0.1370060087684809,-0.6036737539390564 l 14.713722674931835 -3.2067873744125976" fill="#ffad10" stroke="none" /><path d="M 79.22317932658666 103.0534771498775 l -17.103540159239657 2.5136314106556 a38.287262040223666,38.287262040223666 0 0,0 -0.08998506322726184,-0.6510870915033768 l 17.14416973902213 -2.2196560109521375" fill="#ffca12" stroke="none" /><path d="M 79.13060592940153 102.33845913500099 l -16.195199909654363 1.8147059298311616 a37.296553553602465,37.296553553602465 0 0,0 -0.0658330480434028,-0.6368750208930622 l 16.223965350179434 -1.536426386655168" fill="#ffbd11" stroke="none" /><path d="M 79.06263194458094 101.62068470465958 l -16.23581817905926 1.2567550095497695 a37.28438592939567,37.28438592939567 0 0,0 -0.04391752468029499,-0.6385511702797346 l 16.254999664904624 -0.9778604151156914" fill="#ffbd11" stroke="none" /><path d="M 79.01933749520258 100.90099992219065 l -17.72918635064275 0.7613675458904139 a38.745527019385825,38.745527019385825 0 0,0 -0.02283276306366559,-0.6647509838688734 l 17.739643800703263 -0.45691029745742057" fill="#ffd013" stroke="none" /><line stroke="#e1ed5e" stroke-width="0.3" x1="15.003131293944662" x2="10.003315487706104" y1="100.72959589197737" y2="100.7725132973878" /><path d="M 14.003168132696942 100.73817937305945 a86.0,86.0 0 0,1 10.791469493833604,-42.45332614584628" fill="none" id="id70" stroke="none" /><text fill="#e1ed5e" style="font-size:6.75px; font-family:Arial;" text-anchor="middle"><textPath startOffset="22.145653131862435" xlink:href="#id70">October</textPath></text><path d="M 79.00077361379809 100.18025310272382 l -14.673760808329721 0.1259565883849227 a35.674301391283706,35.674301391283706 0 0,0 0.0,-0.6124193822174752 l 14.673760808329721 0.12595658838491733" fill="#ffa70f" stroke="none" /><path d="M 79.00696218219943 99.45929381324524 l -14.66284166606551 -0.377662788637693 a35.66770448659327,35.66770448659327 0 0,0 0.021019000339306322,-0.6119452611379583 l 14.654197978729353 0.6293143143397899" fill="#ffa70f" stroke="none" /><path d="M 79.13060592940154 97.66154086499901 l -14.580560404426114 -1.6337822054546238 a35.67180922728955,35.67180922728955 0 0,0 0.07341243686412226,-0.6079602894298972 l 14.550365881302323 1.8838361718079573" fill="#ffa70f" stroke="none" /><path d="M 79.22317932658666 96.9465228501225 l -14.51979937587513 -2.1339104915014104 a35.675767370103806,35.675767370103806 0 0,0 0.09424944478645918,-0.6051490455188252 l 14.481028438950402 2.3828477189516857" fill="#ffa70f" stroke="none" /><path d="M 79.407916724674 95.88100663000787 l -14.39170262405 -2.878743587949182 a35.676793555277875,35.676793555277875 0 0,0 0.1252804012958413,-0.5995120722163954 l 14.340164511929792 3.1253721114509863" fill="#ffa70f" stroke="none" /><path d="M 79.56144815229197 95.17655741523228 l -14.28654046494463 -3.371584649494071 a35.67899252350802,35.67899252350802 0 0,0 0.14579536189755843,-0.5948948293312787 l 14.226557576530775 3.616335303433467" fill="#ffa70f" stroke="none" /><path d="M 79.73907114497095 94.47779374421319 l -14.157431707537146 -3.8586709671916513 a35.67386159763768,35.67386159763768 0 0,0 0.16610685621617488,-0.5894546332457558 l 14.089106359246388 4.10113352434042" fill="#ffa70f" stroke="none" /><path d="M 79.94057633289273 93.78553927170692 l -14.020409746816945 -4.343558778762068 a35.67781974045194,35.67781974045194 0 0,0 0.1862641860805825,-0.5834699099641786 l 13.943780844959104 4.583597722417639" fill="#ffa70f" stroke="none" /><path d="M 80.28708602549916 92.7611449362534 l -17.06358993149118 -6.2659865781917325 a39.17769757555027,39.17769757555027 0 0,0 0.23724766716226467,-0.6293276238663834 l 16.95351158051448 6.55798248225226" fill="#ffd614" stroke="none" /><path d="M 80.5471966667186 92.08871423366112 l -16.302174078379362 -6.629952276647299 a38.59878253949417,38.59878253949417 0 0,0 0.2548882652659272,-0.6116390478233255 l 16.185959968576956 6.908823833911889" fill="#ffce13" stroke="none" /><path d="M 80.9802524753101 91.09779779509293 l -13.292672363746547 -6.221641852608195 a35.67664695739586,35.67664695739586 0 0,0 0.26438220347678293,-0.5524571218467991 l 13.18391090230986 6.448911476520081" fill="#ffa70f" stroke="none" /><path d="M 81.29705330413844 90.45014215332179 l -15.684211273240695 -8.008470030546533 a38.61051037005494,38.61051037005494 0 0,0 0.3064790729260745,-0.5877140331162497 l 15.544424131339682 8.27653030676727" fill="#ffce13" stroke="none" /><path d="M 81.63589988554816 89.8137432299009 l -15.438515093181843 -8.563484075347786 a38.65448973465783,38.65448973465783 0 0,0 0.32684512709520125,-0.5775040218820251 l 15.289236601065273 8.827244867328917" fill="#ffcf13" stroke="none" /><line stroke="#e1ed5e" stroke-width="0.3" x1="26.387840678322718" x2="22.05771365940052" y1="57.49999999999999" y2="54.99999999999999" /><path d="M 25.521815274538284 56.99999999999999 a86.0,86.0 0 0,1 29.574782752854787,-30.34633250058573" fill="none" id="id71" stroke="none" /><text fill="#e1ed5e" style="font-size:6.75px; font-family:Arial;" text-anchor="middle"><textPath startOffset="21.40746469413373" xlink:href="#id71">November</textPath></text><path d="M 82.18462484594161 88.88188828441811 l -26.257248047288556 -16.386464759177183 a51.950917632932864,51.950917632932864 0 0,0 0.4786468317034814,-0.7525123205634683 l 25.97208352395918 16.834790754419323" fill="#8eff24" stroke="none" /><path d="M 82.78059297857968 87.97951657250589 l -14.439279791272744 -10.079738705289538 a38.60948418488087,38.60948418488087 0 0,0 0.38404468094130634,-0.5402069389769816 l 14.264120011801467 10.32612287097604" fill="#ffce13" stroke="none" /><path d="M 83.2033758604659 87.39550010848427 l -15.274071350671004 -11.461947894005583 a40.09642650210473,40.09642650210473 0 0,0 0.41785826929257097,-0.5469898879346174 l 15.075061104024128 11.722458695181084" fill="#ffe215" stroke="none" /><path d="M 83.64595745247003 86.82634096563983 l -11.746794042841499 -9.462385768992599 a36.083895873618665,36.083895873618665 0 0,0 0.39271853219893443,-0.4790527541425739 l 11.582628691403935 9.662640804833666" fill="#ffad10" stroke="none" /><path d="M 83.8745106332314 86.54754324733833 l -11.267095970791207 -9.399412186988439 a35.67298201034562,35.67298201034562 0 0,0 0.3963190780441208,-0.4668628774058271 l 11.10408232923997 9.591441846843823" fill="#ffa70f" stroke="none" /><path d="M 84.34580500576568 86.00192230759919 l -15.309854940015208 -13.690166692611955 a41.5380700737876,41.5380700737876 0 0,0 0.4798681572615504,-0.5274591653586715 l 15.072589081911792 13.950963433528283" fill="#fff417" stroke="none" /><path d="M 84.83555147118756 85.47280134310135 l -13.81906408387617 -13.238350792477085 a40.13688751753939,40.13688751753939 0 0,0 0.48090336476850065,-0.4934492175266018 l 13.589773917956867 13.473622702071417" fill="#ffe215" stroke="none" /><path d="M 85.34317274990677 84.96080404539775 l -8.327080019747696 -8.544317675971937 a32.93086862735517,32.93086862735517 0 0,0 0.40822910324074935,-0.39107424638872823 l 8.179178430641645 8.686004052666235" fill="#ff820c" stroke="none" /><line stroke="#e1ed5e" stroke-width="0.3" x1="56.869717070023135" x2="54.33264160355391" y1="26.7553504044142" y2="22.446841604673864" /><path d="M 56.362301976729285 25.89364864446614 a86.0,86.0 0 0,1 42.16139366436587,-11.88097634709845" fill="none" id="id72" stroke="none" /><text fill="#e1ed5e" style="font-size:6.75px; font-family:Arial;" text-anchor="middle"><textPath startOffset="22.145653131862474" xlink:href="#id72">December</textPath></text></svg>