<?xml version="1.0" encoding="utf-8" ?>
<svg baseProfile="full" height="200mm" version="1.1" viewBox="0,0,200,200" width="200mm" xmlns="http://www.w3.org/2000/svg" xmlns:ev="http://www.w3.org/2001/xml-events" xmlns:xlink="http://www.w3.org/1999/xlink"><defs /><rect fill="#1a1a1a" height="200" width="200" x="0" y="0" /><text alignment-baseline="middle" fill="#e1ed5e" style="dominant-baseline: central; font-size:9.0px; font-family:Arial;" text-anchor="middle" x="100.0" y="100.0">2020</text><line stroke="#e1ed5e" stroke-width="0.3" x1="100.0" x2="100.0" y1="15.0" y2="10.0" /><path d="M 100.0 14.0 a86.0,86.0 0 0,1 42.35913384403234,11.155469271406648" fill="none" id="id13" stroke="none" /><text fill="#e1ed5e" style="font-size:6.75px; font-family:Arial;" text-anchor="middle"><textPath startOffset="22.145653131862478" xlink:href="#id13">January</textPath></text><path d="M 107.40779381753099 80.34994680014964 l 9.324190302711804 -24.7335225583915 a47.43270063666681,47.43270063666681 0 0,0 0.7594376008994465,0.29376677860570616 l -9.747400166104775 24.569815891647753" fill="#ff790b" stroke="none" /><path d="M 107.74402155503746 80.48000691201159 l 7.584581378038636 -19.118099687919 a41.56763502100567,41.56763502100567 0 0,0 0.6610155368632803,0.2688292642720672 l -7.911651376092356 18.985083167067636" fill="#ff0000" stroke="none" /><path d="M 108.07796709384702 80.6158196554323 l 10.273220863011126 -24.651990236487364 a47.706922127419986,47.706922127419986 0 0,0 0.7532353356680075,0.32151137465498864 l -10.694891273849564 24.472004212172973" fill="#ff7e0b" stroke="none" /><path d="M 108.4095320186766 80.7573450057729 l 10.97447752772962 -25.11175227575059 a48.40509550002166,48.40509550002166 0 0,0 0.758546102978586,0.33928802354540766 l -11.403937033563837 24.91966050129533" fill="#ff8c0c" stroke="none" /><path d="M 108.73861861582097 80.90454125486305 l 11.452334575921586 -25.02541786571277 a48.521400883537616,48.521400883537616 0 0,0 0.7544183336781027,0.35310587297614576 l -11.880241623471195 24.825135761166095" fill="#ff8e0d" stroke="none" /><path d="M 109.06512990194946 81.05736502329252 l 11.885247488006248 -24.83559609275053 a48.53299731473862,48.53299731473862 0 0,0 0.7484244644271297,0.36609190957949433 l -12.309832201695446 24.627910433073815" fill="#ff8e0d" stroke="none" /><line stroke="#e1ed5e" stroke-width="0.3" x1="143.13028292997686" x2="145.6673583964461" y1="26.7553504044142" y2="22.446841604673864" /><path d="M 143.63769802327073 25.89364864446614 a86.0,86.0 0 0,1 29.32050498858742,28.57503671076993" fill="none" id="id14" stroke="none" /><text fill="#e1ed5e" style="font-size:6.75px; font-family:Arial;" text-anchor="middle"><textPath startOffset="20.669276256404974" xlink:href="#id14">February</textPath></text><line stroke="#e1ed5e" stroke-width="0.3" x1="172.87174338648825" x2="177.1583165268699" y1="56.24261187166439" y2="53.66864786411523" /><path d="M 173.72905801456457 55.72781907015455 a86.0,86.0 0 0,1 12.242430191666344,42.057860355516425" fill="none" id="id15" stroke="none" /><text fill="#e1ed5e" style="font-size:6.75px; font-family:Arial;" text-anchor="middle"><textPath startOffset="22.145653131862474" xlink:href="#id15">March</textPath></text><line stroke="#e1ed5e" stroke-width="0.3" x1="184.99686870605535" x2="189.99668451229388" y1="99.2704041080226" y2="99.22748670261217" /><path d="M 185.99683186730306 99.26182062694052 a86.0,86.0 0 0,1 -10.086455211305974,41.156179273409016" fill="none" id="id16" stroke="none" /><text fill="#e1ed5e" style="font-size:6.75px; font-family:Arial;" text-anchor="middle"><textPath startOffset="21.40746469413373" xlink:href="#id16">April</textPath></text><line stroke="#e1ed5e" stroke-width="0.3" x1="174.33088141563837" x2="178.70328620479359" y1="141.23008692659167" y2="143.65538615756765" /><path d="M 175.20536237346943 141.71514677278685 a86.0,86.0 0 0,1 -30.301960400862466,31.631185727798858" fill="none" id="id17" stroke="none" /><text fill="#e1ed5e" style="font-size:6.75px; font-family:Arial;" text-anchor="middle"><textPath startOffset="22.145653131862474" xlink:href="#id17">May</textPath></text><line stroke="#e1ed5e" stroke-width="0.3" x1="143.1302829299769" x2="145.66735839644613" y1="173.24464959558577" y2="177.55315839532614" /><path d="M 143.63769802327073 174.10635135553383 a86.0,86.0 0 0,1 -40.68552437913181,11.842963189579606" fill="none" id="id18" stroke="none" /><text fill="#e1ed5e" style="font-size:6.75px; font-family:Arial;" text-anchor="middle"><textPath startOffset="21.407464694133747" xlink:href="#id18">June</textPath></text><line stroke="#e1ed5e" stroke-width="0.3" x1="101.45913802915013" x2="101.54496967792366" y1="184.9874750549273" y2="189.98673829345242" /><path d="M 101.47630435890484 185.9873277026323 a86.0,86.0 0 0,1 -42.54439059252881,-10.42667462771756" fill="none" id="id19" stroke="none" /><text fill="#e1ed5e" style="font-size:6.75px; font-family:Arial;" text-anchor="middle"><textPath startOffset="22.145653131862474" xlink:href="#id19">July</textPath></text><line stroke="#e1ed5e" stroke-width="0.3" x1="58.13341422392154" x2="55.67067388415222" y1="173.97424548756322" y2="178.32567169271397" /><path d="M 57.64086615596768 174.84453072859336 a86.0,86.0 0 0,1 -31.369924170532247,-30.572349798747897" fill="none" id="id20" stroke="none" /><text fill="#e1ed5e" style="font-size:6.75px; font-family:Arial;" text-anchor="middle"><textPath startOffset="22.145653131862474" xlink:href="#id20">August</textPath></text><path d="M 85.34317274990678 115.03919595460226 l -26.42509023589854 27.114470505422503 a58.86132465676297,58.86132465676297 0 0,0 -0.7175702239992753,-0.7114371820146254 l 26.88665238002778 -26.65685331317922" fill="#b6ff1f" stroke="none" /><path d="M 83.64595745247003 113.17365903436017 l -32.44796026827748 26.137779921534733 a62.665977305210276,62.665977305210276 0 0,0 -0.6676420371347422,-0.8435439037751522 l 32.89186873605378 -25.5769160738449" fill="#79ff26" stroke="none" /><path d="M 82.18462484594161 111.11811171558189 l -53.44612546217514 33.35433514674568 a84.0,84.0 0 0,0 -0.7529281421783813,-1.2298515355017718 l 54.01082156880893 -32.43194649511935" fill="#4dd2ff" stroke="none" /><line stroke="#e1ed5e" stroke-width="0.3" x1="26.387840678322732" x2="22.057713659400548" y1="142.50000000000003" y2="145.00000000000006" /><path d="M 25.521815274538298 143.00000000000003 a86.0,86.0 0 0,1 -11.493303480769221,-40.785679425670985" fill="none" id="id21" stroke="none" /><text fill="#e1ed5e" style="font-size:6.75px; font-family:Arial;" text-anchor="middle"><textPath startOffset="21.40746469413373" xlink:href="#id21">September</textPath></text><path d="M 80.16572619554312 106.89939002012753 l -29.65380278252094 10.315131927370166 a52.396655333708686,52.396655333708686 0 0,0 -0.28821797866149196,-0.8520652409340954 l 29.8265061827548 -9.804565011961909" fill="#ffd714" stroke="none" /><path d="M 79.48165901384964 104.47187691870673 l -33.585131278832236 7.3197230457823474 a55.37352743730781,55.37352743730781 0 0,0 -0.1944462225217529,-0.9304955650915212 l 33.70583521217836 -6.742111029405417" fill="#f2ff19" stroke="none" /><path d="M 79.0935383218832 101.97986365728391 l -41.20738841547217 3.9023825261054137 a62.39175581445709,62.39175581445709 0 0,0 -0.09182395932152548,-1.0671335955157213 l 41.26830599749143 -3.1944278832140305" fill="#7dff26" stroke="none" /><line stroke="#e1ed5e" stroke-width="0.3" x1="15.003131293944662" x2="10.003315487706104" y1="100.72959589197737" y2="100.7725132973878" /><path d="M 14.003168132696942 100.73817937305945 a86.0,86.0 0 0,1 10.791469493833604,-42.45332614584628" fill="none" id="id22" stroke="none" /><text fill="#e1ed5e" style="font-size:6.75px; font-family:Arial;" text-anchor="middle"><textPath startOffset="22.145653131862435" xlink:href="#id22">October</textPath></text><path d="M 79.83685265289637 94.1308016681162 l -25.323027657804843 -7.371164289427517 a47.37403633764996,47.37403633764996 0 0,0 0.2339909231058488,-0.7788796815960558 l 25.192760414695368 7.804781574614297" fill="#ff770b" stroke="none" /><path d="M 80.68587082218212 91.75594674310238 l -34.436622206651464 -14.698946291886221 a58.442488847503135,58.442488847503135 0 0,0 0.40176739238952974,-0.9193224191919606 l 34.17922093224496 15.28793078085405" fill="#bdff1f" stroke="none" /><line stroke="#e1ed5e" stroke-width="0.3" x1="26.387840678322718" x2="22.05771365940052" y1="57.49999999999999" y2="54.99999999999999" /><path d="M 25.521815274538284 56.99999999999999 a86.0,86.0 0 0,1 29.574782752854787,-30.34633250058573" fill="none" id="id23" stroke="none" /><text fill="#e1ed5e" style="font-size:6.75px; font-family:Arial;" text-anchor="middle"><textPath startOffset="21.40746469413373" xlink:href="#id23">November</textPath></text><path d="M 88.72937992617638 82.28071324371311 l -14.355103568950405 -22.568607129717197 a47.74716856511759,47.74716856511759 0 0,0 0.6953712807589455,-0.43396310863114423 l 13.96556815940176 22.81170603518988" fill="#ff7f0b" stroke="none" /><line stroke="#e1ed5e" stroke-width="0.3" x1="56.869717070023135" x2="54.33264160355391" y1="26.7553504044142" y2="22.446841604673864" /><path d="M 56.362301976729285 25.89364864446614 a86.0,86.0 0 0,1 42.16139366436587,-11.88097634709845" fill="none" id="id24" stroke="none" /><text fill="#e1ed5e" style="font-size:6.75px; font-family:Arial;" text-anchor="middle"><textPath startOffset="22.145653131862474" xlink:href="#id24">December</textPath></text></svg>