<?xml version="1.0" encoding="utf-8" ?>
<svg baseProfile="full" height="200mm" version="1.1" viewBox="0,0,200,200" width="200mm" xmlns="http://www.w3.org/2000/svg" xmlns:ev="http://www.w3.org/2001/xml-events" xmlns:xlink="http://www.w3.org/1999/xlink"><defs /><rect fill="#1a1a1a" height="200" width="200" x="0" y="0" /><text alignment-baseline="middle" fill="#e1ed5e" style="dominant-baseline: central; font-size:9.0px; font-family:Arial;" text-anchor="middle" x="100.0" y="100.0">2025</text><line stroke="#e1ed5e" stroke-width="0.3" x1="100.0" x2="100.0" y1="15.0" y2="10.0" /><path d="M 100.0 14.0 a86.0,86.0 0 0,1 42.46469731375804,11.215312516191453" fill="none" id="id73" stroke="none" /><text fill="#e1ed5e" style="font-size:6.75px; font-family:Arial;" text-anchor="middle"><textPath startOffset="22.20632615414155" xlink:href="#id73">January</textPath></text><path d="M 101.08401301168833 79.027996857942 l 2.272854687332358 -43.97208809323801 a65.03078922423731,65.03078922423731 0 0,0 1.1174084164769922,0.06740512719191417 l -3.0294251526489617 43.92644969666579" fill="#34ff5b" stroke="none" /><path d="M 103.59715602781102 79.31037775812273 l 5.081129185463156 -29.224932862693418 a50.66335406909177,50.66335406909177 0 0,0 0.8579112327742968,0.15677779415890622 l -5.583435539340353 29.133139587183774" fill="#a8ff21" stroke="none" /><path d="M 107.08798089147638 80.2323363322302 l 3.4726353765709503 -9.6848297443075 a31.28859191701349,31.28859191701349 0 0,0 0.5054115895209658,0.18614735376443373 l -3.6388292918644924 9.623619122736741" fill="#ff5407" stroke="none" /><line stroke="#e1ed5e" stroke-width="0.3" x1="143.23703022742887" x2="145.7803849466894" y1="26.81831364943548" y2="22.513508569990506" /><path d="M 143.74570117128098 25.957352633546492 a86.0,86.0 0 0,1 28.547481713284135,27.462654790039103" fill="none" id="id74" stroke="none" /><text fill="#e1ed5e" style="font-size:6.75px; font-family:Arial;" text-anchor="middle"><textPath startOffset="19.985693538727396" xlink:href="#id74">February</textPath></text><path d="M 116.15771136456269 86.58626213691792 l 6.027263499695864 -5.003687143091327 a28.833568172978612,28.833568172978612 0 0,0 0.3137387526830132,0.38460661390168277 l -6.112500744455287 4.899196359581543" fill="#ff2f04" stroke="none" /><path d="M 116.82858285166822 87.43820079747576 l 50.48574855500462 -37.68539760757273 a84.0,84.0 0 0,0 0.8549495499454944,1.1661502253140252 l -51.126960717463746 36.81078493858721" fill="#4dd2ff" stroke="none" /><line stroke="#e1ed5e" stroke-width="0.3" x1="172.23445277983987" x2="176.4835382374775" y1="55.19839476539836" y2="52.563006222186495" /><path d="M 173.08426987136738 54.67131705675599 a86.0,86.0 0 0,1 12.851231095245387,41.99856678651699" fill="none" id="id75" stroke="none" /><text fill="#e1ed5e" style="font-size:6.75px; font-family:Arial;" text-anchor="middle"><textPath startOffset="22.20632615414155" xlink:href="#id75">March</textPath></text><path d="M 118.89224826269711 90.83032412892265 l 4.29539478015348 -2.0848433349298934 a25.77461915220171,25.77461915220171 0 0,0 0.19029254792372455,0.40080463657752635 l -4.330645521918961 2.0105962827118264" fill="#ff0000" stroke="none" /><path d="M 119.61058180528143 92.48833698450437 l 7.302808916237168 -2.79727752037203 a28.820216083526834,28.820216083526834 0 0,0 0.17346395577854534,0.4647971606336011 l -7.349877460517338 2.671157222709096" fill="#ff2f04" stroke="none" /><path d="M 119.7369772167798 92.82701384747503 l 7.3866971776166315 -2.6845385686970005 a28.8593919943359,28.8593919943359 0 0,0 0.16566241879139235,0.4683499662644968 l -7.431812677217834 2.5569909760058893" fill="#ff2f04" stroke="none" /><path d="M 120.78858239683441 97.02765380044208 l 8.743414245208768 -1.2501311348129343 a29.83233380922326,29.83233380922326 0 0,0 0.06830752223760174,0.5089703817737561 l -8.763637766504205 1.0994424109745138" fill="#ff3e05" stroke="none" /><path d="M 120.91429891909075 98.10471618934814 l 9.293560792102307 -0.8421958288308801 a30.331643264216726,30.331643264216726 0 0,0 0.04264559161804496,0.5203842350626672 l -9.306680867539846 0.6820976765604441" fill="#ff4506" stroke="none" /><line stroke="#e1ed5e" stroke-width="0.3" x1="184.98032266829074" x2="189.97916517819016" y1="98.17113171792111" y2="98.06355123074" /><path d="M 185.9800911702706 98.14961562048488 a86.0,86.0 0 0,1 -9.607161424134198,41.387399972396054" fill="none" id="id76" stroke="none" /><text fill="#e1ed5e" style="font-size:6.75px; font-family:Arial;" text-anchor="middle"><textPath startOffset="21.466115282336823" xlink:href="#id76">April</textPath></text><path d="M 120.99513854157772 99.54816195383933 l 9.32288185418738 -0.20063848177237203 a30.325040582619692,30.325040582619692 0 0,0 0.006739368978765388,0.5219715544505733 l -9.32495423028386 0.040130669261336" fill="#ff4506" stroke="none" /><path d="M 120.99980553446 99.90962569577887 l 9.685163857299418 -0.04168085954104427 a30.685253545302313,30.685253545302313 0 0,0 -0.002273196767272099,0.5282108721687413 l -9.684446363242643 -0.12503949083138172" fill="#ff4b06" stroke="none" /><path d="M 120.99824983174949 100.27111621757518 l 9.321035712547255 0.12034736068565416 a30.321812604950033,30.321812604950033 0 0,0 -0.011230531319916769,0.5218386609110767 l -9.31758311854233 -0.28077583738684564" fill="#ff4506" stroke="none" /><path d="M 120.9904718944345 100.63252640178507 l 9.312450029561203 0.28062115700044915 a30.316677185930118,30.316677185930118 0 0,0 -0.0202080390305528,0.5214796949756833 l -9.306239857679447 -0.44087809899013863" fill="#ff4506" stroke="none" /><path d="M 120.9764740272857 100.99374915477107 l 9.317525122637496 0.44141273233694617 a30.32797510777393,30.32797510777393 0 0,0 -0.02919233557715657,0.5212487620319453 l -9.308546436172811 -0.6017332107043147" fill="#ff4506" stroke="none" /><path d="M 120.92983693683757 101.71520430193887 l 9.296078246349852 0.7618154621757318 a30.32724147648537,30.32724147648537 0 0,0 -0.047116118903474336,0.5199224459769743 l -9.281587531169302 -0.9217192967012767" fill="#ff4506" stroke="none" /><line stroke="#e1ed5e" stroke-width="0.3" x1="174.80103733775053" x2="179.2010983576182" y1="140.37084112569926" y2="142.7455964860345" /><path d="M 175.68104954172406 140.8457921977663 a86.0,86.0 0 0,1 -30.038265399797805,32.042727171017184" fill="none" id="id77" stroke="none" /><text fill="#e1ed5e" style="font-size:6.75px; font-family:Arial;" text-anchor="middle"><textPath startOffset="22.206326154141568" xlink:href="#id77">May</textPath></text><line stroke="#e1ed5e" stroke-width="0.3" x1="143.8653032363475" x2="146.44561519142675" y1="172.8068346515853" y2="177.08958963109032" /><path d="M 144.38136562736335 173.6633856474863 a86.0,86.0 0 0,1 -40.68145358897372,12.25698825130547" fill="none" id="id78" stroke="none" /><text fill="#e1ed5e" style="font-size:6.75px; font-family:Arial;" text-anchor="middle"><textPath startOffset="21.466115282336833" xlink:href="#id78">June</textPath></text><line stroke="#e1ed5e" stroke-width="0.3" x1="102.19456741930631" x2="102.32365962044197" y1="184.97166512339345" y2="189.96999836594603" /><path d="M 102.22038585953345 185.97133177190398 a86.0,86.0 0 0,1 -42.740103519485714,-10.115201625700543" fill="none" id="id79" stroke="none" /><text fill="#e1ed5e" style="font-size:6.75px; font-family:Arial;" text-anchor="middle"><textPath startOffset="22.20632615414155" xlink:href="#id79">July</textPath></text><line stroke="#e1ed5e" stroke-width="0.3" x1="58.666819895761336" x2="56.23545636021788" y1="174.27360380694188" y2="178.64263932499728" /><path d="M 58.180547188652646 175.14741091055294 a86.0,86.0 0 0,1 -31.652253787137756,-30.449443065178592" fill="none" id="id80" stroke="none" /><text fill="#e1ed5e" style="font-size:6.75px; font-family:Arial;" text-anchor="middle"><textPath startOffset="22.20632615414155" xlink:href="#id80">August</textPath></text><line stroke="#e1ed5e" stroke-width="0.3" x1="26.63291911575756" x2="22.317208475507996" y1="142.92168965132927" y2="145.44649492493687" /><path d="M 25.769776987707644 143.4266507060508 a86.0,86.0 0 0,1 -11.730757126820373,-40.83630448921669" fill="none" id="id81" stroke="none" /><text fill="#e1ed5e" style="font-size:6.75px; font-family:Arial;" text-anchor="middle"><textPath startOffset="21.46611528233685" xlink:href="#id81">September</textPath></text><line stroke="#e1ed5e" stroke-width="0.3" x1="15.007084014347285" x2="10.007500721073583" y1="101.09737516637583" y2="101.16192664675087" /><path d="M 14.007167355692545 101.11028546245083 a86.0,86.0 0 0,1 10.666146001902534,-42.60595125391555" fill="none" id="id82" stroke="none" /><text fill="#e1ed5e" style="font-size:6.75px; font-family:Arial;" text-anchor="middle"><textPath startOffset="22.20632615414155" xlink:href="#id82">October</textPath></text><line stroke="#e1ed5e" stroke-width="0.3" x1="26.266209847984243" x2="21.928928074336255" y1="57.711370442889674" y2="55.22380399835377" /><path d="M 25.398753493254645 57.213857153982495 a86.0,86.0 0 0,1 29.58750427330803,-30.492523968695096" fill="none" id="id83" stroke="none" /><text fill="#e1ed5e" style="font-size:6.75px; font-family:Arial;" text-anchor="middle"><textPath startOffset="21.46611528233685" xlink:href="#id83">November</textPath></text><line stroke="#e1ed5e" stroke-width="0.3" x1="56.762969772571076" x2="54.21961505331055" y1="26.818313649435495" y2="22.513508569990535" /><path d="M 56.25429882871897 25.957352633546506 a86.0,86.0 0 0,1 42.265352541879196,-11.944610805530505" fill="none" id="id84" stroke="none" /><text fill="#e1ed5e" style="font-size:6.75px; font-family:Arial;" text-anchor="middle"><textPath startOffset="22.20632615414155" xlink:href="#id84">December</textPath></text></svg>