<?xml version="1.0" encoding="utf-8" ?>
<svg baseProfile="full" height="200mm" version="1.1" viewBox="0,0,200,200" width="200mm" xmlns="http://www.w3.org/2000/svg" xmlns:ev="http://www.w3.org/2001/xml-events" xmlns:xlink="http://www.w3.org/1999/xlink"><defs /><rect fill="#1a1a1a" height="200" width="200" x="0" y="0" /><text alignment-baseline="middle" fill="#e1ed5e" style="dominant-baseline: central; font-size:9.0px; font-family:Arial;" text-anchor="middle" x="100.0" y="100.0">2025</text><line stroke="#e1ed5e" stroke-width="0.3" x1="100.0" x2="100.0" y1="15.0" y2="10.0" /><path d="M 100.0 14.0 a86.0,86.0 0 0,1 42.46469731375804,11.215312516191453" fill="none" id="id73" stroke="none" /><text fill="#e1ed5e" style="font-size:6.75px; font-family:Arial;" text-anchor="middle"><textPath startOffset="22.20632615414155" xlink:href="#id73">January</textPath></text><path d="M 101.08401301168833 79.027996857942 l 2.272854687332358 -43.97208809323801 a65.03078922423731,65.03078922423731 0 0,0 1.1174084164769922,0.06740512719191417 l -3.0294251526489617 43.92644969666579" fill="#34ff5b" stroke="none" /><path d="M 103.59715602781102 79.31037775812273 l 5.081129185463156 -29.224932862693418 a50.66335406909177,50.66335406909177 0 0,0 0.8579112327742968,0.15677779415890622 l -5.583435539340353 29.133139587183774" fill="#a8ff21" stroke="none" /><path d="M 107.08798089147638 80.2323363322302 l 3.4726353765709503 -9.6848297443075 a31.28859191701349,31.28859191701349 0 0,0 0.5054115895209658,0.18614735376443373 l -3.6388292918644924 9.623619122736741" fill="#ff5407" stroke="none" /><line stroke="#e1ed5e" stroke-width="0.3" x1="143.23703022742887" x2="145.7803849466894" y1="26.81831364943548" y2="22.513508569990506" /><path d="M 143.74570117128098 25.957352633546492 a86.0,86.0 0 0,1 28.547481713284135,27.462654790039103" fill="none" id="id74" stroke="none" /><text fill="#e1ed5e" style="font-size:6.75px; font-family:Arial;" text-anchor="middle"><textPath startOffset="19.985693538727396" xlink:href="#id74">February</textPath></text><path d="M 116.15771136456269 86.58626213691792 l 6.027263499695864 -5.003687143091327 a28.833568172978612,28.833568172978612 0 0,0 0.3137387526830132,0.38460661390168277 l -6.112500744455287 4.899196359581543" fill="#ff2f04" stroke="none" /><path d="M 116.82858285166822 87.43820079747576 l 50.48574855500462 -37.68539760757273 a84.0,84.0 0 0,0 0.8549495499454944,1.1661502253140252 l -51.126960717463746 36.81078493858721" fill="#4dd2ff" stroke="none" /><line stroke="#e1ed5e" stroke-width="0.3" x1="172.23445277983987" x2="176.4835382374775" y1="55.19839476539836" y2="52.563006222186495" /><path d="M 173.08426987136738 54.67131705675599 a86.0,86.0 0 0,1 12.851231095245387,41.99856678651699" fill="none" id="id75" stroke="none" /><text fill="#e1ed5e" style="font-size:6.75px; font-family:Arial;" text-anchor="middle"><textPath startOffset="22.20632615414155" xlink:href="#id75">March</textPath></text><path d="M 118.89224826269711 90.83032412892265 l 4.29539478015348 -2.0848433349298934 a25.77461915220171,25.77461915220171 0 0,0 0.19029254792372455,0.40080463657752635 l -4.330645521918961 2.0105962827118264" fill="#ff0000" stroke="none" /><path d="M 119.61058180528143 92.48833698450437 l 7.302808916237168 -2.79727752037203 a28.820216083526834,28.820216083526834 0 0,0 0.17346395577854534,0.4647971606336011 l -7.349877460517338 2.671157222709096" fill="#ff2f04" stroke="none" /><path d="M 119.7369772167798 92.82701384747503 l 7.3866971776166315 -2.6845385686970005 a28.8593919943359,28.8593919943359 0 0,0 0.16566241879139235,0.4683499662644968 l -7.431812677217834 2.5569909760058893" fill="#ff2f04" stroke="none" /><path d="M 120.78858239683441 97.02765380044208 l 8.743414245208768 -1.2501311348129343 a29.83233380922326,29.83233380922326 0 0,0 0.06830752223760174,0.5089703817737561 l -8.763637766504205 1.0994424109745138" fill="#ff3e05" stroke="none" /><path d="M 120.91429891909075 98.10471618934814 l 9.293560792102307 -0.8421958288308801 a30.331643264216726,30.331643264216726 0 0,0 0.04264559161804496,0.5203842350626672 l -9.306680867539846 0.6820976765604441" fill="#ff4506" stroke="none" /><line stroke="#e1ed5e" stroke-width="0.3" x1="184.98032266829074" x2="189.97916517819016" y1="98.17113171792111" y2="98.06355123074" /><path d="M 185.9800911702706 98.14961562048488 a86.0,86.0 0 0,1 -9.607161424134198,41.387399972396054" fill="none" id="id76" stroke="none" /><text fill="#e1ed5e" style="font-size:6.75px; font-family:Arial;" text-anchor="middle"><textPath startOffset="21.466115282336823" xlink:href="#id76">April</textPath></text><path d="M 120.99513854157772 99.54816195383933 l 9.32288185418738 -0.20063848177237203 a30.325040582619692,30.325040582619692 0 0,0 0.006739368978765388,0.5219715544505733 l -9.32495423028386 0.040130669261336" fill="#ff4506" stroke="none" /><path d="M 120.99980553446 99.90962569577887 l 9.685163857299418 -0.04168085954104427 a30.685253545302313,30.685253545302313 0 0,0 -0.002273196767272099,0.5282108721687413 l -9.684446363242643 -0.12503949083138172" fill="#ff4b06" stroke="none" /><path d="M 120.99824983174949 100.27111621757518 l 9.321035712547255 0.12034736068565416 a30.321812604950033,30.321812604950033 0 0,0 -0.011230531319916769,0.5218386609110767 l -9.31758311854233 -0.28077583738684564" fill="#ff4506" stroke="none" /><path d="M 120.9904718944345 100.63252640178507 l 9.312450029561203 0.28062115700044915 a30.316677185930118,30.316677185930118 0 0,0 -0.0202080390305528,0.5214796949756833 l -9.306239857679447 -0.44087809899013863" fill="#ff4506" stroke="none" /><path d="M 120.9764740272857 100.99374915477107 l 9.317525122637496 0.44141273233694617 a30.32797510777393,30.32797510777393 0 0,0 -0.02919233557715657,0.5212487620319453 l -9.308546436172811 -0.6017332107043147" fill="#ff4506" stroke="none" /><path d="M 120.92983693683757 101.71520430193887 l 9.296078246349852 0.7618154621757318 a30.32724147648537,30.32724147648537 0 0,0 -0.047116118903474336,0.5199224459769743 l -9.281587531169302 -0.9217192967012767" fill="#ff4506" stroke="none" /><path d="M 120.89721153311464 102.0752229133903 l 9.287719870459041 0.9223282760852765 a30.33340397930927,30.33340397930927 0 0,0 -0.05607013952931525,0.5191398552342027 l -9.270467429428674 -1.0820644532042705" fill="#ff4506" stroke="none" /><path d="M 120.81339534386255 102.79330883721812 l 9.188663404356365 1.2331853724759967 a30.271045319781727,30.271045319781727 0 0,0 -0.07375460764314765,0.515839554074768 l -9.166074745696617 -1.391170398531174" fill="#ff4506" stroke="none" /><path d="M 120.5718875245553 104.21870165774334 l 10.172848232999437 2.0861581929854456 a31.384550889557048,31.384550889557048 0 0,0 -0.11308296248856994,0.5282859534899236 l -10.135431231786423 -2.260957965891538" fill="#ff5507" stroke="none" /><path d="M 120.49622156327973 104.57218783832717 l 9.00839705595938 2.009545190313066 a30.229815241364694,30.229815241364694 0 0,0 -0.11766514237395707,0.5068983537641222 l -8.97247134765487 -2.1643122014257528" fill="#ff4406" stroke="none" /><path d="M 120.41448212921028 104.9243191809786 l 9.06718116364474 2.1871578146798134 a30.32724147648537,30.32724147648537 0 0,0 -0.12678041287033184,0.5064247282702873 l -9.028189436479348 -2.3429103823474966" fill="#ff4506" stroke="none" /><path d="M 120.32669344350535 105.2749913415812 l 10.060404522831687 2.6107810844019825 a31.393647917535183,31.393647917535183 0 0,0 -0.14024278579966357,0.5218955775574334 l -10.013973660690246 -2.783567595134964" fill="#ff5507" stroke="none" /><path d="M 120.13307415673323 105.97154293290107 l 8.950632731498716 2.654790183390792 a30.336045051948084,30.336045051948084 0 0,0 -0.15279720926399581,0.4993501206620991 l -8.903608749728589 -2.8084672766049485" fill="#ff4506" stroke="none" /><path d="M 120.02730092923936 106.31721596034902 l 8.800060517400572 2.77580503478616 a30.227467621241303,30.227467621241303 0 0,0 -0.16079249359276884,0.49486841043182556 l -8.750975772791557 -2.9268723451957803" fill="#ff4406" stroke="none" /><path d="M 119.9155931802556 106.66101706037122 l 8.864521801995362 2.9648492224506233 a30.347196247534185,30.347196247534185 0 0,0 -0.1699575492321524,0.49397619343395893 l -8.81217342181998 -3.116998118973883" fill="#ff4606" stroke="none" /><path d="M 119.67450827220406 107.3425965602758 l 13.811255445406989 5.154409722646401 a35.741733838568514,35.741733838568514 0 0,0 -0.2200766972653923,0.5745508106868136 l -13.72048446854809 -5.391384100166358" fill="#ff940d" stroke="none" /><path d="M 119.54520255179757 107.68017299344265 l 9.569283755158901 3.7601940664565605 a31.28154905664332,31.28154905664332 0 0,0 -0.20124073807293544,0.49946300826421647 l -9.503140402828574 -3.9243564425635906" fill="#ff5307" stroke="none" /><path d="M 118.81262510543309 109.33194174019688 l 9.536594618228666 4.730596866647986 a31.64543017576874,31.64543017576874 0 0,0 -0.24626372830999377,0.48590169900157604 l -9.453752220132404 -4.894052777352256" fill="#ff5908" stroke="none" /><line stroke="#e1ed5e" stroke-width="0.3" x1="174.80103733775053" x2="179.2010983576182" y1="140.37084112569926" y2="142.7455964860345" /><path d="M 175.68104954172406 140.8457921977663 a86.0,86.0 0 0,1 -30.038265399797805,32.042727171017184" fill="none" id="id77" stroke="none" /><text fill="#e1ed5e" style="font-size:6.75px; font-family:Arial;" text-anchor="middle"><textPath startOffset="22.206326154141568" xlink:href="#id77">May</textPath></text><path d="M 118.30583269289576 110.29060199501025 l 9.275212172387619 5.214049450061738 a31.640294756748826,31.640294756748826 0 0,0 -0.27097351681674325,0.4724651669956972 l -9.184086659418496 -5.372934462915751" fill="#ff5908" stroke="none" /><path d="M 117.35343817320211 111.8261652097733 l 8.734938266956728 5.952758295570643 a31.57045305807798,31.57045305807798 0 0,0 -0.30990021685107416,0.4464343758243231 l -8.63117714294352 -6.102233933581986" fill="#ff5808" stroke="none" /><path d="M 117.14729908036423 112.12312394758627 l 8.621951959855783 6.095711738017096 a31.559155136234168,31.559155136234168 0 0,0 -0.31742530001552105,0.4408759789202587 l -8.51574686746466 -6.243221322388486" fill="#ff5808" stroke="none" /><path d="M 116.27256486870786 113.27417163493432 l 13.677722712552251 11.157456757821798 a38.65131552899474,38.65131552899474 0 0,0 -0.4249877792867472,0.5119251577206476 l -13.48363893337196 -11.391243172656216" fill="#ffbc11" stroke="none" /><path d="M 116.0416608686014 113.55231037782055 l 6.755437492557788 5.707126362227539 a29.84348500480936,29.84348500480936 0 0,0 -0.3348971800902604,0.3895610800308468 l -6.656197802896749 -5.822564541419914" fill="#ff3e05" stroke="none" /><path d="M 115.80600337817218 113.82643327865902 l 7.907658406534028 6.917290141754573 a31.506186957200185,31.506186957200185 0 0,0 -0.3605825341184768,0.4051182995913078 l -7.7874170227672135 -7.052382611086747" fill="#ff5708" stroke="none" /><path d="M 114.81725581225074 114.88116024355365 l 9.554152026261942 9.595357540937274 a34.54077941919692,34.54077941919692 0 0,0 -0.42493390513936724,0.415887262910385 l -9.38756816874678 -9.758394906770231" fill="#ff830c" stroke="none" /><path d="M 114.29624159901734 115.38237550388516 l 10.42324337827282 11.215132487967864 a36.31088499223283,36.31088499223283 0 0,0 -0.46149483636589667,0.42156459108328814 l -10.22864899244006 -11.392889845637736" fill="#ff9c0e" stroke="none" /><path d="M 112.63410532772338 116.77436683061366 l 5.5948973948620315 7.42837413861992 a30.29965694003554,30.29965694003554 0 0,0 -0.4193112237112277,0.3101964189859835 l -5.46620120073224 -7.523580506345672" fill="#ff4506" stroke="none" /><path d="M 112.34349029814194 116.9893568818739 l 8.930000112472491 12.29109070461268 a36.19262362851706,36.19262362851706 0 0,0 -0.5071666698725388,0.3618499528437929 l -8.717106114751068 -12.442984919300692" fill="#ff9a0e" stroke="none" /><path d="M 111.45004920935366 117.60387380957326 l 5.8264793191707955 8.957918417065107 a31.686073349154928,31.686073349154928 0 0,0 -0.4597772938649177,0.2934516225543373 l -5.671420223258948 -9.056884468443254" fill="#ff5908" stroke="none" /><path d="M 111.1453310114006 117.79835938074945 l 8.186609043676919 13.073475316256639 a36.42518474699037,36.42518474699037 0 0,0 -0.534272121351497,0.32819357390655346 l -7.960357722393113 -13.21245735699157" fill="#ff9d0e" stroke="none" /><line stroke="#e1ed5e" stroke-width="0.3" x1="143.8653032363475" x2="146.44561519142675" y1="172.8068346515853" y2="177.08958963109032" /><path d="M 144.38136562736335 173.6633856474863 a86.0,86.0 0 0,1 -40.68145358897372,12.25698825130547" fill="none" id="id78" stroke="none" /><text fill="#e1ed5e" style="font-size:6.75px; font-family:Arial;" text-anchor="middle"><textPath startOffset="21.466115282336833" xlink:href="#id78">June</textPath></text><path d="M 110.8373102113329 117.98757091392108 l 5.496432066421192 9.122878245647355 a31.650712321046367,31.650712321046367 0 0,0 -0.46908183710226087,0.2771418175958961 l -5.338582358290549 -9.216138635537" fill="#ff5908" stroke="none" /><path d="M 110.21172684928248 118.3499491758327 l 7.164221882684002 12.873739120908517 a35.7329302631058,35.7329302631058 0 0,0 -0.5400389014570565,0.29447226771650775 l -6.941560169358297 -12.995152040384797" fill="#ff940d" stroke="none" /><path d="M 109.89434966115114 118.52300852407294 l 4.357633164845792 8.157835433504449 a30.248742928609524,30.248742928609524 0 0,0 -0.4613784546271888,0.2413714013685232 l -4.216563807692108 -8.231636253817689" fill="#ff4406" stroke="none" /><path d="M 109.57404056367764 118.69057910512821 l 6.715637439249194 13.110363588373245 a35.73028919046698,35.73028919046698 0 0,0 -0.5498144442506814,0.2756883763079233 l -6.488969087315753 -13.224019805590471" fill="#ff940d" stroke="none" /><path d="M 109.2508944713604 118.85261126421891 l 4.720860261167293 9.620750037957995 a31.716592410758995,31.716592410758995 0 0,0 -0.4921921752793484,0.2362821546033216 l -4.554555417887713 -9.700586469060877" fill="#ff5a08" stroke="none" /><path d="M 107.59598834532513 119.57807347666477 l 3.3822829762086286 8.717573226377906 a30.350717677719267,30.350717677719267 0 0,0 -0.48868959372068765,0.18478058883885812 l -3.2317231617276665 -8.774502065323395" fill="#ff4606" stroke="none" /><path d="M 106.91757812671514 119.82793768551818 l 2.9309054705884137 8.400889728811373 a29.897480267647325,29.897480267647325 0 0,0 -0.4873720192632236,0.16534305035985072 l -2.7858637183879633 -8.450095766069346" fill="#ff3f05" stroke="none" /><path d="M 105.88484417918355 120.15858648285463 l 4.1268920729658545 14.136705786121816 a35.7267677602819,35.7267677602819 0 0,0 -0.5918204270555855,0.16725436422037188 l -3.882940477805663 -14.205648943680705" fill="#ff940d" stroke="none" /><path d="M 105.18746579009965 120.34920634021253 l 2.281600095163203 8.950179721846924 a30.236417922961728,30.236417922961728 0 0,0 -0.5054473901422483,0.12422667102305952 l -2.127199420277744 -8.988127651184014" fill="#ff4406" stroke="none" /><path d="M 104.83641907484287 120.43548508189849 l 2.149130356318415 9.080793176928548 a30.331643264216726,30.331643264216726 0 0,0 -0.5091091945923863,0.11587159517199488 l -1.9925010123331668 -9.116441505678228" fill="#ff4506" stroke="none" /><path d="M 104.13013068566511 120.58985236759428 l 1.8250369849212258 9.098317933461727 a30.279555442729013,30.279555442729013 0 0,0 -0.5119153713590673,0.09810979928981774 l -1.6681539989904541 -9.128384931100014" fill="#ff4506" stroke="none" /><path d="M 102.34483914955558 120.86867818915974 l 1.6441960498340573 14.633071206772415 a35.72515377144707,35.72515377144707 0 0,0 -0.6116952751173707,0.06340471633699889 l -1.3920681781110842 -14.659205291565172" fill="#ff940d" stroke="none" /><path d="M 101.98527174616119 120.90594882070398 l 1.3883923568791003 14.620496973321837 a35.686271313153426,35.686271313153426 0 0,0 -0.612029209145201,0.05280845544965366 l -1.1365188299923576 -14.642229681050154" fill="#ff930d" stroke="none" /><path d="M 101.62511606390274 120.93702456842531 l 0.6844910695895748 8.818574044765834 a29.845098993644193,29.845098993644193 0 0,0 -0.512535909778446,0.035347477145108705 l -0.5325923990321985 -8.829049866427228" fill="#ff3e05" stroke="none" /><line stroke="#e1ed5e" stroke-width="0.3" x1="102.19456741930631" x2="102.32365962044197" y1="184.97166512339345" y2="189.96999836594603" /><path d="M 102.22038585953345 185.97133177190398 a86.0,86.0 0 0,1 -42.740103519485714,-10.115201625700543" fill="none" id="id79" stroke="none" /><text fill="#e1ed5e" style="font-size:6.75px; font-family:Arial;" text-anchor="middle"><textPath startOffset="22.20632615414155" xlink:href="#id79">July</textPath></text><path d="M 100.18074693466247 120.99922214144158 l 0.15158636802443137 17.61134052814691 a38.611992891927954,38.611992891927954 0 0,0 -0.6646666053737615,0.0 l 0.15158636802441924 -17.61134052814691" fill="#ffbc11" stroke="none" /><path d="M 99.45781275523022 120.99299961872073 l -0.2296129916551368 8.890407313651139 a29.893371932431393,29.893371932431393 0 0,0 -0.5142793761432338,-0.01771282155614258 l 0.3826127194730136 -8.885137693668902" fill="#ff3f05" stroke="none" /><path d="M 98.37488393609728 120.93702456842531 l -1.1415943489298015 14.707619635067209 a35.751857950350626,35.751857950350626 0 0,0 -0.6131540377198104,-0.052905510392102756 l 1.3945927043911535 -14.685789872396443" fill="#ff940d" stroke="none" /><path d="M 98.01472825383883 120.90594882070398 l -1.4012507956792757 14.755903052610794 a35.822286554052326,35.822286554052326 0 0,0 -0.6133584076138554,-0.06357710682039242 l 1.6550417998987244 -14.729596577334641" fill="#ff950d" stroke="none" /><line stroke="#e1ed5e" stroke-width="0.3" x1="58.666819895761336" x2="56.23545636021788" y1="174.27360380694188" y2="178.64263932499728" /><path d="M 58.180547188652646 175.14741091055294 a86.0,86.0 0 0,1 -31.652253787137756,-30.449443065178592" fill="none" id="id80" stroke="none" /><text fill="#e1ed5e" style="font-size:6.75px; font-family:Arial;" text-anchor="middle"><textPath startOffset="22.20632615414155" xlink:href="#id80">August</textPath></text><line stroke="#e1ed5e" stroke-width="0.3" x1="26.63291911575756" x2="22.317208475507996" y1="142.92168965132927" y2="145.44649492493687" /><path d="M 25.769776987707644 143.4266507060508 a86.0,86.0 0 0,1 -11.730757126820373,-40.83630448921669" fill="none" id="id81" stroke="none" /><text fill="#e1ed5e" style="font-size:6.75px; font-family:Arial;" text-anchor="middle"><textPath startOffset="21.46611528233685" xlink:href="#id81">September</textPath></text><line stroke="#e1ed5e" stroke-width="0.3" x1="15.007084014347285" x2="10.007500721073583" y1="101.09737516637583" y2="101.16192664675087" /><path d="M 14.007167355692545 101.11028546245083 a86.0,86.0 0 0,1 10.666146001902534,-42.60595125391555" fill="none" id="id82" stroke="none" /><text fill="#e1ed5e" style="font-size:6.75px; font-family:Arial;" text-anchor="middle"><textPath startOffset="22.20632615414155" xlink:href="#id82">October</textPath></text><line stroke="#e1ed5e" stroke-width="0.3" x1="26.266209847984243" x2="21.928928074336255" y1="57.711370442889674" y2="55.22380399835377" /><path d="M 25.398753493254645 57.213857153982495 a86.0,86.0 0 0,1 29.58750427330803,-30.492523968695096" fill="none" id="id83" stroke="none" /><text fill="#e1ed5e" style="font-size:6.75px; font-family:Arial;" text-anchor="middle"><textPath startOffset="21.46611528233685" xlink:href="#id83">November</textPath></text><line stroke="#e1ed5e" stroke-width="0.3" x1="56.762969772571076" x2="54.21961505331055" y1="26.818313649435495" y2="22.513508569990535" /><path d="M 56.25429882871897 25.957352633546506 a86.0,86.0 0 0,1 42.265352541879196,-11.944610805530505" fill="none" id="id84" stroke="none" /><text fill="#e1ed5e" style="font-size:6.75px; font-family:Arial;" text-anchor="middle"><textPath startOffset="22.20632615414155" xlink:href="#id84">December</textPath></text></svg>