<?xml version="1.0" encoding="utf-8" ?>
<svg baseProfile="full" height="200mm" version="1.1" viewBox="0,0,200,200" width="200mm" xmlns="http://www.w3.org/2000/svg" xmlns:ev="http://www.w3.org/2001/xml-events" xmlns:xlink="http://www.w3.org/1999/xlink"><defs /><rect fill="#1a1a1a" height="200" width="200" x="0" y="0" /><text alignment-baseline="middle" fill="#e1ed5e" style="dominant-baseline: central; font-size:9.0px; font-family:Arial;" text-anchor="middle" x="100.0" y="100.0">2023</text><line stroke="#e1ed5e" stroke-width="0.3" x1="100.0" x2="100.0" y1="15.0" y2="10.0" /><path d="M 100.0 14.0 a86.0,86.0 0 0,1 42.46469731375804,11.215312516191453" fill="none" id="id49" stroke="none" /><text fill="#e1ed5e" style="font-size:6.75px; font-family:Arial;" text-anchor="middle"><textPath startOffset="22.20632615414155" xlink:href="#id49">January</textPath></text><path d="M 102.88285421437855 79.19881850522331 l 2.763341113982796 -19.938836919759154 a41.12941310185119,41.12941310185119 0 0,0 0.7004359019993355,0.10322604446141281 l -3.1061459964107874 19.888316391136772" fill="#ffc011" stroke="none" /><path d="M 105.01212808612495 79.60689891045804 l 4.792593358270045 -19.49986894924534 a41.08018526148294,41.08018526148294 0 0,0 0.6852392261080911,0.1746827362227743 l -5.127541473063161 19.414483216853696" fill="#ffbf11" stroke="none" /><path d="M 107.4271985657038 80.35727306442388 l 7.408310581512674 -19.592773845922228 a41.94659525196414,41.94659525196414 0 0,0 0.6731766081360452,0.2611820655306885 l -7.744470354648386 19.462349076500992" fill="#ffcb13" stroke="none" /><path d="M 107.76421540070413 80.48803036053334 l 7.7407198989729915 -19.452923941636 a41.9364513333428,41.9364513333428 0 0,0 0.6684193673091148,0.2726650429361943 l -8.074423135870495 19.316798012516227" fill="#ffcb12" stroke="none" /><path d="M 109.41281617654863 81.2277094730956 l 9.39436150974419 -18.73548577470992 a41.958827624419285,41.958827624419285 0 0,0 0.6428482257727673,0.32929182960136355 l -9.715470223105713 18.57100141979606" fill="#ffcc13" stroke="none" /><path d="M 109.73455568895987 81.39251694778311 l 9.712151011652816 -18.56465678807069 a41.95166721127481,41.95166721127481 0 0,0 0.6369760427005144,0.34025054213328243 l -10.030272100881641 18.39472751943565" fill="#ffcb13" stroke="none" /><line stroke="#e1ed5e" stroke-width="0.3" x1="143.23703022742887" x2="145.7803849466894" y1="26.81831364943548" y2="22.513508569990506" /><path d="M 143.74570117128098 25.957352633546492 a86.0,86.0 0 0,1 28.547481713284135,27.462654790039103" fill="none" id="id50" stroke="none" /><text fill="#e1ed5e" style="font-size:6.75px; font-family:Arial;" text-anchor="middle"><textPath startOffset="19.985693538727396" xlink:href="#id50">February</textPath></text><path d="M 111.60114157652 82.49532879139004 l 17.11912954077923 -25.830624685715872 a51.988477985991736,51.988477985991736 0 0,0 0.7416906642643794,0.5007928473470931 l -17.561224899450153 25.53211992607011" fill="#acff20" stroke="none" /><path d="M 111.90073688211348 82.69761687909136 l 12.141669867707568 -17.652673599935945 a42.42514953045307,42.42514953045307 0 0,0 0.5981316987844975,0.41902947907726035 l -12.443732706075718 17.441059278094748" fill="#ffd213" stroke="none" /><path d="M 113.06298171725822 83.55741782278167 l 13.033844403129052 -16.405906578005066 a41.95315896401324,41.95315896401324 0 0,0 0.561566209727037,0.4540808206204254 l -13.31431401142058 16.17911966012051" fill="#ffcb13" stroke="none" /><path d="M 113.89432698308785 84.25364557470407 l 21.886224950571815 -24.803522727148998 a54.07902027363007,54.07902027363007 0 0,0 0.6926982026276279,0.6219112857555678 l -22.309934140795434 24.423112432624134" fill="#92ff23" stroke="none" /><path d="M 115.4437574822437 85.77008943001954 l 15.419622154369984 -14.207672228202895 a41.9671814397545,41.9671814397545 0 0,0 0.4849334981798622,0.5354756806159682 l -15.661899293165881 13.940143760317378" fill="#ffcc13" stroke="none" /><path d="M 115.68641384162765 86.03803664274999 l 15.680396634277951 -13.956607638002914 a41.99194453521247,41.99194453521247 0 0,0 0.4759249744556324,0.544064517753331 l -15.918313472311432 13.684627564046636" fill="#ffcc13" stroke="none" /><path d="M 116.60985879189232 87.15038557335679 l 16.559831229077016 -12.810912418339857 a41.9367496838905,41.9367496838905 0 0,0 0.436789340222174,0.5747635718614256 l -16.777896509523305 12.523964070597398" fill="#ffcb12" stroke="none" /><path d="M 117.2510076193507 88.02491185347247 l 27.020949749718195 -18.757064062322026 a53.893147882421474,53.893147882421474 0 0,0 0.5224441131884725,0.7666222698865358 l -27.3398183285754 18.289163769165082" fill="#95ff23" stroke="none" /><line stroke="#e1ed5e" stroke-width="0.3" x1="172.23445277983987" x2="176.4835382374775" y1="55.19839476539836" y2="52.563006222186495" /><path d="M 173.08426987136738 54.67131705675599 a86.0,86.0 0 0,1 12.851231095245387,41.99856678651699" fill="none" id="id51" stroke="none" /><text fill="#e1ed5e" style="font-size:6.75px; font-family:Arial;" text-anchor="middle"><textPath startOffset="22.20632615414155" xlink:href="#id51">March</textPath></text><path d="M 117.84615892207809 88.93136811851018 l 17.812184107189562 -11.047559855801557 a41.96002102661003,41.96002102661003 0 0,0 0.37541071687989924,0.617076510948841 l -17.999710622355686 10.739315571645635" fill="#ffcc13" stroke="none" /><path d="M 118.03404312379186 89.2402003453031 l 17.99048696525343 -10.733812385154252 a41.94928040689332,41.94928040689332 0 0,0 0.364639776248087,0.623287577328099 l -18.172586415971846 10.422545395472257" fill="#ffcb13" stroke="none" /><path d="M 118.21658344932153 89.55222093294921 l 18.16637507008718 -10.418982994778814 a41.94211999374885,41.94211999374885 0 0,0 0.35379647928040364,0.6293644589678019 l -18.34302919066002 10.104735025876218" fill="#ffcb12" stroke="none" /><path d="M 118.56541770881063 90.18545643968196 l 31.705778071309922 -16.761149405594658 a56.8635259351869,56.8635259351869 0 0,0 0.45000864798491125,0.8692734730310157 l -31.98959615245495 16.2129032103033" fill="#71ff27" stroke="none" /><path d="M 119.196687751892 91.48605970444005 l 27.309331760981465 -12.111986355652377 a50.87473539147854,50.87473539147854 0 0,0 0.34815105285956327,0.8035806308706507 l -27.513773523683707 11.640106580195123" fill="#baff1f" stroke="none" /><path d="M 119.47837535516314 92.15188598940014 l 24.972900518570636 -10.061936217548011 a47.92375012431273,47.92375012431273 0 0,0 0.3017061371567526,0.7678092104024188 l -25.14240020560909 9.630578002249807" fill="#e1ff1b" stroke="none" /><path d="M 119.61058180528143 92.48833698450437 l 19.553466581304235 -7.489785525075861 a41.9388381377243,41.9388381377243 0 0,0 0.25242270019911406,0.6763673398628106 l -19.679493870004976 7.1520950481837176" fill="#ffcb12" stroke="none" /><path d="M 119.97218684219823 93.5106431181261 l 28.450584029816437 -9.244155120616734 a50.914714364868516,50.914714364868516 0 0,0 0.26365218965179,0.8358494906540394 l -28.60549170323643 8.753055463536276" fill="#baff1f" stroke="none" /><path d="M 120.37134235888165 94.90015583598534 l 30.17628270914793 -7.55445255176364 a52.10751985451859,52.10751985451859 0 0,0 0.21033374016291878,0.8719691437370737 l -30.30184924957167 7.03389817636716" fill="#abff21" stroke="none" /><path d="M 120.73433829027371 96.67025291283417 l 25.048112849819773 -4.0225002424992935 a46.3690454203191,46.3690454203191 0 0,0 0.11977368766179679,0.7891589519406621 l -25.11364243092087 3.590742178166549" fill="#f5ff19" stroke="none" /><path d="M 120.78858239683441 97.02765380044208 l 25.092672800873057 -3.5877439458201126 a46.347862531433364,46.347862531433364 0 0,0 0.10612336502993908,0.7907423347390937 l -25.150712164960833 3.1552832690163544" fill="#f6ff19" stroke="none" /><path d="M 120.83666639777658 97.38593545837742 l 25.141831263772644 -3.1541691153196685 a46.33891201500278,46.33891201500278 0 0,0 0.09247844974983423,0.7922988818190697 l -25.19240006652607 2.720926495175746" fill="#f6ff19" stroke="none" /><path d="M 120.91429891909075 98.10471618934814 l 29.80511188536342 -2.7009820529739565 a50.92724508787134,50.92724508787134 0 0,0 0.07160253327954771,0.8737322685766221 l -29.847188902462463 2.1875358671895655" fill="#baff1f" stroke="none" /><line stroke="#e1ed5e" stroke-width="0.3" x1="184.98032266829074" x2="189.97916517819016" y1="98.17113171792111" y2="98.06355123074" /><path d="M 185.9800911702706 98.14961562048488 a86.0,86.0 0 0,1 -9.607161424134198,41.387399972396054" fill="none" id="id52" stroke="none" /><text fill="#e1ed5e" style="font-size:6.75px; font-family:Arial;" text-anchor="middle"><textPath startOffset="21.466115282336823" xlink:href="#id52">April</textPath></text><path d="M 120.8583938346157 102.4346265915055 l 29.749444599955535 3.472404897512865 a50.95141148223394,50.95141148223394 0 0,0 -0.10917793421158763,0.8702555567940324 l -29.6852651564971 -3.983978208594292" fill="#b9ff1f" stroke="none" /><path d="M 120.81339534386255 102.79330883721812 l 20.77465871934317 2.7881101008367435 a41.96091607825309,41.96091607825309 0 0,0 -0.10223667101697953,0.7150430389739483 l -20.723587997309586 -3.145298611791101" fill="#ffcc13" stroke="none" /><path d="M 120.70491114924044 103.5080841355445 l 20.847577861948494 3.532256508365321 a42.14470001562789,42.14470001562789 0 0,0 -0.12734434059710661,0.7142146900731146 l -20.7836870790122 -3.8905899491716536" fill="#ffce13" stroke="none" /><path d="M 120.64145759157962 103.86396538481128 l 20.583392769906123 3.8530959750311697 a41.940926591558096,41.940926591558096 0 0,0 -0.13894443209702131,0.7084746658288685 l -20.514018404833436 -4.206834367927983" fill="#ffcb12" stroke="none" /><path d="M 120.41448212921028 104.9243191809786 l 29.102680612774343 7.020059948242372 a50.93738900649267,50.93738900649267 0 0,0 -0.21293935400577177,0.8505868694458151 l -28.97752994447351 -7.519974657085583" fill="#baff1f" stroke="none" /><path d="M 120.23288151984713 105.62410040840565 l 28.811885440455164 8.008791852690356 a50.9042720956995,50.9042720956995 0 0,0 -0.24193434138591796,0.8422051811681665 l -28.669758462183147 -8.503554509363104" fill="#baff1f" stroke="none" /><path d="M 120.13307415673323 105.97154293290107 l 20.07558132559248 5.954490350328824 a41.94003153991504,41.94003153991504 0 0,0 -0.2112444046272097,0.6903589368411734 l -19.97011014845914 -6.299176259722054" fill="#ffcb12" stroke="none" /><path d="M 119.9155931802556 106.66101706037122 l 28.953396714483862 9.683822506581143 a51.52991319419779,51.52991319419779 0 0,0 -0.28859001296843095,0.8387776636769345 l -28.782415870572198 -10.180772873347378" fill="#b2ff20" stroke="none" /><path d="M 119.67450827220406 107.3425965602758 l 33.59958894199624 12.539486262064752 a56.86322758463921,56.86322758463921 0 0,0 -0.3501305051176263,0.9140802641132233 l -33.37876415728511 -13.115990093011119" fill="#71ff27" stroke="none" /><path d="M 119.12269723197855 108.67885076344098 l 19.057494178351096 8.649258307686003 a41.92839586855527,41.92839586855527 0 0,0 -0.3039317203039075,0.6546418864994504 l -18.90578784120736 -8.976020261464283" fill="#ffcb12" stroke="none" /><line stroke="#e1ed5e" stroke-width="0.3" x1="174.80103733775053" x2="179.2010983576182" y1="140.37084112569926" y2="142.7455964860345" /><path d="M 175.68104954172406 140.8457921977663 a86.0,86.0 0 0,1 -30.038265399797805,32.042727171017184" fill="none" id="id53" stroke="none" /><text fill="#e1ed5e" style="font-size:6.75px; font-family:Arial;" text-anchor="middle"><textPath startOffset="22.206326154141568" xlink:href="#id53">May</textPath></text><path d="M 118.30583269289576 110.29060199501025 l 26.08412760785344 14.66316119581105 a50.92306818020373,50.92306818020373 0 0,0 -0.4361148648574247,0.7604030271102769 l -25.827860746843637 -15.10998406877964" fill="#baff1f" stroke="none" /><path d="M 118.12598468904814 110.60418214915192 l 13.005735870767149 7.608700687069616 a36.067896060352055,36.067896060352055 0 0,0 -0.3181173392240842,0.5331829586147299 l -12.872837655844839 -7.83144573957045" fill="#ff750a" stroke="none" /><path d="M 117.94076556474637 110.91462005526583 l 39.44842662600574 23.999231629610314 a67.17511756432296,67.17511756432296 0 0,0 -0.6094873919269157,0.9826877407966221 l -39.02947459441086 -24.67471570177221" fill="#36ff6b" stroke="none" /><path d="M 117.75023020441432 111.22182372390056 l 13.325470814659775 8.424458882956072 a36.765141290295084,36.765141290295084 0 0,0 -0.34278266009025593,0.5320063006646 l -13.17848329119247 -8.652586783542125" fill="#ff800b" stroke="none" /><path d="M 116.93607887273984 112.41649034213515 l 16.899505585220037 12.389677059398206 a41.95465071675167,41.95465071675167 0 0,0 -0.4320105012971538,0.5787486646346783 l -16.68373381722779 -12.6787386035422" fill="#ffcb13" stroke="none" /><path d="M 116.71984013943494 112.70617746262583 l 16.694898272120785 12.68722298760095 a41.96867319249293,41.96867319249293 0 0,0 -0.4420564000277257,0.5714174868382351 l -16.474035054874992 -12.972718468552438" fill="#ffcc13" stroke="none" /><path d="M 116.498646956653 112.99209946851258 l 16.469815871713053 12.96939601141642 a41.96330288263458,41.96330288263458 0 0,0 -0.4517691015609806,0.5636514168722281 l -16.244128858097216 -13.250975261866898" fill="#ffcc13" stroke="none" /><path d="M 116.27256486870786 113.27417163493432 l 16.226096266002664 13.236265366750967 a41.94003153991504,41.94003153991504 0 0,0 -0.4611486212932065,0.5554832213867041 l -15.995851644815913 -13.513609845251441" fill="#ffcb12" stroke="none" /><path d="M 115.56566222782051 114.09645910891815 l 22.337975866202253 20.229551352535726 a51.136687172347166,51.136687172347166 0 0,0 -0.5964816764793107,0.6473630532564368 l -21.98644778172722 -20.611065660593496" fill="#b7ff1f" stroke="none" /><path d="M 115.32070863581623 114.36230785411682 l 15.401679605065155 14.438213611170418 a42.110986403739325,42.110986403739325 0 0,0 -0.5003054867953554,0.5245683027099528 l -15.150867566890835 -14.701189030462878" fill="#ffce13" stroke="none" /><path d="M 114.81725581225074 114.88116024355365 l 13.141796721655831 13.198475168490877 a39.62542799096424,39.62542799096424 0 0,0 -0.4874872004092928,0.4771088280554449 l -12.912659568870744 -13.422734099468894" fill="#ffaa0f" stroke="none" /><path d="M 114.55890576462653 115.13401014063108 l 14.641642098123492 15.220014716138664 a42.119340219074545,42.119340219074545 0 0,0 -0.5268210168882339,0.4981421539777414 l -14.37748524684445 -15.469791506862327" fill="#ffce13" stroke="none" /><path d="M 114.0293411484842 115.62618273729858 l 13.978714574660703 15.569793767527544 a41.92421896088767,41.92421896088767 0 0,0 -0.5411371498936778,0.4774906178436072 l -13.708635071860439 -15.808107527143441" fill="#ffcb12" stroke="none" /><path d="M 113.48314897796784 116.09983520530334 l 13.584865944272709 16.221292470054163 a42.15842414082146,42.15842414082146 0 0,0 -0.5603655005326612,0.46114265744933597 l -13.303630315195356 -16.452730246360677" fill="#ffce13" stroke="none" /><path d="M 113.20401910651253 116.32954008644616 l 13.311321576129433 16.46224210428251 a42.1706565132766,42.1706565132766 0 0,0 -0.5683851596796751,0.45155954637974993 l -13.025978923732408 -16.688935564667386" fill="#ffcf13" stroke="none" /><path d="M 112.92097659922987 116.55440617244103 l 13.005786169020382 16.663064527700776 a42.137837953031095,42.137837953031095 0 0,0 -0.5756254834343404,0.4413650747676327 l -12.717031957092548 -16.884468944295783" fill="#ffce13" stroke="none" /><path d="M 112.34349029814194 116.9893568818739 l 37.03047089442582 50.96807064562168 a84.0,84.0 0 0,0 -1.1770906886044616,0.8398229526231229 l -36.14765287797247 -51.597937860089026" fill="#4dd2ff" stroke="none" /><path d="M 111.1453310114006 117.79835938074945 l 7.945365188032723 12.688224771722705 a35.9706337818063,35.9706337818063 0 0,0 -0.5276049236387571,0.32409803652430974 l -7.725781064461658 -12.823111275075393" fill="#ff740a" stroke="none" /><line stroke="#e1ed5e" stroke-width="0.3" x1="143.8653032363475" x2="146.44561519142675" y1="172.8068346515853" y2="177.08958963109032" /><path d="M 144.38136562736335 173.6633856474863 a86.0,86.0 0 0,1 -40.68145358897372,12.25698825130547" fill="none" id="id54" stroke="none" /><text fill="#e1ed5e" style="font-size:6.75px; font-family:Arial;" text-anchor="middle"><textPath startOffset="21.466115282336833" xlink:href="#id54">June</textPath></text><path d="M 110.21172684928248 118.3499491758327 l 10.271934936606176 18.458140019425553 a42.12381547728984,42.12381547728984 0 0,0 -0.6366256242641021,0.34713905009007007 l -9.952686500473424 -18.632219721275394" fill="#ffce13" stroke="none" /><path d="M 109.89434966115114 118.52300852407294 l 22.753335325451687 42.596051142121986 a69.29221305070539,69.29221305070539 0 0,0 -1.0569012487720584,0.5529207811196752 l -22.016743174153135 -42.98140134218638" fill="#39ff86" stroke="none" /><path d="M 108.92500713936063 119.00905698771935 l 6.417048053031991 13.66744364775457 a36.09892451731144,36.09892451731144 0 0,0 -0.5647453343958556,0.25924688401165946 l -6.180834722868716 -13.775877602100305" fill="#ff760a" stroke="none" /><path d="M 108.2653958097858 119.30500536409082 l 8.320117199351492 19.432814938297227 a42.139031355221846,42.139031355221846 0 0,0 -0.6692652202903745,0.27975291636039307 l -7.984380519563656 -19.57315289767759" fill="#ffce13" stroke="none" /><path d="M 107.93186726928326 119.44442032107085 l 11.407207695565047 27.963975390925015 a51.20113089064743,51.20113089064743 0 0,0 -0.8189228928090581,0.32586631969109203 l -10.924163726714124 -28.156188555022176" fill="#b6ff1f" stroke="none" /><path d="M 107.59598834532513 119.57807347666477 l 7.5777502895710835 19.53106629611217 a41.949578757441,41.949578757441 0 0,0 -0.675447704973952,0.2553965262585018 l -7.240432363836857 -19.6586110724773" fill="#ffcb13" stroke="none" /><path d="M 106.57524785965236 119.94407469862006 l 9.442174377514062 28.64005055354569 a51.156378308494475,51.156378308494475 0 0,0 -0.8386690054317844,0.2685153312449753 l -8.947784026991338 -28.798338731450375" fill="#b7ff1f" stroke="none" /><path d="M 106.2309692047433 120.05430185196036 l 6.656860247748691 21.425027216158025 a43.43536448491909,43.43536448491909 0 0,0 -0.7159079353590408,0.21569718824133635 l -6.2870773379494045 -21.536439773505087" fill="#ffe015" stroke="none" /><path d="M 105.53697534728816 120.25689768951611 l 5.567261273790295 20.367698059051165 a42.11486496085925,42.11486496085925 0 0,0 -0.7009308477868333,0.18512220756184225 l -5.215839983191964 -20.46051161591659" fill="#ffce13" stroke="none" /><path d="M 105.18746579009965 120.34920634021253 l 7.467498028273082 29.29323572841141 a51.230070893773,51.230070893773 0 0,0 -0.8563880052205446,0.21047933586656062 l -6.962156738309326 -29.417436322592003" fill="#b6ff1f" stroke="none" /><path d="M 104.83641907484287 120.43548508189849 l 5.205401563539731 21.994559270168992 a43.60214244107577,43.60214244107577 0 0,0 -0.7318512692276922,0.16656696617305597 l -4.8260301449191765 -22.08090296991973" fill="#ffe315" stroke="none" /><path d="M 104.13013068566511 120.58985236759428 l 4.937767305459876 24.6161459727709 a46.10649693835509,46.10649693835509 0 0,0 -0.7794904567507913,0.14939120123921223 l -4.513309234137381 -24.697494372358584" fill="#f9ff18" stroke="none" /><path d="M 103.41894727170886 120.7198165907248 l 3.4341507964512834 20.811954380272546 a42.09338372142584,42.09338372142584 0 0,0 -0.7159165259361125,0.11181143778423416 l -3.075398406906654 -20.867984125403886" fill="#ffcd13" stroke="none" /><path d="M 102.70371172650421 120.8252237178851 l 3.8922201801926257 29.97965915418842 a51.23126429596374,51.23126429596374 0 0,0 -0.8754998018203962,0.10601083346251958 l -3.3755929553208492 -30.042215516376288" fill="#b6ff1f" stroke="none" /><path d="M 101.62511606390274 120.93702456842531 l 1.003417451194294 12.927431027658011 a33.96631480244932,33.96631480244932 0 0,0 -0.5833103808032892,0.04022849903894872 l -0.7807443096120743 -12.942787871213245" fill="#ff5507" stroke="none" /><path d="M 101.26447882468166 120.96189622390904 l 1.2739282380929826 21.118543863583636 a42.15693238808303,42.15693238808303 0 0,0 -0.7247216948182951,0.03745983355592471 l -0.9102184748612079 -21.13734350390176" fill="#ffce13" stroke="none" /><line stroke="#e1ed5e" stroke-width="0.3" x1="102.19456741930631" x2="102.32365962044197" y1="184.97166512339345" y2="189.96999836594603" /><path d="M 102.22038585953345 185.97133177190398 a86.0,86.0 0 0,1 -42.740103519485714,-10.115201625700543" fill="none" id="id55" stroke="none" /><text fill="#e1ed5e" style="font-size:6.75px; font-family:Arial;" text-anchor="middle"><textPath startOffset="22.20632615414155" xlink:href="#id55">July</textPath></text><path d="M 100.54218724476979 120.99299961872073 l 0.547687148058266 21.205950898470782 a42.21302229104806,42.21302229104806 0 0,0 -0.7265470413068634,0.0125081662057803 l -0.18258041685873466 -21.212236541955722" fill="#ffcf13" stroke="none" /><path d="M 98.73552117531835 120.96189622390904 l -0.7224310093589414 11.976099205084433 a32.997868924659386,32.997868924659386 0 0,0 -0.5666790642460904,-0.03908150607575753 l 0.9284728343839619 -11.96188935449239" fill="#ff4606" stroke="none" /><path d="M 98.37488393609728 120.93702456842531 l -1.6186975169300537 20.85433184349 a41.917058547743196,41.917058547743196 0 0,0 -0.7188888961681044,-0.062028758888103 l 1.9774307308397 -20.823378832323236" fill="#ffcb12" stroke="none" /><path d="M 97.2962882734958 120.8252237178851 l -2.7222263535258744 20.96783183915778 a42.14380496398483,42.14380496398483 0 0,0 -0.7185948388667367,-0.09959069681584101 l 3.082749783579442 -20.91786657684933" fill="#ffce13" stroke="none" /><path d="M 96.22490169976321 120.6578951692458 l -3.759061895904024 20.57014159748391 a41.910793186241776,41.910793186241776 0 0,0 -0.7085566133382746,-0.13579656132522966 l 4.112586123813993 -20.50238783781021" fill="#ffcb12" stroke="none" /><path d="M 95.86986931433489 120.58985236759428 l -4.1121753815633 20.500340173233333 a41.908704732407976,41.908704732407976 0 0,0 -0.7060789321314576,-0.14796570530501674 l 4.464445775124144 -20.426518487201776" fill="#ffcb12" stroke="none" /><path d="M 94.81253420990036 120.34920634021253 l -5.214955592757904 20.457042360569975 a42.11128475428701,42.11128475428701 0 0,0 -0.7008712612909589,-0.18510647022670895 l 5.566317296860352 -20.36424454103968" fill="#ffce13" stroke="none" /><path d="M 93.42475214034765 119.94407469862007 l -9.354924153738125 28.37540273834528 a50.8777188969554,50.8777188969554 0 0,0 -0.8293801475018807,-0.2813707764823487 l 9.84197403417723 -28.21016897496481" fill="#baff1f" stroke="none" /><path d="M 92.7421414339146 119.70592522655815 l -5.166611182637065 14.027946771448178 a35.949152542372886,35.949152542372886 0 0,0 -0.578832333952736,-0.21886485998694993 l 5.407313737350084 -13.936933661354594" fill="#ff730a" stroke="none" /><path d="M 92.06813273071674 119.44442032107085 l -7.897384319528323 19.35988777076685 a41.908704732407976,41.908704732407976 0 0,0 -0.6656071011310394,-0.2782238222551097 l 8.229462880156825 -19.22107890549177" fill="#ffcb12" stroke="none" /><line stroke="#e1ed5e" stroke-width="0.3" x1="58.666819895761336" x2="56.23545636021788" y1="174.27360380694188" y2="178.64263932499728" /><path d="M 58.180547188652646 175.14741091055294 a86.0,86.0 0 0,1 -31.652253787137756,-30.449443065178592" fill="none" id="id56" stroke="none" /><text fill="#e1ed5e" style="font-size:6.75px; font-family:Arial;" text-anchor="middle"><textPath startOffset="22.20632615414155" xlink:href="#id56">August</textPath></text><path d="M 89.4739219176387 118.17145234162733 l -10.486747544965732 18.103554974700938 a41.92153380595849,41.92153380595849 0 0,0 -0.6213013436278149,-0.3670757851369282 l 10.79681675962193 -17.920360617270262" fill="#ffcb12" stroke="none" /><path d="M 88.54995079064634 117.60387380957326 l -11.408242304004617 17.539597798817574 a41.9233239092446,41.9233239092446 0 0,0 -0.6015503907988234,-0.39867479748122814 l 11.708467393543401 -17.340624980245025" fill="#ffcb12" stroke="none" /><path d="M 88.24862548938628 117.40417183066458 l -11.888944411259367 17.6079173744222 a42.245840851293565,42.245840851293565 0 0,0 -0.5991729928988021,-0.41211664806683634 l 12.190274288781058 -17.400659936990262" fill="#ffd013" stroke="none" /><path d="M 87.65650970185807 116.9893568818739 l -9.351043987779311 12.870607882310114 a36.90894625427991,36.90894625427991 0 0,0 -0.5107759289289132,-0.377859821293754 l 9.57120488712679 -12.707738112276592" fill="#ff820b" stroke="none" /><path d="M 87.36589467227662 116.77436683061367 l -12.60341170516465 16.73361474957548 a41.948982056345635,41.948982056345635 0 0,0 -0.5730456105194182,-0.43938693822789365 l 12.889586044177555 -16.51418846952022" fill="#ffcb13" stroke="none" /><path d="M 86.79598089348748 116.32954008644616 l -13.151305830354573 16.26434906020139 a41.91616349610014,41.91616349610014 0 0,0 -0.5571453965983924,-0.45849273113498396 l 13.429321355497654 -16.035561210209224" fill="#ffcb12" stroke="none" /><path d="M 85.70375840098266 115.38237550388516 l -11.229497002663427 12.082639931504438 a37.495205080483615,37.495205080483615 0 0,0 -0.46898317889573476,-0.4434528681000064 l 11.435816015949978 -11.8875524266585" fill="#ff8b0c" stroke="none" /><path d="M 85.44109423537348 115.13401014063109 l -14.496646673670059 15.069291697561635 a41.91019648514641,41.91019648514641 0 0,0 -0.5155952979941617,-0.5046185175125787 l 14.753891924040014 -14.817523077126486" fill="#ffcb12" stroke="none" /><path d="M 84.9287848128048 114.62390073753433 l -19.29707369706895 18.72433554731422 a47.88824640913805,47.88824640913805 0 0,0 -0.5689430354776241,-0.5965344980940074 l 19.61652328392553 -18.38939393263771" fill="#e1ff1b" stroke="none" /><path d="M 84.67929136418377 114.36230785411682 l -15.249097214088025 14.295176149625878 a41.90184266981119,41.90184266981119 0 0,0 -0.4887622320746707,-0.5304548712038476 l 15.492905854158424 -14.030570023620685" fill="#ffcb12" stroke="none" /><path d="M 84.43433777217949 114.09645910891817 l -17.702797775146824 16.0318758879908 a44.88325969284101,44.88325969284101 0 0,0 -0.5136806793385609,-0.5771256887283714 l 17.976137304133722 -15.724776029521564" fill="#fff417" stroke="none" /><path d="M 83.72743513129214 113.27417163493432 l -18.53935416982426 15.123280886366139 a44.925327120064786,44.925327120064786 0 0,0 -0.4836577027106013,-0.6034373499029543 l 18.79692978458972 -14.801915702884925" fill="#fff517" stroke="none" /><path d="M 83.50135304334701 112.99209946851258 l -16.560293910630282 13.040644258888914 a42.07846619404151,42.07846619404151 0 0,0 -0.4432128506686644,-0.5729123551827636 l 16.782313578517016 -12.753653909592897" fill="#ffcd13" stroke="none" /><path d="M 83.06392112726016 112.41649034213515 l -28.898671870253676 21.186727038399127 a56.833094179322885,56.833094179322885 0 0,0 -0.5716332358330112,-0.7939485681163743 l 29.259084898462294 -20.686144864831615" fill="#71ff27" stroke="none" /><path d="M 82.85270091963577 112.12312394758628 l -17.15801812165788 12.130702299465094 a42.0131274240982,42.0131274240982 0 0,0 -0.4124070464040609,-0.5941031091160195 l 17.364286075224076 -11.833557928162062" fill="#ffcc13" stroke="none" /><path d="M 82.24976979558568 111.22182372390057 l -22.714403724721997 14.360210073723444 a47.873030531206055,47.873030531206055 0 0,0 -0.43435738678334734,-0.7003224098975817 l 22.9582257511733 -13.967091332460598" fill="#e1ff1b" stroke="none" /><line stroke="#e1ed5e" stroke-width="0.3" x1="26.63291911575756" x2="22.317208475507996" y1="142.92168965132927" y2="145.44649492493687" /><path d="M 25.769776987707644 143.4266507060508 a86.0,86.0 0 0,1 -11.730757126820373,-40.83630448921669" fill="none" id="id57" stroke="none" /><text fill="#e1ed5e" style="font-size:6.75px; font-family:Arial;" text-anchor="middle"><textPath startOffset="21.46611528233685" xlink:href="#id57">September</textPath></text><path d="M 81.69416730710424 110.29060199501025 l -21.43712434650317 12.050853859984226 a45.59214059414381,45.59214059414381 0 0,0 -0.37868308872484907,-0.6874198019741593 l 21.641383844679535 -11.680063539612245" fill="#fffe18" stroke="none" /><path d="M 81.51974371655577 109.97397251340807 l -23.99805170096259 12.951979905991701 a48.2701351101766,48.2701351101766 0 0,0 -0.38833896450048566,-0.7345909714750685 l 24.21744317368796 -12.536973919430507" fill="#dcff1b" stroke="none" /><path d="M 81.18737489456691 109.33194174019688 l -18.740728360958094 9.296277593009007 a41.91974370267237,41.91974370267237 0 0,0 -0.3150902393815465,-0.6491792197720838 l 18.897971856954356 -8.972309417271639" fill="#ffcb12" stroke="none" /><path d="M 80.87730276802145 108.67885076344099 l -19.043910208845382 8.643093212737059 a41.91347834117096,41.91347834117096 0 0,0 -0.2925139962295719,-0.6595418400579669 l 19.189865289806235 -8.314003036186396" fill="#ffcb12" stroke="none" /><path d="M 80.20201598880116 107.00284435728193 l -23.572390470435305 8.33790862242132 a46.00356599940331,46.00356599940331 0 0,0 -0.2576400557541986,-0.7488226006585315 l 23.712421357132733 -7.9309133186734915" fill="#faff18" stroke="none" /><path d="M 80.0844068197444 106.66101706037122 l -23.78032796436505 7.953625525394747 a46.07517013084803,46.07517013084803 0 0,0 -0.24509302568382757,-0.7543187702235908 l 23.913713241065125 -7.543107855193353" fill="#f9ff18" stroke="none" /><path d="M 79.86692584326677 105.97154293290107 l -8.732617585705675 2.5901260991585073 a30.10864222086465,30.10864222086465 0 0,0 -0.1430982946192484,-0.4981439363021963 l 8.775908517211029 -2.4394246873517154" fill="#ff1802" stroke="none" /><path d="M 79.58551787078972 104.9243191809786 l -37.82075239196557 9.123006660860272 a59.905508119397055,59.905508119397055 0 0,0 -0.23317344434866896,-1.004505095538056 l 37.972186402244795 -8.470632907973641" fill="#4eff2b" stroke="none" /><path d="M 79.50377843672027 104.57218783832718 l -8.75792915932205 1.9536721472079808 a29.973191072215037,29.973191072215037 0 0,0 -0.10799763404643624,-0.5045289920012778 l 8.790260832092926 -1.8026293357905392" fill="#ff1602" stroke="none" /><path d="M 79.4281124754447 104.21870165774334 l -17.569415469491766 3.6029811109094467 a38.935044823618,38.935044823618 0 0,0 -0.12898636561783502,-0.6576986993891604 l 17.628831768085266 -3.3000186844523314" fill="#ffa00e" stroke="none" /><path d="M 79.23777060512086 103.15116336523772 l -27.161067848899254 4.122339674529239 a48.472118430960265,48.472118430960265 0 0,0 -0.11810104470266113,-0.825998431581972 l 27.228002944618517 -3.654195770966867" fill="#d9ff1c" stroke="none" /><path d="M 79.1416061653843 102.43462659150553 l -26.705156878316494 3.1170705463608916 a47.88645630585194,47.88645630585194 0 0,0 -0.08851628681255301,-0.819550882296517 l 26.7548554666301 -2.6569233421795926" fill="#e1ff1b" stroke="none" /><path d="M 79.07016306316243 101.71520430193888 l -18.57895835382313 1.5225493342441534 a39.64124056999162,39.64124056999162 0 0,0 -0.04987895212734016,-0.6805586727655449 l 18.602413864614807 -1.2025175249818478" fill="#ffaa0f" stroke="none" /><path d="M 79.04373962182676 101.35467743843564 l -8.947951317794741 0.5784232277941206 a29.96662736016594,29.96662736016594 0 0,0 -0.02884451859726136,-0.5150382562057243 l 8.956582187279535 -0.4243132552529587" fill="#ff1602" stroke="none" /><path d="M 79.0235259727143 100.99374915477108 l -32.81308583650806 1.554502261583384 a53.84988705300695,53.84988705300695 0 0,0 -0.035894455473610955,-0.9262764023463097 l 32.83498242483287 -0.9894486122230775" fill="#95ff23" stroke="none" /><line stroke="#e1ed5e" stroke-width="0.3" x1="15.007084014347285" x2="10.007500721073583" y1="101.09737516637583" y2="101.16192664675087" /><path d="M 14.007167355692545 101.11028546245083 a86.0,86.0 0 0,1 10.666146001902534,-42.60595125391555" fill="none" id="id58" stroke="none" /><text fill="#e1ed5e" style="font-size:6.75px; font-family:Arial;" text-anchor="middle"><textPath startOffset="22.20632615414155" xlink:href="#id58">October</textPath></text><path d="M 79.00175016825051 100.2711162175752 l -24.019990672327886 0.31013103803664255 a45.021992697515174,45.021992697515174 0 0,0 -0.003335277908166662,-0.7750011253588132 l 24.021770247525556 0.10337956552584596" fill="#fff617" stroke="none" /><path d="M 79.00019446554 99.90962569577889 l -18.21144713695672 -0.07837438595140299 a39.21161578132326,39.21161578132326 0 0,0 0.008714301512109914,-0.6749322556101026 l 18.207399828326896 0.3918428996219776" fill="#ffa40f" stroke="none" /><path d="M 79.00486145842228 99.54816195383935 l -34.02467015640996 -0.7322476321976926 a55.03254862403569,55.03254862403569 0 0,0 0.028533866871574786,-0.9469001276737925 l 34.00702459508274 1.3178179072964795" fill="#87ff25" stroke="none" /><path d="M 79.01574976396665 99.18683210126434 l -9.242824812362255 -0.3581718835083393 a30.249762029920298,30.249762029920298 0 0,0 0.024641156196535667,-0.5201358617286304 l 9.23529004793222 0.5172188518599787" fill="#ff1a02" stroke="none" /><path d="M 79.03285615573316 98.82574320788736 l -35.779413548277105 -2.003812235416114 a56.835480983704386,56.835480983704386 0 0,0 0.06311284888189998,-0.9763278377948417 l 35.739620108390795 2.6193991374639674" fill="#71ff27" stroke="none" /><path d="M 79.05617556472873 98.46500227214037 l -20.882231077718014 -1.5304834776477059 a41.93824143662893,41.93824143662893 0 0,0 0.058964201243763115,-0.7195126060189271 l 20.852792392654752 1.8897100008744112" fill="#ffcb12" stroke="none" /><path d="M 79.12142395522702 97.74499172005258 l -44.6118754881124 -4.818343377151074 a65.87132567093354,65.87132567093354 0 0,0 0.13145923838354556,-1.1262624736662366 l 44.52232589672527 5.585549589142172" fill="#34ff5a" stroke="none" /><path d="M 79.26566170972629 96.67025291283419 l -26.55545950518696 -4.264566474119134 a47.895705172830205,47.895705172830205 0 0,0 0.13773011793159243,-0.8128909524872284 l 26.478117525735144 4.72104321492219" fill="#e1ff1b" stroke="none" /><path d="M 79.54389044137918 95.25157060432595 l -34.90968332478348 -8.10350404205843 a56.83786778808587,56.83786778808587 0 0,0 0.2294279472162894,-0.9511269591297157 l 34.765022577306375 8.703216232847543" fill="#71ff27" stroke="none" /><path d="M 79.91906864156998 93.8553929516997 l -25.728595233456385 -7.872747772129321 a47.90614744199923,47.90614744199923 0 0,0 0.24807289657663356,-0.7864588741800421 l 25.58926685311155 8.314456812735777" fill="#e1ff1b" stroke="none" /><path d="M 80.2630227832202 92.82701384747504 l -16.861968658329477 -6.128125211984257 a38.941011834571725,38.941011834571725 0 0,0 0.23437929595208015,-0.6280199870969544 l 16.75398477387577 6.417468336110552" fill="#ffa00e" stroke="none" /><path d="M 80.38941819471856 92.48833698450439 l -25.11119579055814 -9.618625422118004 a47.890334862971855,47.890334862971855 0 0,0 0.3014957698671713,-0.7672738485962854 l 24.94190647080928 10.049448275610054" fill="#e1ff1b" stroke="none" /><path d="M 80.803312248108 91.48605970444005 l -24.58148044050434 -10.902154556652699 a47.89063321351955,47.89063321351955 0 0,0 0.340702363869418,-0.7506924969765506 l 24.39017575967157 11.32366906247132" fill="#e1ff1b" stroke="none" /><path d="M 81.10775173730289 90.83032412892265 l -13.45247677733643 -6.529389726205071 a35.95332945004049,35.95332945004049 0 0,0 0.27502582748267557,-0.5544352859015961 l 13.338090936900342 6.759984600605629" fill="#ff730a" stroke="none" /><path d="M 81.26839172434947 90.50648371742162 l -15.994531953104236 -8.106316729162 a38.93146461704576,38.93146461704576 0 0,0 0.30809724631494284,-0.5951458144965843 l 15.852625273629178 8.380435265918921" fill="#ffa00e" stroke="none" /><path d="M 81.43458229118936 90.18545643968196 l -21.12786578929561 -11.169172834026114 a44.898475570773016,44.898475570773016 0 0,0 0.3670811720447156,-0.680145661830729 l 20.93247651803242 11.531199479189315" fill="#fff517" stroke="none" /><line stroke="#e1ed5e" stroke-width="0.3" x1="26.266209847984243" x2="21.928928074336255" y1="57.711370442889674" y2="55.22380399835377" /><path d="M 25.398753493254645 57.213857153982495 a86.0,86.0 0 0,1 29.58750427330803,-30.492523968695096" fill="none" id="id59" stroke="none" /><text fill="#e1ed5e" style="font-size:6.75px; font-family:Arial;" text-anchor="middle"><textPath startOffset="21.46611528233685" xlink:href="#id59">November</textPath></text><path d="M 81.96595687620814 89.24020034530311 l -20.527248881071177 -12.24734153657644 a44.903249179536,44.903249179536 0 0,0 0.40174338697391454,-0.6603604968739861 l 20.313389695811043 12.5988698066575" fill="#fff517" stroke="none" /><path d="M 82.34701348167596 88.62581576622439 l -22.588960883862217 -14.554534581211033 a47.8718371290153,47.8718371290153 0 0,0 0.4522825503806797,-0.6888573535519832 l 22.335081698123616 14.941209998740682" fill="#e1ff1b" stroke="none" /><path d="M 82.7489923806493 88.02491185347247 l -8.554795927563847 -5.938460962316098 a31.413925866992486,31.413925866992486 0 0,0 0.3121757090884688,-0.4415504017370476 l 8.4513075986715 6.084837864384932" fill="#ff2d04" stroke="none" /><path d="M 82.95767976084542 87.72973835380427 l -21.820620066107228 -15.710578943248784 a47.88794805859037,47.88794805859037 0 0,0 0.4874021385774251,-0.6648159692660732 l 21.54695531501617 16.083857356186357" fill="#e1ff1b" stroke="none" /><path d="M 83.17141714833178 87.43820079747576 l -21.801104285299363 -16.273568418630887 a48.20509469078097,48.20509469078097 0 0,0 0.5020768577451843,-0.6606742920049267 l 21.51775148733007 16.646427486516842" fill="#ddff1b" stroke="none" /><path d="M 84.31358615837235 86.03803664274999 l -20.375601243302505 -18.135655530519195 a48.27759387386875,48.27759387386875 0 0,0 0.5578507223452439,-0.615992700754071 l 20.060406880341215 18.483701018542824" fill="#dcff1b" stroke="none" /><path d="M 84.5562425177563 85.77008943001954 l -19.938633180614772 -18.37149847593781 a48.112009319902825,48.112009319902825 0 0,0 0.5664219480734266,-0.6042194415765075 l 19.61944391057089 18.71198733439237" fill="#deff1b" stroke="none" /><path d="M 84.80347519578584 85.50635884689758 l -19.584684075750854 -18.678835243443057 a48.06397488172533,48.06397488172533 0 0,0 0.5761628622002833,-0.5937864756428124 l 19.260256949847452 19.013185914635994" fill="#dfff1b" stroke="none" /><path d="M 85.57189188830299 84.74124197986013 l -5.2508334975099205 -5.553132616021464 a28.642547629533862,28.642547629533862 0 0,0 0.3611581333490904,-0.33565712451270285 l 5.154467480365974 5.642694326608814" fill="#ff0000" stroke="none" /><path d="M 86.10567301691215 84.25364557470407 l -17.89777713075722 -20.283439598686293 a48.050847457627114,48.050847457627114 0 0,0 0.6249040200455181,-0.541910608277002 l 17.54597931206493 20.588515200382975" fill="#dfff1b" stroke="none" /><path d="M 86.65592168130627 83.78471172551755 l -17.18822391472926 -20.88656848732972 a48.04965405543638,48.04965405543638 0 0,0 0.6431711645302206,-0.5200663521603976 l 16.826149351634538 21.179340936754247" fill="#dfff1b" stroke="none" /><path d="M 87.51073957382395 83.11751280151077 l -16.113411820675683 -21.78147140053142 a48.09380993649396,48.09380993649396 0 0,0 0.66977428430089,-0.4866195017089514 l 15.73609222002101 22.055610137057037" fill="#deff1b" stroke="none" /><path d="M 87.80319425747018 82.90503203632743 l -10.41234688597148 -14.593881398115006 a38.92758605992584,38.92758605992584 0 0,0 0.5488212401676779,-0.38448435159236544 l 10.159594506220143 14.770950592471314" fill="#ffa00e" stroke="none" /><path d="M 88.09926311788651 82.69761687909137 l -15.332129824311528 -22.291256995897488 a48.055024365294734,48.055024365294734 0 0,0 0.6855742719057936,-0.4629028087284052 l 14.946150857999195 22.55187171692456" fill="#dfff1b" stroke="none" /><path d="M 88.70189139769569 82.29822771554957 l -9.648665324464956 -15.117439779939476 a38.934149771974944,38.934149771974944 0 0,0 0.5680322766097026,-0.35570175950161614 l 9.38701389548301 15.281285880764022" fill="#ffa00e" stroke="none" /><line stroke="#e1ed5e" stroke-width="0.3" x1="56.762969772571076" x2="54.21961505331055" y1="26.818313649435495" y2="22.513508569990535" /><path d="M 56.25429882871897 25.957352633546506 a86.0,86.0 0 0,1 42.265352541879196,-11.944610805530505" fill="none" id="id60" stroke="none" /><text fill="#e1ed5e" style="font-size:6.75px; font-family:Arial;" text-anchor="middle"><textPath startOffset="22.20632615414155" xlink:href="#id60">December</textPath></text><path d="M 89.3179101791058 81.91981866633112 l -18.48570495707532 -31.288343695713767 a57.341185162032765,57.341185162032765 0 0,0 0.8541195277616642,-0.4947611600803738 l 17.944388696848335 31.60190901318419" fill="#6bff28" stroke="none" /><path d="M 90.26544431104013 81.39251694778311 l -16.870307110778874 -32.24738382312889 a57.39369485842556,57.39369485842556 0 0,0 0.8793247332966246,-0.4504242815524653 l 16.312721889893485 32.533000629993865" fill="#6bff28" stroke="none" /><path d="M 90.91171255644093 81.06846463323043 l -19.537100052173923 -40.697139356433276 a66.1437197209712,66.1437197209712 0 0,0 1.030650775161598,-0.4839043584564706 l 18.833671065712714 41.02740869752976" fill="#34ff5d" stroke="none" /><path d="M 91.90106846888425 80.62456947434976 l -10.414111910128645 -24.914138491703746 a48.0031113699973,48.0031113699973 0 0,0 0.765115032642072,-0.31210963270907105 l 9.983713007898192 25.089709010596394" fill="#e0ff1b" stroke="none" /><path d="M 92.23578459929587 80.48803036053334 l -9.952275364736803 -25.010704203639886 a47.91808146390669,47.91808146390669 0 0,0 0.7690095311549289,-0.2983637508082249 l 9.520282668582198 25.17831065833866" fill="#e1ff1b" stroke="none" /><path d="M 94.98787191387505 79.60689891045804 l -4.282030919502716 -17.42251752338523 a38.941011834571725,38.941011834571725 0 0,0 0.6523107413863796,-0.15438087717137225 l 3.981496491153803 17.493644312697473" fill="#ffa00e" stroke="none" /><path d="M 95.33964822691252 79.52364482259891 l -6.015546341566815 -26.430722287393642 a48.106639010044475,48.106639010044475 0 0,0 0.8090099801389175,-0.17681824683572278 l 5.559693637274377 26.530354032325235" fill="#deff1b" stroke="none" /><path d="M 95.692805502759 79.44645832069477 l -5.508475062904239 -26.285943638565318 a47.85691960163098,47.85691960163098 0 0,0 0.8077190402975546,-0.162020840857474 l 5.0551896131395475 26.3768684355" fill="#e2ff1b" stroke="none" /><path d="M 97.11714578562143 79.19881850522333 l -4.972285611462159 -35.87743526260358 a57.22035319021979,57.22035319021979 0 0,0 0.9767930403939147,-0.1268157707911033 l 4.353977842560387 35.95770935655882" fill="#6dff28" stroke="none" /><path d="M 97.83486435360386 79.11191278185805 l -3.7341953333698887 -36.02554784169747 a57.21856308693367,57.21856308693367 0 0,0 0.9805487199518833,-0.09311491605332135 l 3.113521486327769 36.08448830226597" fill="#6dff28" stroke="none" /><path d="M 98.19473922651362 79.07773832637324 l -3.8677417765221787 -44.825604545838516 a65.99215764274652,65.99215764274652 0 0,0 1.132581954266346,-0.08791015750826213 l 3.0955696328934987 44.885539965535244" fill="#34ff5b" stroke="none" /><path d="M 99.27714615592234 79.0124445844662 l -1.2335458178554046 -35.815139425417236 a56.83637603534744,56.83637603534744 0 0,0 0.9780548786296498,-0.025260271972043183 l 0.6168643040308759 35.831066489531636" fill="#71ff27" stroke="none" /></svg>