<?xml version="1.0" encoding="utf-8" ?>
<svg baseProfile="full" height="200mm" version="1.1" viewBox="0,0,200,200" width="200mm" xmlns="http://www.w3.org/2000/svg" xmlns:ev="http://www.w3.org/2001/xml-events" xmlns:xlink="http://www.w3.org/1999/xlink"><defs /><rect fill="#1a1a1a" height="200" width="200" x="0" y="0" /><text alignment-baseline="middle" fill="#e1ed5e" style="dominant-baseline: central; font-size:9.0px; font-family:Arial;" text-anchor="middle" x="100.0" y="100.0">2023</text><line stroke="#e1ed5e" stroke-width="0.3" x1="100.0" x2="100.0" y1="15.0" y2="10.0" /><path d="M 100.0 14.0 a86.0,86.0 0 0,1 42.46469731375804,11.215312516191453" fill="none" id="id49" stroke="none" /><text fill="#e1ed5e" style="font-size:6.75px; font-family:Arial;" text-anchor="middle"><textPath startOffset="22.20632615414155" xlink:href="#id49">January</textPath></text><path d="M 102.88285421437855 79.19881850522331 l 2.120866916379726 -15.303076178408825 a36.449343578261754,36.449343578261754 0 0,0 0.6207340907904751,0.09148006929935044 l -2.383969987598857 15.264301624948505" fill="#ffad10" stroke="none" /><path d="M 105.01212808612495 79.60689891045804 l 3.6783199315433586 -14.966167846208295 a36.41156116425809,36.41156116425809 0 0,0 0.6073641059495786,0.15483063413248843 l -3.935392926177962 14.900634215906939" fill="#ffac0f" stroke="none" /><path d="M 107.4271985657038 80.35727306442388 l 5.685885372273261 -15.037472442204294 a37.07653165072257,37.07653165072257 0 0,0 0.5950197785579139,0.23085842989357355 l -5.943888315830842 14.937371308420174" fill="#ffb510" stroke="none" /><path d="M 107.76421540070413 80.48803036053334 l 5.9410098375557405 -14.930137508504403 a37.06874618359454,37.06874618359454 0 0,0 0.5908336800849044,0.24101589305684884 l -6.197127387229032 14.825660729263975" fill="#ffb510" stroke="none" /><path d="M 109.41281617654863 81.2277094730956 l 7.210181336538239 -14.379503037399031 a37.08592000814166,37.08592000814166 0 0,0 0.5681907533686625,0.2910493725240208 l -7.4566325774956566 14.25326113956251" fill="#ffb510" stroke="none" /><path d="M 109.73455568895987 81.39251694778311 l 7.454085079568856 -14.248391628717524 a37.08042438428659,37.08042438428659 0 0,0 0.5630131900839132,0.30074214776129055 l -7.69824331618108 14.117970754454479" fill="#ffb510" stroke="none" /><line stroke="#e1ed5e" stroke-width="0.3" x1="143.23703022742887" x2="145.7803849466894" y1="26.81831364943548" y2="22.513508569990506" /><path d="M 143.74570117128098 25.957352633546492 a86.0,86.0 0 0,1 28.547481713284135,27.462654790039103" fill="none" id="id50" stroke="none" /><text fill="#e1ed5e" style="font-size:6.75px; font-family:Arial;" text-anchor="middle"><textPath startOffset="19.985693538727396" xlink:href="#id50">February</textPath></text><path d="M 111.60114157652 82.49532879139004 l 13.138948100376854 -19.825028856606558 a44.78368613881539,44.78368613881539 0 0,0 0.6389039111599959,0.43139077282083427 l -13.478256705943393 19.595926171487054" fill="#e6ff1a" stroke="none" /><path d="M 111.90073688211348 82.69761687909136 l 9.318743097521873 -13.5484436699866 a37.443822511703644,37.443822511703644 0 0,0 0.5279023743177207,0.3698293492278238 l -9.550576611423244 13.38602947799484" fill="#ffba11" stroke="none" /><path d="M 113.06298171725822 83.55741782278167 l 10.003487896575898 -12.59154880244151 a37.08156930592306,37.08156930592306 0 0,0 0.4963572908471549,0.4013530765292339 l -10.218748585987544 12.417489628648147" fill="#ffb510" stroke="none" /><path d="M 113.89432698308785 84.25364557470407 l 16.79769833236783 -19.036727132780054 a46.38817932017098,46.38817932017098 0 0,0 0.5941862163120433,0.5334662517718509 l -17.122895536275863 18.744761872238904" fill="#d2ff1c" stroke="none" /><path d="M 115.4437574822437 85.77008943001954 l 11.834574575248325 -10.904401861604608 a37.09233156930593,37.09233156930593 0 0,0 0.42860429236526976,0.4732755646509161 l -12.02052250822963 10.699073509684142" fill="#ffb510" stroke="none" /><path d="M 115.68641384162765 86.03803664274999 l 12.034719235013398 -10.711709551366395 a37.1113372684714,37.1113372684714 0 0,0 0.4206095344477537,0.48082940758365983 l -12.217320633039 10.502964587579788" fill="#ffb510" stroke="none" /><path d="M 116.60985879189232 87.15038557335679 l 12.709686117600285 -9.83238738757619 a37.06897516792184,37.06897516792184 0 0,0 0.3860893685933042,0.508048352181706 l -12.877051426417703 9.612154259513451" fill="#ffb510" stroke="none" /><path d="M 117.2510076193507 88.02491185347247 l 20.738604468103006 -14.396064393533123 a46.245522084266234,46.245522084266234 0 0,0 0.4483074699396614,0.6578358939001944 l -20.9833364037114 14.036950476362522" fill="#d4ff1c" stroke="none" /><line stroke="#e1ed5e" stroke-width="0.3" x1="172.23445277983987" x2="176.4835382374775" y1="55.19839476539836" y2="52.563006222186495" /><path d="M 173.08426987136738 54.67131705675599 a86.0,86.0 0 0,1 12.851231095245387,41.99856678651699" fill="none" id="id51" stroke="none" /><text fill="#e1ed5e" style="font-size:6.75px; font-family:Arial;" text-anchor="middle"><textPath startOffset="22.20632615414155" xlink:href="#id51">March</textPath></text><path d="M 117.84615892207809 88.93136811851018 l 13.670868135043523 -8.479012629433981 a37.086835945450844,37.086835945450844 0 0,0 0.33181097931908604,0.5454100061779638 l -13.814794912648834 8.242434850048936" fill="#ffb510" stroke="none" /><path d="M 118.03404312379186 89.2402003453031 l 13.80771574710636 -8.238211149216205 a37.078592509668226,37.078592509668226 0 0,0 0.32230182604271057,0.5509182963789112 l -13.9474772476194 7.999313440483399" fill="#ffb510" stroke="none" /><path d="M 118.21658344932153 89.55222093294921 l 13.94271003378311 -7.996579294584664 a37.07309688581315,37.07309688581315 0 0,0 0.31272456318795705,0.5563021031668934 l -14.0782922382635 7.7553936814829765" fill="#ffb510" stroke="none" /><path d="M 118.56541770881063 90.18545643968196 l 24.33421463215621 -12.86419800832621 a48.525290046814575,48.525290046814575 0 0,0 0.3840212123309466,0.7418067507264794 l -24.552045277647274 12.443418535339386" fill="#b8ff1f" stroke="none" /><path d="M 119.196687751892 91.48605970444005 l 20.9599379342728 -9.29596097396816 a43.92888764502341,43.92888764502341 0 0,0 0.3006185362317593,0.6938690290101562 l -21.116847180347243 8.933792800371402" fill="#f0ff19" stroke="none" /><path d="M 119.47837535516314 92.15188598940014 l 19.166724747760657 -7.722545555645574 a41.66400366374924,41.66400366374924 0 0,0 0.26229762010000546,0.6675188329854341 l -19.296815917742364 7.391477717764356" fill="#fff116" stroke="none" /><path d="M 119.61058180528143 92.48833698450437 l 15.007304079464042 -5.748417468453025 a37.0705780582129,37.0705780582129 0 0,0 0.22312147467383056,0.5978546231078464 l -15.104030142639498 5.489239708315845" fill="#ffb510" stroke="none" /><path d="M 119.97218684219823 93.5106431181261 l 21.835850129103793 -7.094897790935674 a43.95957154488093,43.95957154488093 0 0,0 0.22763630197166695,0.7216692844792201 l -21.954741914843666 6.717978340030035" fill="#f0ff19" stroke="none" /><path d="M 120.37134235888165 94.90015583598534 l 23.160325496301308 -5.798049472547185 a44.87505088540607,44.87505088540607 0 0,0 0.18113963817662418,0.7509407433889207 l -23.256697934738753 5.398523497498858" fill="#e5ff1a" stroke="none" /><path d="M 120.73433829027371 96.67025291283417 l 19.224450283071125 -3.0872727374400033 a40.47076633421535,40.47076633421535 0 0,0 0.10453812198220819,0.6887756100010097 l -19.274744298492635 2.7558980150469115" fill="#ffe215" stroke="none" /><path d="M 120.78858239683441 97.02765380044208 l 19.25865008761433 -2.7535968688876475 a40.45450844697741,40.45450844697741 0 0,0 0.09262926772758263,0.6901956360639098 l -19.303195354399747 2.4216828907590733" fill="#ffe215" stroke="none" /><path d="M 120.83666639777658 97.38593545837742 l 19.296379254345226 -2.4208277767439745 a40.44763891715856,40.44763891715856 0 0,0 0.08072125089792449,0.6915703820562454 l -19.33519085824674 2.0883136563628764" fill="#ffe115" stroke="none" /><path d="M 120.91429891909075 98.10471618934814 l 22.875451538284818 -2.073006278125213 a43.969188886627315,43.969188886627315 0 0,0 0.06181966656741936,0.7543565155959363 l -22.90774568867173 1.678935845321508" fill="#f0ff19" stroke="none" /><line stroke="#e1ed5e" stroke-width="0.3" x1="184.98032266829074" x2="189.97916517819016" y1="98.17113171792111" y2="98.06355123074" /><path d="M 185.9800911702706 98.14961562048488 a86.0,86.0 0 0,1 -9.607161424134198,41.387399972396054" fill="none" id="id52" stroke="none" /><text fill="#e1ed5e" style="font-size:6.75px; font-family:Arial;" text-anchor="middle"><textPath startOffset="21.466115282336823" xlink:href="#id52">April</textPath></text><path d="M 120.8583938346157 102.4346265915055 l 22.832726844127862 2.6650740403147406 a43.987736617138204,43.987736617138204 0 0,0 -0.09425627425801779,0.7513152454118914 l -22.783469060622995 -3.0577070400140274" fill="#f0ff19" stroke="none" /><path d="M 120.81339534386255 102.79330883721812 l 15.944570199453425 2.1398771371971863 a37.08752289843273,37.08752289843273 0 0,0 -0.09036277640675422,0.631997047725448 l -15.90537337203007 -2.4140196569030437" fill="#ffb510" stroke="none" /><path d="M 120.70491114924044 103.5080841355445 l 16.000535710312672 2.711010208204651 a37.228577244046406,37.228577244046406 0 0,0 -0.11248979394214598,0.6309025037160054 l -15.951499474031337 -2.986031462653875" fill="#ffb711" stroke="none" /><path d="M 120.64145759157962 103.86396538481128 l 15.797773402511368 2.9572548020686993 a37.07218094850397,37.07218094850397 0 0,0 -0.12281495777741566,0.626230823768335 l -15.744528511758288 -3.228749352904979" fill="#ffb510" stroke="none" /><path d="M 120.41448212921028 104.9243191809786 l 22.33633487276483 5.387902644335754 a43.97697435375534,43.97697435375534 0 0,0 -0.18384194189504746,0.7343571720665092 l -22.240281616574723 -5.771587655799659" fill="#f0ff19" stroke="none" /><path d="M 120.23288151984713 105.62410040840565 l 22.11314930320415 6.146755315365749 a43.951557093425606,43.951557093425606 0 0,0 -0.20888995324975537,0.727173331049728 l -22.004066713068294 -6.526486121920059" fill="#f0ff19" stroke="none" /><path d="M 120.13307415673323 105.97154293290107 l 15.40802763911138 4.570076970958191 a37.07149399552209,37.07149399552209 0 0,0 -0.18672245561551876,0.6102197886404932 l -15.32707841098973 -4.8346237321507415" fill="#ffb510" stroke="none" /><path d="M 119.9155931802556 106.66101706037122 l 22.221759339751415 7.432342925155495 a44.43173722776308,44.43173722776308 0 0,0 -0.24883712833837782,0.7232371730291789 l -22.09053138046981 -7.813752801273974" fill="#eaff1a" stroke="none" /><path d="M 119.67450827220406 107.3425965602758 l 25.787716265087045 9.624067556133346 a48.52506106248728,48.52506106248728 0 0,0 -0.29878895135495204,0.7800436682227786 l -25.618233034138587 -10.066534791189268" fill="#b8ff1f" stroke="none" /><path d="M 119.12269723197855 108.67885076344098 l 14.626644791496306 6.638313924825113 a37.06256360675758,37.06256360675758 0 0,0 -0.2686601402827045,0.5786700410408445 l -14.51021003437377 -6.889104033144788" fill="#ffb510" stroke="none" /><line stroke="#e1ed5e" stroke-width="0.3" x1="174.80103733775053" x2="179.2010983576182" y1="140.37084112569926" y2="142.7455964860345" /><path d="M 175.68104954172406 140.8457921977663 a86.0,86.0 0 0,1 -30.038265399797805,32.042727171017184" fill="none" id="id53" stroke="none" /><text fill="#e1ed5e" style="font-size:6.75px; font-family:Arial;" text-anchor="middle"><textPath startOffset="22.206326154141568" xlink:href="#id53">May</textPath></text><path d="M 118.30583269289576 110.29060199501025 l 20.019592588911127 11.253990074687627 a43.965983106045186,43.965983106045186 0 0,0 -0.3765330618485919,0.6565171313992554 l -19.822907530910157 -11.596927051945197" fill="#f0ff19" stroke="none" /><path d="M 118.12598468904814 110.60418214915192 l 9.981914571425158 5.839684967659804 a32.56462446570323,32.56462446570323 0 0,0 -0.28721862984541136,0.4813949444056313 l -9.87991506588152 -6.0106420059515395" fill="#ff770a" stroke="none" /><path d="M 117.94076556474637 110.91462005526583 l 30.276704714801827 18.419432955352214 a56.43944636678201,56.43944636678201 0 0,0 -0.5120814404969282,0.8256383323613484 l -29.955158634636938 -18.937867619078833" fill="#5fff29" stroke="none" /><path d="M 117.75023020441432 111.22182372390056 l 10.227311443016971 6.4657801539061355 a33.09976083859149,33.09976083859149 0 0,0 -0.3086081997894753,0.47896677936255855 l -10.114498379850446 -6.6408685331901465" fill="#ff7e0b" stroke="none" /><path d="M 116.93607887273984 112.41649034213515 l 12.970386506937308 9.509088851514875 a37.082714227559535,37.082714227559535 0 0,0 -0.3818437691464458,0.5115421287886037 l -12.80478147109577 -9.730943859812793" fill="#ffb510" stroke="none" /><path d="M 116.71984013943494 112.70617746262583 l 12.813350200776718 9.737455632595752 a37.09347649094239,37.09347649094239 0 0,0 -0.390705910737062,0.5050400573144359 l -12.643837472821588 -9.956573684023441" fill="#ffb510" stroke="none" /><path d="M 116.498646956653 112.99209946851258 l 12.640599245757604 9.954023695031772 a37.089354773051085,37.089354773051085 0 0,0 -0.3992970841728409,0.4981845072390182 l -12.46738424952991 -10.17013603584904" fill="#ffb510" stroke="none" /><path d="M 116.27256486870786 113.27417163493432 l 12.453544218056285 10.158846177446506 a37.07149399552209,37.07149399552209 0 0,0 -0.40761696445183515,0.4910008922299486 l -12.276831253710906 -10.371708326790225" fill="#ffb510" stroke="none" /><path d="M 115.56566222782051 114.09645910891815 l 17.144417587025437 15.52619978029425 a44.12993588438836,44.12993588438836 0 0,0 -0.5147517290380673,0.5586613371696282 l -16.87461944999165 -15.819012372265213" fill="#eeff19" stroke="none" /><path d="M 115.32070863581623 114.36230785411682 l 11.820803651700894 11.08134259089717 a37.20270201506208,37.20270201506208 0 0,0 -0.441991924940885,0.46342676624008866 l -11.628305175381044 -11.283176473719767" fill="#ffb710" stroke="none" /><path d="M 114.81725581225074 114.88116024355365 l 10.08634140306173 10.129842164569592 a35.29503358436801,35.29503358436801 0 0,0 -0.4342130289247341,0.42496883853103884 l -9.910478421761201 -10.301961106023203" fill="#ff9d0e" stroke="none" /><path d="M 114.55890576462653 115.13401014063108 l 11.237474146876561 11.681375677773822 a37.209113576226336,37.209113576226336 0 0,0 -0.46540479859796013,0.44006928617722474 l -11.034733513887794 -11.873079600696968" fill="#ffb710" stroke="none" /><path d="M 114.29624159901734 115.38237550388516 l 10.640184931186877 11.448555825577754 a36.62955424384287,36.62955424384287 0 0,0 -0.4655449776433146,0.4252642991122866 l -10.441540404076697 -11.630012891276625" fill="#ffaf10" stroke="none" /><path d="M 114.0293411484842 115.62618273729858 l 10.728676646142628 11.949831430261128 a37.05935782617546,37.05935782617546 0 0,0 -0.4783439207217121,0.4220828939429136 l -10.521390372514327 -12.13273746597633" fill="#ffb510" stroke="none" /><path d="M 113.48314897796784 116.09983520530334 l 10.4263974501271 12.449857300126144 a37.23911052310197,37.23911052310197 0 0,0 -0.49497848254397586,0.4073335931701684 l -10.210548839038433 -12.627486012153492" fill="#ffb711" stroke="none" /><path d="M 113.20401910651253 116.32954008644616 l 10.216451889073698 12.63478637209735 a37.24849888052107,37.24849888052107 0 0,0 -0.502043262650363,0.3988535310689152 l -9.997451133705983 -12.808773817171392" fill="#ffb711" stroke="none" /><path d="M 112.92097659922987 116.55440617244103 l 9.981953175382053 12.78891777185101 a37.22331060451862,37.22331060451862 0 0,0 -0.5084904020380894,0.38988875713971904 l -9.760334044850469 -12.958845870818099" fill="#ffb711" stroke="none" /><path d="M 112.34349029814194 116.9893568818739 l 28.420921405810557 39.118042386089805 a69.35255953592508,69.35255953592508 0 0,0 -0.9718363340550473,0.6933794204932324 l -27.743357743906625 -39.60146606842726" fill="#3aff93" stroke="none" /><path d="M 111.1453310114006 117.79835938074945 l 9.847240715504434 15.72539469523313 a39.554142072053736,39.554142072053736 0 0,0 -0.5801665946202438,0.3563857078448305 l -9.57509492095188 -15.892568869906338" fill="#ffd614" stroke="none" /><line stroke="#e1ed5e" stroke-width="0.3" x1="143.8653032363475" x2="146.44561519142675" y1="172.8068346515853" y2="177.08958963109032" /><path d="M 144.38136562736335 173.6633856474863 a86.0,86.0 0 0,1 -40.68145358897372,12.25698825130547" fill="none" id="id54" stroke="none" /><text fill="#e1ed5e" style="font-size:6.75px; font-family:Arial;" text-anchor="middle"><textPath startOffset="21.466115282336833" xlink:href="#id54">June</textPath></text><path d="M 110.21172684928248 118.3499491758327 l 7.8837197709745865 14.16663990812247 a37.21254834113576,37.21254834113576 0 0,0 -0.5624006645576975,0.3066656839178566 l -7.63869629454824 -14.300246243800096" fill="#ffb711" stroke="none" /><path d="M 109.89434966115114 118.52300852407294 l 17.463206364520165 32.69250950547244 a58.064319153266844,58.064319153266844 0 0,0 -0.8856442696855437,0.4633272237663017 l -16.897871192308127 -32.988266148183456" fill="#4eff2b" stroke="none" /><path d="M 109.57404056367764 118.69057910512821 l 2.5249092612141326 4.929164020782664 a26.53821493995522,26.53821493995522 0 0,0 -0.4083676407105483,0.20476401262542668 l -2.439687712820824 -4.971895874317393" fill="#ff2003" stroke="none" /><path d="M 108.92500713936063 119.00905698771935 l 7.517458435568728 16.011168794961275 a38.6881233462243,38.6881233462243 0 0,0 -0.6052517477586838,0.27784139167241817 l -7.240738692042625 -16.138197256967768" fill="#ffca12" stroke="none" /><path d="M 108.59647513512805 119.15986991738527 l 2.302158587843602 5.131063415984368 a26.623855078363526,26.623855078363526 0 0,0 -0.41974323701687294,0.1840030999915236 l -2.2134946761689758 -5.169931069270346" fill="#ff2103" stroke="none" /><path d="M 108.2653958097858 119.30500536409082 l 6.385697813135196 14.91470382943859 a37.224226541827804,37.224226541827804 0 0,0 -0.5912067595157952,0.24712447342589028 l -6.128019594121939 -15.022413345884454" fill="#ffb711" stroke="none" /><path d="M 107.93186726928326 119.44442032107085 l 8.755042686324948 21.462377538902313 a44.17939649908406,44.17939649908406 0 0,0 -0.7066156265348618,0.2811769406827646 l -8.38430598374822 -21.609901323991146" fill="#edff1a" stroke="none" /><path d="M 107.59598834532513 119.57807347666477 l 5.815930508331102 14.990111839410533 a37.07882149399552,37.07882149399552 0 0,0 -0.5970216060111373,0.22574248628529495 l -5.55703868155969 -15.08800257580246" fill="#ffb510" stroke="none" /><path d="M 107.2578585660854 119.70592522655815 l 1.937579794933293 5.260753183847045 a26.606223285161818,26.606223285161818 0 0,0 -0.43112273092658304,0.15458527269821254 l -1.846737503376975 -5.293325997585217" fill="#ff2103" stroke="none" /><path d="M 106.91757812671514 119.82793768551818 l 1.6531102856680049 4.7383299662246285 a26.018420516995725,26.018420516995725 0 0,0 -0.4241377544826038,0.14389055449868937 l -1.5713027982481742 -4.766083507621441" fill="#ff1802" stroke="none" /><path d="M 106.57524785965236 119.94407469862006 l 8.910454086798826 27.02723390797557 a49.45817219621412,49.45817219621412 0 0,0 -0.8108282379987262,0.25960159669536814 l -8.44390450370916 -27.176608351330646" fill="#adff20" stroke="none" /><path d="M 106.2309692047433 120.05430185196036 l 5.109146530977806 16.443728635366615 a38.21916344392429,38.21916344392429 0 0,0 -0.6299337582809865,0.18979387394464717 l -4.825337798256573 -16.52923787841699" fill="#ffc412" stroke="none" /><path d="M 105.88484417918355 120.15858648285463 l 1.33412588318243 4.570060170884431 a25.760813148788927,25.760813148788927 0 0,0 -0.4267325704164151,0.12059888691611355 l -1.2552621446614092 -4.592347851139063" fill="#ff1402" stroke="none" /><path d="M 105.53697534728816 120.25689768951611 l 4.272878288777705 15.632227508095514 a37.205678811316915,37.205678811316915 0 0,0 -0.6192257298210013,0.16354314330080477 l -4.003162116145206 -15.703462000699904" fill="#ffb710" stroke="none" /><path d="M 105.18746579009965 120.34920634021253 l 5.731311793594881 22.48258610409367 a44.201607978831674,44.201607978831674 0 0,0 -0.7388966328589109,0.1816028150909586 l -5.343461875992759 -22.57791017749866" fill="#edff1a" stroke="none" /><path d="M 104.83641907484287 120.43548508189849 l 5.149391964583285 21.757900017485277 a43.35894565438632,43.35894565438632 0 0,0 -0.7277692707971953,0.16563791662012078 l -4.7741025443932275 -21.843314667683085" fill="#f7ff18" stroke="none" /><path d="M 104.48393922423573 120.51570834832081 l 1.139743398594389 5.214754702985952 a26.337853653572154,26.337853653572154 0 0,0 -0.44374083382177526,0.09299020613866626 l -1.0498111033432358 -5.233600889851159" fill="#ff1d02" stroke="none" /><path d="M 104.13013068566511 120.58985236759428 l 4.79983129828502 23.928496539845426 a45.40514960309383,45.40514960309383 0 0,0 -0.767633265443573,0.14711874230483069 l -4.387230418269742 -24.007572480498727" fill="#deff1b" stroke="none" /><path d="M 103.7750983002368 120.6578951692458 l 0.899180533464855 4.920448613848885 a26.00193364543049,26.00193364543049 0 0,0 -0.440981686263599,0.07667031869178723 l -0.8143498757292061 -4.935197511061679" fill="#ff1702" stroke="none" /><path d="M 103.41894727170886 120.7198165907248 l 3.437053048565014 20.82954287366469 a42.11121005495624,42.11121005495624 0 0,0 -0.7162197129370845,0.11185878935843038 l -3.0779974720194123 -20.885619970370225" fill="#fff717" stroke="none" /><path d="M 103.06178313531738 120.77559828337769 l 0.5027223378021399 3.411200884145938 a24.448046000407082,24.448046000407082 0 0,0 -0.4168641082902352,0.05777356693462101 l -0.4439296383250743 -3.4193490165731615" fill="#ff0000" stroke="none" /><path d="M 102.70371172650421 120.8252237178851 l 2.987282666503064 23.009416732057733 a44.20252391614085,44.20252391614085 0 0,0 -0.7553844602580219,0.09146653837052053 l -2.590770783193662 -23.057428799153605" fill="#edff1a" stroke="none" /><path d="M 101.62511606390274 120.93702456842531 l 1.1617777112644765 14.967650018410712 a36.01267046611032,36.01267046611032 0 0,0 -0.6184528597083895,0.04265213013722134 l -0.9039620907771567 -14.98543049306422" fill="#ffa70f" stroke="none" /><path d="M 101.26447882468166 120.96189622390904 l 1.267824687641334 21.01736226317442 a42.05556686342358,42.05556686342358 0 0,0 -0.7229791155871718,0.03736976211412489 l -0.9058575036406825 -21.036071832050748" fill="#fff617" stroke="none" /><path d="M 100.90346689309514 120.98055641714683 l 0.2090766247582021 4.855234823512407 a25.859734378180338,25.859734378180338 0 0,0 -0.444885511520757,0.015322756548350963 l -0.12547076156279283 -4.858114378486852" fill="#ff1502" stroke="none" /><line stroke="#e1ed5e" stroke-width="0.3" x1="102.19456741930631" x2="102.32365962044197" y1="184.97166512339345" y2="189.96999836594603" /><path d="M 102.22038585953345 185.97133177190398 a86.0,86.0 0 0,1 -42.740103519485714,-10.115201625700543" fill="none" id="id55" stroke="none" /><text fill="#e1ed5e" style="font-size:6.75px; font-family:Arial;" text-anchor="middle"><textPath startOffset="22.20632615414155" xlink:href="#id55">July</textPath></text><path d="M 100.54218724476979 120.99299961872073 l 0.4203504037071165 16.27558735451132 a37.28101465499695,37.28101465499695 0 0,0 -0.6416600713341947,0.011046760035557154 l -0.14013064248025386 -16.280411591826038" fill="#ffb811" stroke="none" /><path d="M 100.18074693466247 120.99922214144158 l 0.2926560699924807 34.000852276083876 a55.00211174435172,55.00211174435172 0 0,0 -0.9468060093098489,0.0 l 0.2926560699924573 -34.000852276083876" fill="#6fff28" stroke="none" /><path d="M 99.81925306533755 120.99922214144158 l -0.041957795920758975 4.874666775128118 a25.874847343781802,25.874847343781802 0 0,0 -0.44534346894839866,-0.0076669916902360755 l 0.12586095476182557 -4.873222306158722" fill="#ff1602" stroke="none" /><path d="M 98.73552117531835 120.96189622390904 l -0.8482865634509799 14.062469504519125 a35.088031752493386,35.088031752493386 0 0,0 -0.6025738524247836,-0.04155702082617441 l 1.0902231766546935 -14.045784139176666" fill="#ff9a0e" stroke="none" /><path d="M 98.37488393609728 120.93702456842531 l -1.8641568812316673 24.016683662590957 a45.08892224709953,45.08892224709953 0 0,0 -0.7732872168667958,-0.06672247489418219 l 2.2772884158400046 -23.98103693541811" fill="#e2ff1b" stroke="none" /><path d="M 98.01472825383883 120.90594882070398 l -1.8603804832487953 19.590778564718608 a40.67891308772644,40.67891308772644 0 0,0 -0.6965148167552639,-0.07219660863394212 l 2.1973278966096528 -19.555852587628905" fill="#ffe415" stroke="none" /><path d="M 97.2962882734958 120.8252237178851 l -2.6894034617191114 20.715014921494895 a41.88886627315286,41.88886627315286 0 0,0 -0.7142478742863944,-0.09898824713463707 l 3.0455799271923367 -20.665652108867654" fill="#fff417" stroke="none" /><path d="M 96.93821686468263 120.77559828337769 l -0.723235091234408 4.907480724747876 a25.96048748219011,25.96048748219011 0 0,0 -0.4415311948513492,-0.06895809208813508 l 0.8076021496942742 -4.8943043253126355" fill="#ff1702" stroke="none" /><path d="M 96.22490169976321 120.6578951692458 l -3.758948396557859 20.569520512307214 a41.910161815591294,41.910161815591294 0 0,0 -0.7085459391940779,-0.13579451560008968 l 4.112461950323632 -20.501768798358658" fill="#fff417" stroke="none" /><path d="M 95.86986931433489 120.58985236759428 l -4.107192854227747 20.475500886037747 a41.88337064929778,41.88337064929778 0 0,0 -0.7056521028494935,-0.14787625907899782 l 4.459036418506627 -20.40176864623221" fill="#fff417" stroke="none" /><path d="M 95.16358092515715 120.4354850818985 l -7.913358846888111 33.4365827610888 a55.360243232241,55.360243232241 0 0,0 -0.9254300734521481,-0.22744819645271394 l 8.487742205083471 -33.29541330632206" fill="#6bff28" stroke="none" /><path d="M 94.81253420990036 120.34920634021253 l -4.002483345651305 15.700799343942885 a37.20293099938938,37.20293099938938 0 0,0 -0.6191799971291095,-0.16353106488121852 l 4.272153785591903 -15.629576929758084" fill="#ffb710" stroke="none" /><path d="M 94.46302465271185 120.25689768951611 l -1.2859327795268787 4.704555667423931 a25.877137187054753,25.877137187054753 0 0,0 -0.4286594993360664,-0.12114345627637971 l 1.3667234469675589 -4.68172341780903" fill="#ff1602" stroke="none" /><path d="M 93.76903079525671 120.05430185196036 l -1.444323478756429 4.648538303287635 a25.867748829635662,25.867748829635662 0 0,0 -0.4240816082186841,-0.13577753889583075 l 1.5241264320660537 -4.622987917732098" fill="#ff1502" stroke="none" /><path d="M 93.42475214034765 119.94407469862007 l -8.749638601469796 26.539447573443965 a48.94456035009159,48.94456035009159 0 0,0 -0.797866876948425,-0.27067976412591405 l 9.205175211355446 -26.384904822419927" fill="#b4ff20" stroke="none" /><path d="M 92.7421414339146 119.70592522655815 l -3.9653789651973814 10.766462403702162 a32.473488703439855,32.473488703439855 0 0,0 -0.5228692174494078,-0.19770439789891733 l 4.150118403407072 -10.696609755696612" fill="#ff760a" stroke="none" /><path d="M 92.06813273071674 119.44442032107085 l -6.061249928382136 14.858732159441782 a37.04745064115612,37.04745064115612 0 0,0 -0.5883991496040288,-0.24595089225506891 l 6.316120537483626 -14.75219622416674" fill="#ffb510" stroke="none" /><path d="M 90.42595943632237 118.69057910512821 l -3.1107767371892288 6.072902898010495 a27.82327498473438,27.82327498473438 0 0,0 -0.4243832428151143,-0.22201725505013647 l 3.214850882530839 -6.018456224015642" fill="#ff3304" stroke="none" /><line stroke="#e1ed5e" stroke-width="0.3" x1="58.666819895761336" x2="56.23545636021788" y1="174.27360380694188" y2="178.64263932499728" /><path d="M 58.180547188652646 175.14741091055294 a86.0,86.0 0 0,1 -31.652253787137756,-30.449443065178592" fill="none" id="id56" stroke="none" /><text fill="#e1ed5e" style="font-size:6.75px; font-family:Arial;" text-anchor="middle"><textPath startOffset="22.20632615414155" xlink:href="#id56">August</textPath></text><path d="M 89.4739219176387 118.17145234162733 l -10.57791881031918 18.2609463877546 a42.10342458782821,42.10342458782821 0 0,0 -0.623997070069797,-0.3686684678348715 l 10.89068375141736 -18.07615934762598" fill="#fff717" stroke="none" /><path d="M 89.1626897886671 117.98757091392108 l -2.584500432148621 4.28970693777116 a26.008116222267454,26.008116222267454 0 0,0 -0.3814781317636344,-0.23433502596766453 l 2.657957763844564 -4.244583444975117" fill="#ff1802" stroke="none" /><path d="M 88.54995079064634 117.60387380957326 l -8.755836749280043 13.461657885769965 a37.05867087319357,37.05867087319357 0 0,0 -0.531748341198174,-0.35241380519534643 l 8.986259789218177 -13.308946059483299" fill="#ffb510" stroke="none" /><path d="M 88.24862548938628 117.40417183066458 l -9.12477607086861 13.514093224609512 a37.30620293099939,37.30620293099939 0 0,0 -0.5291140811361676,-0.36392948972523265 l 9.356047036627668 -13.35502294551918" fill="#ffb811" stroke="none" /><path d="M 87.65650970185807 116.9893568818739 l -10.133149160494883 13.947083301942811 a38.23954304905354,38.23954304905354 0 0,0 -0.5291898063991085,-0.39148196763256754 l 10.371723937312556 -13.770591385570478" fill="#ffc412" stroke="none" /><path d="M 87.36589467227662 116.77436683061367 l -13.807520223478496 18.332315842065327 a43.95041217178914,43.95041217178914 0 0,0 -0.6003862201407851,-0.46035055182215473 l 14.121035172112768 -18.091925948415806" fill="#f0ff19" stroke="none" /><path d="M 86.79598089348748 116.32954008644616 l -10.09363965297426 12.482903273753253 a37.053175249338494,37.053175249338494 0 0,0 -0.49250704973137965,-0.40529977221968344 l 10.307016831250328 -12.30730838267639" fill="#ffb510" stroke="none" /><path d="M 86.51685102203217 116.09983520530335 l -40.44944693390351 48.29950561591003 a84.0,84.0 0 0,0 -1.1005380936917737,-0.937902439108194 l 41.274850504172335 -47.596078786578886" fill="#4dd2ff" stroke="none" /><path d="M 85.70375840098266 115.38237550388516 l -8.618649561583743 9.273437565701814 a33.66008548748219,33.66008548748219 0 0,0 -0.4210142032811086,-0.3980952075838828 l 8.776999599255667 -9.123707721372" fill="#ff860c" stroke="none" /><path d="M 85.44109423537348 115.13401014063109 l -13.98735092046769 14.53987779667135 a41.17558009362915,41.17558009362915 0 0,0 -0.5065577656258757,-0.49577338994179143 l 14.23555863846936 -14.296954303806988" fill="#ffeb16" stroke="none" /><path d="M 84.9287848128048 114.62390073753433 l -19.74407632938537 19.158071118283026 a48.51109301852229,48.51109301852229 0 0,0 -0.5763428520746335,-0.6042931762118949 l 20.07092573283896 -18.81537082548863" fill="#b9ff1f" stroke="none" /><path d="M 84.67929136418377 114.36230785411682 l -11.703696522433347 10.971561203989234 a37.042184001628335,37.042184001628335 0 0,0 -0.43207695366104776,-0.46893419696431515 l 11.890819884090124 -10.768475752223575" fill="#ffb410" stroke="none" /><path d="M 84.43433777217949 114.09645910891817 l -13.586914021829033 12.304479894391067 a39.33042438428659,39.33042438428659 0 0,0 -0.45012949715897543,-0.5057252618481499 l 13.796702368636346 -12.068780462802053" fill="#ffd313" stroke="none" /><path d="M 83.72743513129214 113.27417163493432 l -19.2229165353712 15.680889612259167 a45.80747506615103,45.80747506615103 0 0,0 -0.493154743164301,-0.6152863681056703 l 19.489989190590364 -15.347675410575237" fill="#d9ff1c" stroke="none" /><path d="M 83.50135304334701 112.99209946851258 l -16.8403998462388 13.261217751170303 a42.43499389375127,42.43499389375127 0 0,0 -0.44696816003288925,-0.5777665987568208 l 17.06617482348976 -12.969373158300229" fill="#fffb17" stroke="none" /><path d="M 83.28015986056508 112.70617746262583 l -3.86486171290324 2.9370866218291676 a25.85423875432526,25.85423875432526 0 0,0 -0.26622323041895884,-0.3566495227247305 l 3.914846210017284 -2.8701242195951293" fill="#ff1502" stroke="none" /><path d="M 83.06392112726016 112.41649034213515 l -22.179757970088964 16.26083302373949 a48.50193364543049,48.50193364543049 0 0,0 -0.4878375473701113,-0.6775636858194323 l 22.456375309834684 -15.87663573246892" fill="#b9ff1f" stroke="none" /><path d="M 82.85270091963577 112.12312394758628 l -13.168795122951497 9.310325478531261 a37.12759515570934,37.12759515570934 0 0,0 -0.3644499421261656,-0.5250173235938587 l 13.327105972239798 -9.08226689275039" fill="#ffb610" stroke="none" /><path d="M 82.44556493220864 111.52570212397912 l -3.8992912037231178 2.560154669472885 a25.664639731325057,25.664639731325057 0 0,0 -0.2392862686939853,-0.37137760286416616 l 3.9427823357941487 -2.4926554666872707" fill="#ff1202" stroke="none" /><path d="M 82.24976979558568 111.22182372390057 l -17.43332632416919 11.021474802192127 a41.6250763281091,41.6250763281091 0 0,0 -0.3776689960488146,-0.6089226740569531 l 17.62045995988596 -10.71975579676991" fill="#fff116" stroke="none" /><line stroke="#e1ed5e" stroke-width="0.3" x1="26.63291911575756" x2="22.317208475507996" y1="142.92168965132927" y2="145.44649492493687" /><path d="M 25.769776987707644 143.4266507060508 a86.0,86.0 0 0,1 -11.730757126820373,-40.83630448921669" fill="none" id="id57" stroke="none" /><text fill="#e1ed5e" style="font-size:6.75px; font-family:Arial;" text-anchor="middle"><textPath startOffset="21.46611528233685" xlink:href="#id57">September</textPath></text><path d="M 81.69416730710424 110.29060199501025 l -16.453013194338475 9.249041725771747 a39.874491145939345,39.874491145939345 0 0,0 -0.3311929484270692,-0.601211402889971 l 16.60978255221706 -8.964459804483953" fill="#ffda14" stroke="none" /><path d="M 81.51974371655577 109.97397251340807 l -18.41852735900003 9.940656817659828 a41.92985446773865,41.92985446773865 0 0,0 -0.33733065442,-0.6381024717863419 l 18.586910521644917 -9.622139330787359" fill="#fff517" stroke="none" /><path d="M 81.18737489456691 109.33194174019688 l -14.383526727298825 7.134901837753245 a37.05592306126603,37.05592306126603 0 0,0 -0.27853127515982745,-0.5738569250678288 l 14.504211259073372 -6.886255956720131" fill="#ffb510" stroke="none" /><path d="M 80.87730276802145 108.67885076344099 l -19.18851821086358 8.708723665046714 a42.0722827193161,42.0722827193161 0 0,0 -0.29362229134389933,-0.66204075295941 l 19.335581586938762 -8.377134575594607" fill="#fff617" stroke="none" /><path d="M 80.73074385275274 108.34839909993369 l -4.55733512220268 1.974463992878533 a25.96667005902707,25.96667005902707 0 0,0 -0.17416095235795587,-0.4116650450605685 l 4.590647055752942 -1.8957244221518057" fill="#ff1702" stroke="none" /><path d="M 80.20201598880116 107.00284435728193 l -22.653755846375322 8.012973755827662 a45.02915733767556,45.02915733767556 0 0,0 -0.2521829418005071,-0.7329616730906852 l 22.788329619119057 -7.62183937964768" fill="#e3ff1b" stroke="none" /><path d="M 80.0844068197444 106.66101706037122 l -18.2514241854093 6.1044151070333825 a40.245216771829845,40.245216771829845 0 0,0 -0.21408107490210485,-0.6588737998469932 l 18.353797511327652 -5.7893424072085855" fill="#ffdf14" stroke="none" /><path d="M 79.97269907076064 106.31721596034903 l -4.8344521964849205 1.5249323252835794 a26.069255037655203,26.069255037655203 0 0,0 -0.13130615446160052,-0.42911611010376444 l 4.859985123452652 -1.441489242627767" fill="#ff1802" stroke="none" /><path d="M 79.86692584326677 105.97154293290107 l -11.39455541818079 3.379666530370927 a32.88520252391614,32.88520252391614 0 0,0 -0.1562945404465955,-0.5440817992120027 l 11.451042595513488 -3.1830272556543284" fill="#ff7b0b" stroke="none" /><path d="M 79.58551787078972 104.9243191809786 l -29.027463201999947 7.001916233585515 a50.8600142479137,50.8600142479137 0 0,0 -0.19796518006611272,-0.8528288144946903 l 29.143688947996612 -6.50121876174225" fill="#9dff22" stroke="none" /><path d="M 79.50377843672027 104.57218783832718 l -6.721718906151333 1.4994452192309928 a27.88693262772237,27.88693262772237 0 0,0 -0.10048055068111288,-0.46941168108439735 l 6.7465334955568865 -1.3835197187304316" fill="#ff3404" stroke="none" /><path d="M 79.4281124754447 104.21870165774334 l -13.484542976190536 2.7652914074930557 a34.76516385100753,34.76516385100753 0 0,0 -0.11517213234412055,-0.5872602215418227 l 13.530145041510323 -2.5327674588832783" fill="#ff960d" stroke="none" /><path d="M 79.35854240842038 103.8639653848113 l -4.5035211786868325 0.8430339702032065 a25.581747404844293,25.581747404844293 0 0,0 -0.07729775638179033,-0.433526867850636 l 4.5173653774078115 -0.7653883516193567" fill="#ff1101" stroke="none" /><path d="M 79.29508885075956 103.50808413554451 l -4.511946977234995 0.7644702987212169 a25.57625178098921,25.57625178098921 0 0,0 -0.06980885152858163,-0.43469978510623736 l 4.524437583124867 -0.6866912839217659" fill="#ff1101" stroke="none" /><path d="M 79.23777060512086 103.15116336523772 l -20.846145241638133 3.1638995958727167 a42.084876857317326,42.084876857317326 0 0,0 -0.10253869820258149,-0.7171554164065835 l 20.897517990857313 -2.8045987074857326" fill="#fff617" stroke="none" /><path d="M 79.1416061653843 102.43462659150553 l -25.68960384272424 2.998533498631271 a46.86400875228985,46.86400875228985 0 0,0 -0.08662633153325967,-0.8020522436569874 l 25.73741247575855 -2.5558849330895015" fill="#ccff1d" stroke="none" /><path d="M 79.10278846688536 102.07522291339032 l -4.6764430260908965 0.46439984136303214 a25.699445349073887,25.699445349073887 0 0,0 -0.039926418093751144,-0.44058469664979 l 4.683744040461723 -0.38383375616467597" fill="#ff1302" stroke="none" /><path d="M 79.07016306316243 101.71520430193888 l -14.259368093947712 1.168558052863866 a35.30716975371464,35.30716975371464 0 0,0 -0.044425568034077725,-0.6061515795468181 l 14.277370220646125 -0.9229333368202872" fill="#ff9d0e" stroke="none" /><path d="M 79.04373962182676 101.35467743843564 l -6.867561092352851 0.44394037395043134 a27.88189497252188,27.88189497252188 0 0,0 -0.026837849598345388,-0.4792078332260911 l 6.874185292838728 -0.32566082438890265" fill="#ff3304" stroke="none" /><path d="M 79.0235259727143 100.99374915477108 l -25.184074388367875 1.1930819547927105 a46.212319356808464,46.212319356808464 0 0,0 -0.030803519380689696,-0.7949019628540342 l 25.200880040599763 -0.7594027449246794" fill="#d4ff1c" stroke="none" /><line stroke="#e1ed5e" stroke-width="0.3" x1="15.007084014347285" x2="10.007500721073583" y1="101.09737516637583" y2="101.16192664675087" /><path d="M 14.007167355692545 101.11028546245083 a86.0,86.0 0 0,1 10.666146001902534,-42.60595125391555" fill="none" id="id58" stroke="none" /><text fill="#e1ed5e" style="font-size:6.75px; font-family:Arial;" text-anchor="middle"><textPath startOffset="22.20632615414155" xlink:href="#id58">October</textPath></text><path d="M 79.00175016825051 100.2711162175752 l -18.435365540255546 0.23802586477150806 a39.43690209647873,39.43690209647873 0 0,0 -0.002921528356433155,-0.678860300804127 l 18.436731365901483 0.07934391423629422" fill="#ffd413" stroke="none" /><path d="M 79.00019446554 99.90962569577889 l -13.97730288769925 -0.060152415282647385 a34.97743232240994,34.97743232240994 0 0,0 0.007773306080441581,-0.6020511224140425 l 13.974196574501091 0.30073979575716187" fill="#ff980e" stroke="none" /><path d="M 79.00486145842228 99.54816195383935 l -26.113966498857554 -0.5620007496964937 a47.12001323020557,47.12001323020557 0 0,0 0.02443129053831073,-0.8107555920858329 l 26.1004235138636 1.011426489207321" fill="#c9ff1d" stroke="none" /><path d="M 79.01574976396665 99.18683210126434 l -7.093876778093203 -0.2748972590703398 a28.099201099124773,28.099201099124773 0 0,0 0.022889330587015682,-0.4831575918885948 l 7.088093839272688 0.3969659575819437" fill="#ff3705" stroke="none" /><path d="M 79.03285615573316 98.82574320788736 l -27.460733710373873 -1.5379277843138541 a48.50376552004886,48.50376552004886 0 0,0 0.0538609117137172,-0.8332044648073775 l 27.430192207655743 2.0103913133742437" fill="#b9ff1f" stroke="none" /><path d="M 79.05617556472873 98.46500227214037 l -16.027132086163576 -1.1746475154239742 a37.070120089558316,37.070120089558316 0 0,0 0.05211973478654478,-0.6359927788430574 l 16.004537867557534 1.4503542114748098" fill="#ffb510" stroke="none" /><path d="M 79.12142395522702 97.74499172005258 l -34.2396565960037 -3.6980830953686943 a55.438784856503155,55.438784856503155 0 0,0 0.11063904301171562,-0.9478877543994423 l 34.17092719998839 4.286914588092999" fill="#6aff28" stroke="none" /><path d="M 79.26566170972629 96.67025291283419 l -20.38134026553017 -3.273058798964375 a41.64247913698351,41.64247913698351 0 0,0 0.11974818079835162,-0.7067605416277408 l 20.321980223211593 3.6234051289079434" fill="#fff116" stroke="none" /><line stroke="#e1ed5e" stroke-width="0.3" x1="26.266209847984243" x2="21.928928074336255" y1="57.711370442889674" y2="55.22380399835377" /><path d="M 25.398753493254645 57.213857153982495 a86.0,86.0 0 0,1 29.58750427330803,-30.492523968695096" fill="none" id="id59" stroke="none" /><text fill="#e1ed5e" style="font-size:6.75px; font-family:Arial;" text-anchor="middle"><textPath startOffset="21.46611528233685" xlink:href="#id59">November</textPath></text><line stroke="#e1ed5e" stroke-width="0.3" x1="56.762969772571076" x2="54.21961505331055" y1="26.818313649435495" y2="22.513508569990535" /><path d="M 56.25429882871897 25.957352633546506 a86.0,86.0 0 0,1 42.265352541879196,-11.944610805530505" fill="none" id="id60" stroke="none" /><text fill="#e1ed5e" style="font-size:6.75px; font-family:Arial;" text-anchor="middle"><textPath startOffset="22.20632615414155" xlink:href="#id60">December</textPath></text></svg>