<?xml version="1.0" encoding="utf-8" ?>
<svg baseProfile="full" height="200mm" version="1.1" viewBox="0,0,200,200" width="200mm" xmlns="http://www.w3.org/2000/svg" xmlns:ev="http://www.w3.org/2001/xml-events" xmlns:xlink="http://www.w3.org/1999/xlink"><defs /><rect fill="#1a1a1a" height="200" width="200" x="0" y="0" /><text alignment-baseline="middle" fill="#e1ed5e" style="dominant-baseline: central; font-size:9.0px; font-family:Arial;" text-anchor="middle" x="100.0" y="100.0">2024</text><line stroke="#e1ed5e" stroke-width="0.3" x1="100.0" x2="100.0" y1="15.0" y2="10.0" /><path d="M 100.0 14.0 a86.0,86.0 0 0,1 42.35913384403234,11.155469271406648" fill="none" id="id61" stroke="none" /><text fill="#e1ed5e" style="font-size:6.75px; font-family:Arial;" text-anchor="middle"><textPath startOffset="22.145653131862478" xlink:href="#id61">January</textPath></text><path d="M 101.08105385017728 79.02784411241856 l 0.4533665858009476 -8.795190646681341 a29.806867761729578,29.806867761729578 0 0,0 0.5107699861571057,0.030726654013447745 l -0.6042809240905156 8.786112014843201" fill="#ff1802" stroke="none" /><path d="M 102.51750503828377 79.15144685158666 l 1.6007225977284365 -13.25627939055025 a34.35257488708473,34.35257488708473 0 0,0 0.5848479712995344,0.07572027894902278 l -1.8280483909187626 13.226847515400829" fill="#ff5f08" stroke="none" /><path d="M 102.87502721639298 79.19773525538626 l 1.2073592992380573 -8.735850443924415 a29.818888788054366,29.818888788054366 0 0,0 0.5064594766369317,0.0744321021757047 l -1.357143881482671 8.713837268449828" fill="#ff1802" stroke="none" /><path d="M 104.29559338865022 79.4440306129975 l 9.034782983893866 -43.23470720618904 a65.16862246856871,65.16862246856871 0 0,0 1.0930875281232686,0.23823333915934256 l -9.775632928636268 43.07324240889598" fill="#33ff52" stroke="none" /><path d="M 106.72888874123014 80.10723608172694 l 6.579654334491602 -19.45157891196688 a41.534258528855354,41.534258528855354 0 0,0 0.6734369186412008,0.2342563182028104 l -6.912597025177821 19.33576416119548" fill="#ffc912" stroke="none" /><path d="M 109.3889696526874 81.21577127319529 l 9.834924245856524 -19.676436646281836 a42.99745198919364,42.99745198919364 0 0,0 0.6573957794955909,0.33567096914082795 l -10.171247247065693 19.504707725468176" fill="#ffdd14" stroke="none" /><path d="M 110.02825361518725 81.54914285379988 l 6.308078079129996 -11.606153171957915 a34.20964195212532,34.20964195212532 0 0,0 0.5135613545955428,0.28486382629733775 l -6.506383621881638 11.496156430227431" fill="#ff5d08" stroke="none" /><line stroke="#e1ed5e" stroke-width="0.3" x1="143.13028292997686" x2="145.6673583964461" y1="26.7553504044142" y2="22.446841604673864" /><path d="M 143.63769802327073 25.89364864446614 a86.0,86.0 0 0,1 29.32050498858742,28.57503671076993" fill="none" id="id62" stroke="none" /><text fill="#e1ed5e" style="font-size:6.75px; font-family:Arial;" text-anchor="middle"><textPath startOffset="20.669276256404974" xlink:href="#id62">February</textPath></text><path d="M 111.5731344415666 82.4767994020092 l 17.059121227653335 -25.82968380838645 a51.95458257998311,51.95458257998311 0 0,0 0.7399908809544685,0.4978988894499018 l -17.500008396704807 25.53303524487943" fill="#abff21" stroke="none" /><path d="M 112.16784306229584 82.88440491214696 l 10.214858764406808 -14.3684780939479 a38.62942149683418,38.62942149683418 0 0,0 0.5371678397782688,0.3888680907969101 l -10.460007614559045 14.191009231777915" fill="#ff9f0e" stroke="none" /><path d="M 113.59037401385872 83.9905735841838 l 17.08689569485311 -20.128320164148867 a47.402864941465566,47.402864941465566 0 0,0 0.6158321082886433,0.5319411076875609 l -17.42990728290461 19.832034923996588" fill="#e5ff1a" stroke="none" /><path d="M 114.39649973595853 84.71141617570332 l 12.275953383601964 -13.036637083358452 a38.906784689596435,38.906784689596435 0 0,0 0.48230983529600835,0.4620419119237107 l -12.497935704763284 12.82398304112916" fill="#ffa30f" stroke="none" /><path d="M 115.41159269507618 85.73525988315684 l 16.155872922264763 -14.9536347836703 a43.01416414774275,43.01416414774275 0 0,0 0.49692071993367964,0.5462029189046359 l -16.41019134304032 14.674094289207991" fill="#ffde14" stroke="none" /><path d="M 117.01052211995028 87.68569379921539 l 51.03156635985084 -36.94291860235382 a84.0,84.0 0 0,0 0.8355396058801574,1.175291093161984 l -51.65822106426096 36.06145028248233" fill="#4dd2ff" stroke="none" /><line stroke="#e1ed5e" stroke-width="0.3" x1="172.87174338648825" x2="177.1583165268699" y1="56.24261187166439" y2="53.66864786411523" /><path d="M 173.72905801456457 55.72781907015455 a86.0,86.0 0 0,1 12.242430191666344,42.057860355516425" fill="none" id="id63" stroke="none" /><text fill="#e1ed5e" style="font-size:6.75px; font-family:Arial;" text-anchor="middle"><textPath startOffset="22.145653131862474" xlink:href="#id63">March</textPath></text><path d="M 118.53625476483649 90.13048839642627 l 7.773894250620121 -4.139160822120214 a29.807160957493593,29.807160957493593 0 0,0 0.2366006294466308,0.4537129039262738 l -7.843802949041697 4.005101675089442" fill="#ff1802" stroke="none" /><path d="M 119.31412917781788 91.75594674310238 l 12.151874250698917 -5.186912522514416 a34.21257390976551,34.21257390976551 0 0,0 0.22592379967475626,0.5421348745479752 l -12.239123894910158 4.977545138525163" fill="#ff5d08" stroke="none" /><path d="M 119.4528033332814 92.08871423366111 l 16.30719857225598 -6.631995694565446 a38.60420666112853,38.60420666112853 0 0,0 0.24438544692438058,0.6160109706391179 l -16.418642694146484 6.351083706712762" fill="#ff9f0e" stroke="none" /><path d="M 119.83427380445688 93.10060997987247 l 16.77001287721526 -5.833481004808451 a38.75564227324449,38.75564227324449 0 0,0 0.21318293708981276,0.6302374733805424 l -16.86768123587744 5.544741856953747" fill="#ffa10e" stroke="none" /><path d="M 120.26092885502905 94.47779374421319 l 29.851734548127542 -8.13622299585933 a51.94065578119219,51.94065578119219 0 0,0 0.22708088450543062,0.862263105761205 l -29.987004913437705 7.622579385725326" fill="#abff21" stroke="none" /><path d="M 120.77682067341334 96.94652285012252 l 8.71182160956497 -1.2803377685525978 a29.805401782909478,29.805401782909478 0 0,0 0.07005047686960131,0.5068503550224279 l -8.732516602989783 1.1305991053300843" fill="#ff1802" stroke="none" /><path d="M 120.9064616781168 98.02013634271609 l 17.762808427157733 -1.682156425974129 a38.84228162151219,38.84228162151219 0 0,0 0.057165438622622106,0.6643490490644915 l -17.789067488478093 1.3769863295339757" fill="#ffa20f" stroke="none" /><path d="M 120.96210409425399 98.7389718711861 l 13.26731193729477 -0.7981285405057855 a34.291296972404695,34.291296972404695 0 0,0 0.030304379394308235,0.5878968643695623 l -13.27905790614565 0.5702598827594926" fill="#ff5e08" stroke="none" /><path d="M 120.99303781780057 99.45929381324524 l 19.801152523158574 -0.5100074494729904 a40.80771942561554,40.80771942561554 0 0,0 0.012025779188946038,0.7004413485348647 l -19.806989733946185 0.17001918496905924" fill="#ffbe11" stroke="none" /><line stroke="#e1ed5e" stroke-width="0.3" x1="184.99686870605535" x2="189.99668451229388" y1="99.2704041080226" y2="99.22748670261217" /><path d="M 185.99683186730306 99.26182062694052 a86.0,86.0 0 0,1 -10.086455211305974,41.156179273409016" fill="none" id="id64" stroke="none" /><text fill="#e1ed5e" style="font-size:6.75px; font-family:Arial;" text-anchor="middle"><textPath startOffset="21.40746469413373" xlink:href="#id64">April</textPath></text><path d="M 120.99922638620191 100.18025310272382 l 17.873728087573568 0.15342445887168918 a38.8743865576723,38.8743865576723 0 0,0 -0.01145603810818868,0.66725678688207 l -17.86846061786671 -0.46022816172283026" fill="#ffa30f" stroke="none" /><path d="M 120.98066250479742 100.90099992219065 l 17.82321552591155 0.765405563259092 a38.83964285963602,38.83964285963602 0 0,0 -0.03432390654996291,0.6658746173639536 l -17.807450029905013 -1.0712519739997763" fill="#ffa20f" stroke="none" /><path d="M 120.93736805541906 101.62068470465957 l 7.324256718197719 0.5669437918253931 a28.34616646538545,28.34616646538545 0 0,0 -0.041717967421516663,0.4848260181882101 l -7.313445128078461 -0.6925908573892605" fill="#ff0000" stroke="none" /><path d="M 120.9064616781168 101.97986365728391 l 14.609084977762443 1.3834955364024857 a35.67444798916572,35.67444798916572 0 0,0 -0.06296983030931487,0.6091759866175047 l -14.583182754971462 -1.6340760453029217" fill="#ff730a" stroke="none" /><line stroke="#e1ed5e" stroke-width="0.3" x1="174.33088141563837" x2="178.70328620479359" y1="141.23008692659167" y2="143.65538615756765" /><path d="M 175.20536237346943 141.71514677278685 a86.0,86.0 0 0,1 -30.301960400862466,31.631185727798858" fill="none" id="id65" stroke="none" /><text fill="#e1ed5e" style="font-size:6.75px; font-family:Arial;" text-anchor="middle"><textPath startOffset="22.145653131862474" xlink:href="#id65">May</textPath></text><path d="M 116.79662413953412 112.60449989151573 l 6.128553455179645 4.598980766566276 a28.662231498998246,28.662231498998246 0 0,0 -0.2986986994366161,0.39100618591959896 l -6.048702778388725 -4.703507865726753" fill="#ff0500" stroke="none" /><path d="M 115.6541949942343 113.99807769240083 l 5.489333419084094 4.9085957922545935 a28.363904809108615,28.363904809108615 0 0,0 -0.3276737390377053,0.360170839192777 l -5.4042619792045095 -5.0021042070050425" fill="#ff0000" stroke="none" /><path d="M 115.41159269507618 114.26474011684316 l 6.467104471889679 5.9858553509173476 a29.812145285481925,29.812145285481925 0 0,0 -0.35085227576732947,0.37259295845476803 l -6.36339636238609 -6.095989769316613" fill="#ff1802" stroke="none" /><line stroke="#e1ed5e" stroke-width="0.3" x1="143.1302829299769" x2="145.66735839644613" y1="173.24464959558577" y2="177.55315839532614" /><path d="M 143.63769802327073 174.10635135553383 a86.0,86.0 0 0,1 -40.68552437913181,11.842963189579606" fill="none" id="id66" stroke="none" /><text fill="#e1ed5e" style="font-size:6.75px; font-family:Arial;" text-anchor="middle"><textPath startOffset="21.407464694133747" xlink:href="#id66">June</textPath></text><line stroke="#e1ed5e" stroke-width="0.3" x1="101.45913802915013" x2="101.54496967792366" y1="184.9874750549273" y2="189.98673829345242" /><path d="M 101.47630435890484 185.9873277026323 a86.0,86.0 0 0,1 -42.54439059252881,-10.42667462771756" fill="none" id="id67" stroke="none" /><text fill="#e1ed5e" style="font-size:6.75px; font-family:Arial;" text-anchor="middle"><textPath startOffset="22.145653131862474" xlink:href="#id67">July</textPath></text><line stroke="#e1ed5e" stroke-width="0.3" x1="58.13341422392154" x2="55.67067388415222" y1="173.97424548756322" y2="178.32567169271397" /><path d="M 57.64086615596768 174.84453072859336 a86.0,86.0 0 0,1 -31.369924170532247,-30.572349798747897" fill="none" id="id68" stroke="none" /><text fill="#e1ed5e" style="font-size:6.75px; font-family:Arial;" text-anchor="middle"><textPath startOffset="22.145653131862474" xlink:href="#id68">August</textPath></text><line stroke="#e1ed5e" stroke-width="0.3" x1="26.387840678322732" x2="22.057713659400548" y1="142.50000000000003" y2="145.00000000000006" /><path d="M 25.521815274538298 143.00000000000003 a86.0,86.0 0 0,1 -11.493303480769221,-40.785679425670985" fill="none" id="id69" stroke="none" /><text fill="#e1ed5e" style="font-size:6.75px; font-family:Arial;" text-anchor="middle"><textPath startOffset="21.40746469413373" xlink:href="#id69">September</textPath></text><line stroke="#e1ed5e" stroke-width="0.3" x1="15.003131293944662" x2="10.003315487706104" y1="100.72959589197737" y2="100.7725132973878" /><path d="M 14.003168132696942 100.73817937305945 a86.0,86.0 0 0,1 10.791469493833604,-42.45332614584628" fill="none" id="id70" stroke="none" /><text fill="#e1ed5e" style="font-size:6.75px; font-family:Arial;" text-anchor="middle"><textPath startOffset="22.145653131862435" xlink:href="#id70">October</textPath></text><line stroke="#e1ed5e" stroke-width="0.3" x1="26.387840678322718" x2="22.05771365940052" y1="57.49999999999999" y2="54.99999999999999" /><path d="M 25.521815274538284 56.99999999999999 a86.0,86.0 0 0,1 29.574782752854787,-30.34633250058573" fill="none" id="id71" stroke="none" /><text fill="#e1ed5e" style="font-size:6.75px; font-family:Arial;" text-anchor="middle"><textPath startOffset="21.40746469413373" xlink:href="#id71">November</textPath></text><line stroke="#e1ed5e" stroke-width="0.3" x1="56.869717070023135" x2="54.33264160355391" y1="26.7553504044142" y2="22.446841604673864" /><path d="M 56.362301976729285 25.89364864446614 a86.0,86.0 0 0,1 42.16139366436587,-11.88097634709845" fill="none" id="id72" stroke="none" /><text fill="#e1ed5e" style="font-size:6.75px; font-family:Arial;" text-anchor="middle"><textPath startOffset="22.145653131862474" xlink:href="#id72">December</textPath></text></svg>