<?xml version="1.0" encoding="utf-8" ?>
<svg baseProfile="full" height="200mm" version="1.1" viewBox="0,0,200,200" width="200mm" xmlns="http://www.w3.org/2000/svg" xmlns:ev="http://www.w3.org/2001/xml-events" xmlns:xlink="http://www.w3.org/1999/xlink"><defs /><rect fill="#1a1a1a" height="200" width="200" x="0" y="0" /><text alignment-baseline="middle" fill="#e1ed5e" style="dominant-baseline: central; font-size:9.0px; font-family:Arial;" text-anchor="middle" x="100.0" y="100.0">2021</text><line stroke="#e1ed5e" stroke-width="0.3" x1="100.0" x2="100.0" y1="15.0" y2="10.0" /><path d="M 100.0 14.0 a86.0,86.0 0 0,1 42.46469731375804,11.215312516191453" fill="none" id="id25" stroke="none" /><text fill="#e1ed5e" style="font-size:6.75px; font-family:Arial;" text-anchor="middle"><textPath startOffset="22.20632615414155" xlink:href="#id25">January</textPath></text><line stroke="#e1ed5e" stroke-width="0.3" x1="143.23703022742887" x2="145.7803849466894" y1="26.81831364943548" y2="22.513508569990506" /><path d="M 143.74570117128098 25.957352633546492 a86.0,86.0 0 0,1 28.547481713284135,27.462654790039103" fill="none" id="id26" stroke="none" /><text fill="#e1ed5e" style="font-size:6.75px; font-family:Arial;" text-anchor="middle"><textPath startOffset="19.985693538727396" xlink:href="#id26">February</textPath></text><line stroke="#e1ed5e" stroke-width="0.3" x1="172.23445277983987" x2="176.4835382374775" y1="55.19839476539836" y2="52.563006222186495" /><path d="M 173.08426987136738 54.67131705675599 a86.0,86.0 0 0,1 12.851231095245387,41.99856678651699" fill="none" id="id27" stroke="none" /><text fill="#e1ed5e" style="font-size:6.75px; font-family:Arial;" text-anchor="middle"><textPath startOffset="22.20632615414155" xlink:href="#id27">March</textPath></text><line stroke="#e1ed5e" stroke-width="0.3" x1="184.98032266829074" x2="189.97916517819016" y1="98.17113171792111" y2="98.06355123074" /><path d="M 185.9800911702706 98.14961562048488 a86.0,86.0 0 0,1 -9.607161424134198,41.387399972396054" fill="none" id="id28" stroke="none" /><text fill="#e1ed5e" style="font-size:6.75px; font-family:Arial;" text-anchor="middle"><textPath startOffset="21.466115282336823" xlink:href="#id28">April</textPath></text><line stroke="#e1ed5e" stroke-width="0.3" x1="174.80103733775053" x2="179.2010983576182" y1="140.37084112569926" y2="142.7455964860345" /><path d="M 175.68104954172406 140.8457921977663 a86.0,86.0 0 0,1 -30.038265399797805,32.042727171017184" fill="none" id="id29" stroke="none" /><text fill="#e1ed5e" style="font-size:6.75px; font-family:Arial;" text-anchor="middle"><textPath startOffset="22.206326154141568" xlink:href="#id29">May</textPath></text><line stroke="#e1ed5e" stroke-width="0.3" x1="143.8653032363475" x2="146.44561519142675" y1="172.8068346515853" y2="177.08958963109032" /><path d="M 144.38136562736335 173.6633856474863 a86.0,86.0 0 0,1 -40.68145358897372,12.25698825130547" fill="none" id="id30" stroke="none" /><text fill="#e1ed5e" style="font-size:6.75px; font-family:Arial;" text-anchor="middle"><textPath startOffset="21.466115282336833" xlink:href="#id30">June</textPath></text><path d="M 109.57404056367764 118.69057910512821 l 8.472592638184988 16.540316690354 a39.58404967249683,39.58404967249683 0 0,0 -0.6091157604647074,0.3054232873327664 l -8.186622970037519 -16.68370781859607" fill="#ff910d" stroke="none" /><path d="M 106.91757812671514 119.82793768551818 l 7.900060770534415 22.64403954687906 a44.98256631761413,44.98256631761413 0 0,0 -0.7332806638417974,0.24876861398975245 l -7.509110373755391 -22.776671147766937" fill="#ffe215" stroke="none" /><path d="M 103.7750983002368 120.6578951692458 l 2.372678326692933 12.98364605236624 a34.19866157059434,34.19866157059434 0 0,0 -0.5799946901260216,0.10083951129191623 l -2.1488346650948618 -13.022564142179162" fill="#ff3b05" stroke="none" /><path d="M 103.41894727170886 120.7198165907248 l 2.6570545874690534 16.102524943704605 a37.32027109589235,37.32027109589235 0 0,0 -0.6347363045647815,0.09913275676160758 l -2.379482419295755 -16.14587600781332" fill="#ff6e0a" stroke="none" /><path d="M 103.06178313531738 120.77559828337769 l 2.383223675453487 16.171262141178442 a37.34593143035762,37.34593143035762 0 0,0 -0.6367862038432468,0.08825276544356987 l -2.1045088804234098 -16.209889472114615" fill="#ff6e0a" stroke="none" /><path d="M 102.70371172650421 120.8252237178851 l 2.099015483385998 16.167576816828994 a37.303263664909565,37.303263664909565 0 0,0 -0.6374818266676147,0.0771901713989273 l -1.820406233667003 -16.201312516953273" fill="#ff6d0a" stroke="none" /><path d="M 101.62511606390274 120.93702456842531 l 1.4213675501294456 18.312050430635505 a39.36713033347068,39.36713033347068 0 0,0 -0.6760596761675663,0.046625033477932516 l -1.105945113182949 -18.33380380862972" fill="#ff8e0d" stroke="none" /><path d="M 101.26447882468166 120.96189622390904 l 1.2103107444268326 20.06392493741004 a41.100396413804866,41.100396413804866 0 0,0 -0.7065587380152091,0.036521016153890626 l -0.864763937998144 -20.081785760326134" fill="#ffa80f" stroke="none" /><path d="M 100.90346689309514 120.98055641714683 l 0.8563173229222485 19.885636144343373 a40.90406501754735,40.90406501754735 0 0,0 -0.7037050583150793,0.024237025057405114 l -0.5138919129325169 -19.897429967826874" fill="#ffa50f" stroke="none" /><line stroke="#e1ed5e" stroke-width="0.3" x1="102.19456741930631" x2="102.32365962044197" y1="184.97166512339345" y2="189.96999836594603" /><path d="M 102.22038585953345 185.97133177190398 a86.0,86.0 0 0,1 -42.740103519485714,-10.115201625700543" fill="none" id="id31" stroke="none" /><text fill="#e1ed5e" style="font-size:6.75px; font-family:Arial;" text-anchor="middle"><textPath startOffset="22.20632615414155" xlink:href="#id31">July</textPath></text><path d="M 100.54218724476979 120.99299961872073 l 0.5163801765272461 19.993773283165478 a41.00044045978318,41.00044045978318 0 0,0 -0.7056767578248208,0.012148865348831542 l -0.17214372880975737 -19.99969962579347" fill="#ffa70f" stroke="none" /><path d="M 99.45781275523022 120.99299961872073 l -0.520909894773984 20.169159875794282 a41.17588553728989,41.17588553728989 0 0,0 -0.7083814022093926,-0.02439808779640894 l 0.8680116486580196 -20.15720498957178" fill="#ffa90f" stroke="none" /><path d="M 99.09653310690486 120.98055641714683 l -0.8629411122522769 20.039455600038057 a41.058027024338955,41.058027024338955 0 0,0 -0.7058303639613227,-0.03648336753509056 l 1.2077595446270886 -20.021632425740766" fill="#ffa80f" stroke="none" /><path d="M 98.73552117531835 120.96189622390904 l -1.210921595083092 20.074051313443526 a41.11054119719811,41.11054119719811 0 0,0 -0.7059996228686469,-0.0486898674955132 l 1.556283978730669 -20.05023310143173" fill="#ffa80f" stroke="none" /><path d="M 98.37488393609728 120.93702456842531 l -1.5587084567390772 20.081468627776687 a41.141870675324306,41.141870675324306 0 0,0 -0.7055942144028897,-0.060881637804296854 l 1.9041469888835085 -20.051662737693725" fill="#ffa90f" stroke="none" /><path d="M 97.65516085044442 120.86867818915974 l -2.239226269600891 19.92874113427794 a41.05414813657095,41.05414813657095 0 0,0 -0.7015813302952962,-0.08495172861456696 l 2.581935022947577 -19.887243876938022" fill="#ffa70f" stroke="none" /><path d="M 96.58105272829116 120.7198165907248 l -3.2780233570837707 19.86577660934214 a41.13441127577045,41.13441127577045 0 0,0 -0.6976220420836834,-0.1212905341855837 l 3.619494370639504 -19.806407496635554" fill="#ffa90f" stroke="none" /><path d="M 96.22490169976321 120.6578951692458 l -4.191973081632916 22.939095511033763 a44.31897813330302,44.31897813330302 0 0,0 -0.7492701203053075,-0.14359940183442454 l 4.586210816509919 -22.86353891085087" fill="#ffd814" stroke="none" /><path d="M 95.86986931433489 120.58985236759428 l -4.0094795342218505 19.988372757077606 a41.386538980690815,41.386538980690815 0 0,0 -0.6972814701549492,-0.14612211161171879 l 4.352952465806187 -19.916394664739347" fill="#ffac10" stroke="none" /><path d="M 95.51606077576429 120.51570834832081 l -4.172335996862746 19.090006389956525 a40.54064307128344,40.54064307128344 0 0,0 -0.6804647530134889,-0.15487156238283234 l 4.500320899269097 -19.015358093996003" fill="#ffa00e" stroke="none" /><path d="M 95.16358092515715 120.4354850818985 l -4.571787287041885 19.31732743920529 a40.85095409272389,40.85095409272389 0 0,0 -0.6828853928265057,-0.16783661503769265 l 4.903625964611601 -19.235769565853566" fill="#ffa40f" stroke="none" /><path d="M 94.11515582081647 120.15858648285463 l -5.611258834356261 19.221417431947422 a41.02371378639121,41.02371378639121 0 0,0 -0.6761587610890808,-0.20372108810124592 l 5.941292569885587 -19.121980974740453" fill="#ffa70f" stroke="none" /><path d="M 93.76903079525671 120.05430185196036 l -5.954572366715861 19.164721846251144 a41.06847018371435,41.06847018371435 0 0,0 -0.6732856035248571,-0.21556478859007383 l 6.283579315331659 -19.059384211001365" fill="#ffa80f" stroke="none" /><path d="M 93.42475214034765 119.94407469862007 l -6.280589759464183 19.050316275189772 a41.05892215228542,41.05892215228542 0 0,0 -0.6693196088429296,-0.22706955142613894 l 6.607579101244339 -18.93938373686551" fill="#ffa80f" stroke="none" /><path d="M 93.08242187328487 119.8279376855182 l -6.575537350355476 18.847542079522213 a40.96165158210313,40.96165158210313 0 0,0 -0.6637356570328622,-0.23799199202842408 l 6.898992568018064 -18.73156254645383" fill="#ffa60f" stroke="none" /><path d="M 92.7421414339146 119.70592522655815 l -6.957669221150337 18.8908764444364 a41.13142751594891,41.13142751594891 0 0,0 -0.6622743097991537,-0.2504154754060116 l 7.281813751709774 -18.768312718923756" fill="#ffa90f" stroke="none" /><path d="M 91.40352486487194 119.15986991738527 l -8.222109947234056 18.325482777435777 a41.085477614697155,41.085477614697155 0 0,0 -0.64275687169568,-0.2950581545617278 l 8.536334814697156 -18.181237552539976" fill="#ffa80f" stroke="none" /><path d="M 90.7491055286396 118.85261126421891 l -8.839486567304496 18.01419360523417 a41.06608317585712,41.06608317585712 0 0,0 -0.6319211573834744,-0.3168583867801102 l 9.148261632370732 -17.859367377544757" fill="#ffa80f" stroke="none" /><path d="M 90.10565033884886 118.52300852407294 l -11.417563008198956 21.374584906311465 a45.23290376664157,45.23290376664157 0 0,0 -0.6836138956415752,-0.3727608021365821 l 11.783799715709172 -21.17488345241512" fill="#ffe515" stroke="none" /><line stroke="#e1ed5e" stroke-width="0.3" x1="58.666819895761336" x2="56.23545636021788" y1="174.27360380694188" y2="178.64263932499728" /><path d="M 58.180547188652646 175.14741091055294 a86.0,86.0 0 0,1 -31.652253787137756,-30.449443065178592" fill="none" id="id32" stroke="none" /><text fill="#e1ed5e" style="font-size:6.75px; font-family:Arial;" text-anchor="middle"><textPath startOffset="22.20632615414155" xlink:href="#id32">August</textPath></text><path d="M 88.8546689885994 117.79835938074946 l -10.53993182047429 16.831576755998388 a40.85930862022421,40.85930862022421 0 0,0 -0.592884518683968,-0.378406951184227 l 10.828098141205182 -16.647655375990357" fill="#ffa40f" stroke="none" /><path d="M 88.54995079064634 117.60387380957326 l -10.902771314179326 16.76246161742759 a40.99626319603302,40.99626319603302 0 0,0 -0.5882481599085936,-0.38985880419566404 l 11.18969417282788 -16.572304792140606" fill="#ffa70f" stroke="none" /><path d="M 86.79598089348748 116.32954008644616 l -12.645886132529851 15.639291556911529 a41.11233145309104,41.11233145309104 0 0,0 -0.5464609425585452,-0.4497001528541175 l 12.913217203633085 -15.41929628520023" fill="#ffa80f" stroke="none" /><path d="M 86.24171649860922 115.8653595955263 l -10.830535785383196 12.489228385935675 a37.53122291527543,37.53122291527543 0 0,0 -0.48443452266442455,-0.4274571420152122 l 11.043912660954208 -12.300948102148174" fill="#ff710a" stroke="none" /><path d="M 85.97065885151581 115.62618273729859 l -32.24230873058522 35.9121788232342 a69.26231511345392,69.26231511345392 0 0,0 -0.8802925289880731,-0.8041263536961899 l 32.855700809040144 -35.35185970295144" fill="#38ff7e" stroke="none" /><path d="M 84.9287848128048 114.62390073753433 l -12.021468143305023 11.664670344332128 a37.75052926215882,37.75052926215882 0 0,0 -0.4485004634707421,-0.470250942867849 l 12.220475158154724 -11.456012284881778" fill="#ff740a" stroke="none" /><path d="M 84.19399662182784 113.82643327865904 l -47.4180101345165 41.4792998359771 a84.0,84.0 0 0,0 -0.942629961716885,-1.0964916033538787 l 48.12498260580416 -40.65693113346169" fill="#4dd2ff" stroke="none" /><path d="M 83.50135304334701 112.99209946851258 l -17.277152612199863 13.60514506796315 a42.990906636734344,42.990906636734344 0 0,0 -0.45282359379333975,-0.5853355362126172 l 17.508783023211272 -13.30573153763728" fill="#ffc412" stroke="none" /><path d="M 83.06392112726016 112.41649034213515 l -16.680044034920037 12.228781362097465 a41.68252795498785,41.68252795498785 0 0,0 -0.41924724804581326,-0.5822977591350917 l 16.888071075341458 -11.939849997511235" fill="#ffb110" stroke="none" /><path d="M 82.6465618267979 111.8261652097733 l -24.953287916919983 17.005373948791533 a51.19684289794121,51.19684289794121 0 0,0 -0.4900193540600422,-0.7325124476207248 l 25.242310376390755 -16.573324586964986" fill="#c6ff1e" stroke="none" /><path d="M 82.44556493220864 111.52570212397912 l -25.442095865220136 16.70449759390304 a51.43584205964678,51.43584205964678 0 0,0 -0.4795660820659639,-0.7442972091323116 l 25.725866810663145 -16.264078784849282" fill="#c3ff1e" stroke="none" /><path d="M 82.24976979558568 111.22182372390057 l -8.215985129071841 5.194205132827165 a30.720194370639803,30.720194370639803 0 0,0 -0.2787277763752518,-0.44939792437298604 l 8.30417754511505 -5.0520108770889145" fill="#ff0100" stroke="none" /><line stroke="#e1ed5e" stroke-width="0.3" x1="26.63291911575756" x2="22.317208475507996" y1="142.92168965132927" y2="145.44649492493687" /><path d="M 25.769776987707644 143.4266507060508 a86.0,86.0 0 0,1 -11.730757126820373,-40.83630448921669" fill="none" id="id33" stroke="none" /><text fill="#e1ed5e" style="font-size:6.75px; font-family:Arial;" text-anchor="middle"><textPath startOffset="21.46611528233685" xlink:href="#id33">September</textPath></text><path d="M 81.87401531095188 110.60418214915194 l -26.163320478193132 15.306236915505556 a51.3117176510706,51.3117176510706 0 0,0 -0.43944333302561334,-0.7662064919189405 l 26.422915807371123 -14.853610577728308" fill="#c4ff1e" stroke="none" /><path d="M 80.87730276802145 108.67885076344099 l -15.4878605065923 7.029177335764296 a38.008326110740114,38.008326110740114 0 0,0 -0.2652599545699925,-0.5980911709724845 l 15.606561545893573 -6.761537828299115" fill="#ff780b" stroke="none" /><path d="M 80.0844068197444 106.66101706037122 l -23.869509485902178 7.983453390979871 a46.16920759864168,46.16920759864168 0 0,0 -0.2455932501527495,-0.7558583028364841 l 24.003394987071175 -7.571396188165583" fill="#fff316" stroke="none" /><path d="M 79.86692584326677 105.97154293290107 l -18.68619091999666 5.542392108749479 a40.490814282263685,40.490814282263685 0 0,0 -0.19244197161177215,-0.6699157491954407 l 18.778825528494533 -5.219918884049442" fill="#ff9f0e" stroke="none" /><path d="M 79.29508885075956 103.50808413554451 l -23.054846931058428 3.906239547867856 a44.38342734544834,44.38342734544834 0 0,0 -0.12114191385115299,-0.7543508131901289 l 23.118670599270875 -3.5088095049845136" fill="#ffd914" stroke="none" /><line stroke="#e1ed5e" stroke-width="0.3" x1="15.007084014347285" x2="10.007500721073583" y1="101.09737516637583" y2="101.16192664675087" /><path d="M 14.007167355692545 101.11028546245083 a86.0,86.0 0 0,1 10.666146001902534,-42.60595125391555" fill="none" id="id34" stroke="none" /><text fill="#e1ed5e" style="font-size:6.75px; font-family:Arial;" text-anchor="middle"><textPath startOffset="22.20632615414155" xlink:href="#id34">October</textPath></text><line stroke="#e1ed5e" stroke-width="0.3" x1="26.266209847984243" x2="21.928928074336255" y1="57.711370442889674" y2="55.22380399835377" /><path d="M 25.398753493254645 57.213857153982495 a86.0,86.0 0 0,1 29.58750427330803,-30.492523968695096" fill="none" id="id35" stroke="none" /><text fill="#e1ed5e" style="font-size:6.75px; font-family:Arial;" text-anchor="middle"><textPath startOffset="21.46611528233685" xlink:href="#id35">November</textPath></text><path d="M 88.39885842347998 82.49532879139004 l -8.320791503143331 -12.555033355744174 a36.06201957914778,36.06201957914778 0 0,0 0.520380049966401,-0.3384696598109495 l 8.103444427392644 12.696401939714658" fill="#ff5a08" stroke="none" /><path d="M 89.00827224532344 82.1063720568725 l -5.681477444017256 -9.248977578366821 a31.854619854790357,31.854619854790357 0 0,0 0.46968565110759686,-0.2829803494437108 l 5.52142972669201 9.345404537269152" fill="#ff1502" stroke="none" /><line stroke="#e1ed5e" stroke-width="0.3" x1="56.762969772571076" x2="54.21961505331055" y1="26.818313649435495" y2="22.513508569990535" /><path d="M 56.25429882871897 25.957352633546506 a86.0,86.0 0 0,1 42.265352541879196,-11.944610805530505" fill="none" id="id36" stroke="none" /><text fill="#e1ed5e" style="font-size:6.75px; font-family:Arial;" text-anchor="middle"><textPath startOffset="22.20632615414155" xlink:href="#id36">December</textPath></text><path d="M 90.26544431104013 81.39251694778311 l -6.092793689410091 -11.646299937954941 a34.143760389877954,34.143760389877954 0 0,0 0.5231141342726389,-0.2679593774376523 l 5.891419067548688 11.749451840705099" fill="#ff3b05" stroke="none" /><path d="M 93.59665428221793 80.00007090966166 l -2.9376000132954605 -9.175171004516057 a30.63396371179722,30.63396371179722 0 0,0 0.503585350721959,-0.15646641979718984 l 2.779229289862773 9.224377559195773" fill="#ff0000" stroke="none" /><path d="M 95.33964822691252 79.52364482259891 l -4.468921174261154 -19.63525967125786 a41.13739503559199,41.13739503559199 0 0,0 0.691808112675721,-0.15120245810694014 l 4.130270337431912 19.70927562746067" fill="#ffa90f" stroke="none" /><path d="M 96.40284397218896 79.31037775812273 l -2.6894466878766212 -15.468785780108615 a36.70084255694009,36.70084255694009 0 0,0 0.6233389833407424,-0.10285627322572855 l 2.422778498396993 15.51278831627397" fill="#ff6409" stroke="none" /></svg>