<?xml version="1.0" encoding="utf-8" ?>
<svg baseProfile="full" height="200mm" version="1.1" viewBox="0,0,200,200" width="200mm" xmlns="http://www.w3.org/2000/svg" xmlns:ev="http://www.w3.org/2001/xml-events" xmlns:xlink="http://www.w3.org/1999/xlink"><defs /><rect fill="#1a1a1a" height="200" width="200" x="0" y="0" /><text alignment-baseline="middle" fill="#e1ed5e" style="dominant-baseline: central; font-size:9.0px; font-family:Arial;" text-anchor="middle" x="100.0" y="100.0">2019</text><line stroke="#e1ed5e" stroke-width="0.3" x1="100.0" x2="100.0" y1="15.0" y2="10.0" /><path d="M 100.0 14.0 a86.0,86.0 0 0,1 42.46469731375804,11.215312516191453" fill="none" id="id1" stroke="none" /><text fill="#e1ed5e" style="font-size:6.75px; font-family:Arial;" text-anchor="middle"><textPath startOffset="22.20632615414155" xlink:href="#id1">January</textPath></text><line stroke="#e1ed5e" stroke-width="0.3" x1="143.23703022742887" x2="145.7803849466894" y1="26.81831364943548" y2="22.513508569990506" /><path d="M 143.74570117128098 25.957352633546492 a86.0,86.0 0 0,1 28.547481713284135,27.462654790039103" fill="none" id="id2" stroke="none" /><text fill="#e1ed5e" style="font-size:6.75px; font-family:Arial;" text-anchor="middle"><textPath startOffset="19.985693538727396" xlink:href="#id2">February</textPath></text><line stroke="#e1ed5e" stroke-width="0.3" x1="172.23445277983987" x2="176.4835382374775" y1="55.19839476539836" y2="52.563006222186495" /><path d="M 173.08426987136738 54.67131705675599 a86.0,86.0 0 0,1 12.851231095245387,41.99856678651699" fill="none" id="id3" stroke="none" /><text fill="#e1ed5e" style="font-size:6.75px; font-family:Arial;" text-anchor="middle"><textPath startOffset="22.20632615414155" xlink:href="#id3">March</textPath></text><line stroke="#e1ed5e" stroke-width="0.3" x1="184.98032266829074" x2="189.97916517819016" y1="98.17113171792111" y2="98.06355123074" /><path d="M 185.9800911702706 98.14961562048488 a86.0,86.0 0 0,1 -9.607161424134198,41.387399972396054" fill="none" id="id4" stroke="none" /><text fill="#e1ed5e" style="font-size:6.75px; font-family:Arial;" text-anchor="middle"><textPath startOffset="21.466115282336823" xlink:href="#id4">April</textPath></text><line stroke="#e1ed5e" stroke-width="0.3" x1="174.80103733775053" x2="179.2010983576182" y1="140.37084112569926" y2="142.7455964860345" /><path d="M 175.68104954172406 140.8457921977663 a86.0,86.0 0 0,1 -30.038265399797805,32.042727171017184" fill="none" id="id5" stroke="none" /><text fill="#e1ed5e" style="font-size:6.75px; font-family:Arial;" text-anchor="middle"><textPath startOffset="22.206326154141568" xlink:href="#id5">May</textPath></text><line stroke="#e1ed5e" stroke-width="0.3" x1="143.8653032363475" x2="146.44561519142675" y1="172.8068346515853" y2="177.08958963109032" /><path d="M 144.38136562736335 173.6633856474863 a86.0,86.0 0 0,1 -40.68145358897372,12.25698825130547" fill="none" id="id6" stroke="none" /><text fill="#e1ed5e" style="font-size:6.75px; font-family:Arial;" text-anchor="middle"><textPath startOffset="21.466115282336833" xlink:href="#id6">June</textPath></text><line stroke="#e1ed5e" stroke-width="0.3" x1="102.19456741930631" x2="102.32365962044197" y1="184.97166512339345" y2="189.96999836594603" /><path d="M 102.22038585953345 185.97133177190398 a86.0,86.0 0 0,1 -42.740103519485714,-10.115201625700543" fill="none" id="id7" stroke="none" /><text fill="#e1ed5e" style="font-size:6.75px; font-family:Arial;" text-anchor="middle"><textPath startOffset="22.20632615414155" xlink:href="#id7">July</textPath></text><line stroke="#e1ed5e" stroke-width="0.3" x1="58.666819895761336" x2="56.23545636021788" y1="174.27360380694188" y2="178.64263932499728" /><path d="M 58.180547188652646 175.14741091055294 a86.0,86.0 0 0,1 -31.652253787137756,-30.449443065178592" fill="none" id="id8" stroke="none" /><text fill="#e1ed5e" style="font-size:6.75px; font-family:Arial;" text-anchor="middle"><textPath startOffset="22.20632615414155" xlink:href="#id8">August</textPath></text><line stroke="#e1ed5e" stroke-width="0.3" x1="26.63291911575756" x2="22.317208475507996" y1="142.92168965132927" y2="145.44649492493687" /><path d="M 25.769776987707644 143.4266507060508 a86.0,86.0 0 0,1 -11.730757126820373,-40.83630448921669" fill="none" id="id9" stroke="none" /><text fill="#e1ed5e" style="font-size:6.75px; font-family:Arial;" text-anchor="middle"><textPath startOffset="21.46611528233685" xlink:href="#id9">September</textPath></text><path d="M 80.73074385275274 108.34839909993369 l -35.24318540384428 15.269098872105738 a59.40869039391845,59.40869039391845 0 0,0 -0.3984597976492121,-0.941841258521315 l 35.5007961826858 -14.660183087918265" fill="#ffb510" stroke="none" /><path d="M 80.0844068197444 106.66101706037122 l -47.994583876087646 16.052383632789915 a71.60789564616448,71.60789564616448 0 0,0 -0.38091223009982644,-1.172327299686953 l 48.26378835720372 -15.22385743312516" fill="#36ff2e" stroke="none" /><path d="M 79.29508885075956 103.50808413554451 l -37.04264094141493 6.276225968253742 a58.57057705597789,58.57057705597789 0 0,0 -0.15986489156645184,-0.9954788323872673 l 37.145187587342676 -5.637667906173261" fill="#ffa00e" stroke="none" /><path d="M 79.04373962182676 101.35467743843564 l -36.7331962105661 2.374547330969039 a57.80986523842433,57.80986523842433 0 0,0 -0.05564515862707581,-0.993581687589721 l 36.76862772008071 -1.7418939270438805" fill="#ff8c0c" stroke="none" /><line stroke="#e1ed5e" stroke-width="0.3" x1="15.007084014347285" x2="10.007500721073583" y1="101.09737516637583" y2="101.16192664675087" /><path d="M 14.007167355692545 101.11028546245083 a86.0,86.0 0 0,1 10.666146001902534,-42.60595125391555" fill="none" id="id10" stroke="none" /><text fill="#e1ed5e" style="font-size:6.75px; font-family:Arial;" text-anchor="middle"><textPath startOffset="22.20632615414155" xlink:href="#id10">October</textPath></text><path d="M 79.00175016825051 100.2711162175752 l -36.454891747466284 0.4706826731693921 a57.45793020041466,57.45793020041466 0 0,0 -0.0042565456072538935,-0.9890712937849854 l 36.45759259036304 0.15689809881926864" fill="#ff820c" stroke="none" /><path d="M 79.00019446554 99.90962569577889 l -36.61904582918188 -0.157592925449856 a57.619384934346925,57.619384934346925 0 0,0 0.012805202827152614,-0.9917770707915765 l 36.61090761923701 0.7879062543019044" fill="#ff870c" stroke="none" /><path d="M 79.00486145842228 99.54816195383935 l -49.91605070329144 -1.074247296685674 a70.92760884588805,70.92760884588805 0 0,0 0.03677530841164386,-1.2203934498943996 l 49.89016370042415 1.9333108940050678" fill="#44ff2d" stroke="none" /><path d="M 79.03285615573316 98.82574320788736 l -61.320805450553074 -3.43424802314308 a82.41689702833449,82.41689702833449 0 0,0 0.0915196823786141,-1.4157689788268837 l 61.25260517717005 4.489276066222976" fill="#49efff" stroke="none" /><path d="M 79.08570108090925 98.10471618934814 l -48.44892978985063 -4.390511612621833 a69.6474602626123,69.6474602626123 0 0,0 0.11847654616729865,-1.1930426514644041 l 48.3661761180011 5.223829794790668" fill="#5dff2a" stroke="none" /><path d="M 79.46518482838121 95.60439243477599 l -61.1999933846621 -13.10024714929408 a83.58638562543193,83.58638562543193 0 0,0 0.3132722723301759,-1.4043381703365654 l 60.965426725329884 14.151763489180604" fill="#4cd9ff" stroke="none" /><path d="M 79.54389044137918 95.25157060432595 l -47.36630781897539 -10.995031472999809 a69.62569108500347,69.62569108500347 0 0,0 0.28104642205625224,-1.1651188620567092 l 47.17002859665833 11.808735566715916" fill="#5eff2a" stroke="none" /><path d="M 79.62865764111835 94.90015583598534 l -60.35966327010491 -15.110682008430647 a83.22235659986177,83.22235659986177 0 0,0 0.3598521547459421,-1.3866571451685112 l 60.09061478348866 16.147435579148024" fill="#4be0ff" stroke="none" /><path d="M 79.71946130924805 94.55025226153421 l -60.51283401504286 -16.260893527054925 a83.65955425017277,83.65955425017277 0 0,0 0.38568341047323645,-1.3875084336354733 l 60.223963834003264 17.300113264109342" fill="#4cd8ff" stroke="none" /><path d="M 79.81627453868168 94.20196356495316 l -59.824101961238135 -17.185247764589867 a83.2435210780926,83.2435210780926 0 0,0 0.40747347954691626,-1.3737980071148543 l 59.51942258457951 18.21247515845126" fill="#4be0ff" stroke="none" /><path d="M 79.91906864156998 93.8553929516997 l -60.24279407529007 -18.433821144900918 a84.0,84.0 0 0,0 0.4349780649271846,-1.378999334294342 l 59.91656052659468 19.468070645621676" fill="#4dd2ff" stroke="none" /><path d="M 80.02781315780177 93.51064311812611 l -58.94521108014015 -19.15246007854367 a82.97866275051831,82.97866275051831 0 0,0 0.45307419191304066,-1.3546341654483467 l 58.60679959445534 20.164267346914336" fill="#4ae5ff" stroke="none" /><path d="M 80.14247586403 93.16781622104843 l -58.80235572364511 -20.23155042835875 a83.18546993780237,83.18546993780237 0 0,0 0.47751200582810854,-1.3499907429343256 l 58.44539063700719 21.24073879771969" fill="#4be1ff" stroke="none" /><path d="M 80.2630227832202 92.82701384747504 l -58.67044946498013 -21.32253165985974 a83.42493089149966,83.42493089149966 0 0,0 0.5021204032978276,-1.3454330422798615 l 58.29472447318068 22.329287839168945" fill="#4cdcff" stroke="none" /><path d="M 80.38941819471856 92.48833698450439 l -57.64589475381105 -22.08075925114762 a82.73013130615065,82.73013130615065 0 0,0 0.5208312846575119,-1.3254588096694544 l 57.25726991927184 23.06976706571284" fill="#4ae9ff" stroke="none" /><path d="M 80.52162464483688 92.15188598940014 l -57.75589568783726 -23.27067046802288 a83.26770905321354,83.26770905321354 0 0,0 0.5471018110482437,-1.3248504311796987 l 57.346772189902815 24.26139546965589" fill="#4bdfff" stroke="none" /><path d="M 80.65960295795068 91.81776055985345 l -57.448129949107305 -24.30427636052513 a83.37776434001383,83.37776434001383 0 0,0 0.570579015628935,-1.316975035906644 l 57.021260223635686 25.28955054101837" fill="#4bddff" stroke="none" /><path d="M 80.803312248108 91.48605970444005 l -56.845478528602825 -25.21158944294224 a83.18546993780237,83.18546993780237 0 0,0 0.5917960224296399,-1.3039440898882897 l 56.40308018920983 26.1863555416726" fill="#4be1ff" stroke="none" /><path d="M 80.95270993114464 91.15688171328213 l -56.314776408367685 -26.14535859269305 a83.08811333794057,83.08811333794057 0 0,0 0.6134348172474077,-1.2920501705058833 l 55.85638339727853 27.110851178839468" fill="#4be3ff" stroke="none" /><path d="M 81.10775173730289 90.83032412892265 l -32.91292075965901 -15.974849109538422 a57.584917069799594,57.584917069799594 0 0,0 0.44049715867482886,-0.8880153923874798 l 32.63306358803077 16.539024090424864" fill="#ff860c" stroke="none" /><line stroke="#e1ed5e" stroke-width="0.3" x1="26.266209847984243" x2="21.928928074336255" y1="57.711370442889674" y2="55.22380399835377" /><path d="M 25.398753493254645 57.213857153982495 a86.0,86.0 0 0,1 29.58750427330803,-30.492523968695096" fill="none" id="id11" stroke="none" /><text fill="#e1ed5e" style="font-size:6.75px; font-family:Arial;" text-anchor="middle"><textPath startOffset="21.46611528233685" xlink:href="#id11">November</textPath></text><path d="M 81.96595687620814 89.24020034530311 l -27.28578558789794 -16.279742946797786 a52.77332411886662,52.77332411886662 0 0,0 0.47215589875504704,-0.7761001525187802 l 27.00151389085668 16.747010872523642" fill="#ff0000" stroke="none" /><line stroke="#e1ed5e" stroke-width="0.3" x1="56.762969772571076" x2="54.21961505331055" y1="26.818313649435495" y2="22.513508569990535" /><path d="M 56.25429882871897 25.957352633546506 a86.0,86.0 0 0,1 42.265352541879196,-11.944610805530505" fill="none" id="id12" stroke="none" /><text fill="#e1ed5e" style="font-size:6.75px; font-family:Arial;" text-anchor="middle"><textPath startOffset="22.20632615414155" xlink:href="#id12">December</textPath></text></svg>