<?xml version="1.0" encoding="utf-8" ?>
<svg baseProfile="full" height="200mm" version="1.1" viewBox="0,0,200,200" width="200mm" xmlns="http://www.w3.org/2000/svg" xmlns:ev="http://www.w3.org/2001/xml-events" xmlns:xlink="http://www.w3.org/1999/xlink"><defs /><rect fill="#1a1a1a" height="200" width="200" x="0" y="0" /><text alignment-baseline="middle" fill="#e1ed5e" style="dominant-baseline: central; font-size:9.0px; font-family:Arial;" text-anchor="middle" x="100.0" y="100.0">2022</text><line stroke="#e1ed5e" stroke-width="0.3" x1="100.0" x2="100.0" y1="15.0" y2="10.0" /><path d="M 100.0 14.0 a86.0,86.0 0 0,1 42.46469731375804,11.215312516191453" fill="none" id="id37" stroke="none" /><text fill="#e1ed5e" style="font-size:6.75px; font-family:Arial;" text-anchor="middle"><textPath startOffset="22.20632615414155" xlink:href="#id37">January</textPath></text><line stroke="#e1ed5e" stroke-width="0.3" x1="143.23703022742887" x2="145.7803849466894" y1="26.81831364943548" y2="22.513508569990506" /><path d="M 143.74570117128098 25.957352633546492 a86.0,86.0 0 0,1 28.547481713284135,27.462654790039103" fill="none" id="id38" stroke="none" /><text fill="#e1ed5e" style="font-size:6.75px; font-family:Arial;" text-anchor="middle"><textPath startOffset="19.985693538727396" xlink:href="#id38">February</textPath></text><path d="M 114.16331599549186 84.49514656593476 l 19.040533681089737 -20.844037097361028 a49.23146835318481,49.23146835318481 0 0,0 0.6207668899584207,0.5769351705966786 l -19.396508454843005 20.513197340689707" fill="#dbff1b" stroke="none" /><path d="M 115.9244219780498 86.31012108654704 l 21.4238985331927 -18.417659188997987 a49.25232022971951,49.25232022971951 0 0,0 0.5471449319393957,0.6476470210208737 l -21.737754078619208 18.046153218348007" fill="#daff1b" stroke="none" /><path d="M 117.45458315368197 88.32363383020206 l 23.470319832723717 -15.700635533730496 a49.237667559722155,49.237667559722155 0 0,0 0.4651866148084203,0.7085111289724055 l -23.737103082890062 15.294306340780418" fill="#dbff1b" stroke="none" /><line stroke="#e1ed5e" stroke-width="0.3" x1="172.23445277983987" x2="176.4835382374775" y1="55.19839476539836" y2="52.563006222186495" /><path d="M 173.08426987136738 54.67131705675599 a86.0,86.0 0 0,1 12.851231095245387,41.99856678651699" fill="none" id="id39" stroke="none" /><text fill="#e1ed5e" style="font-size:6.75px; font-family:Arial;" text-anchor="middle"><textPath startOffset="22.20632615414155" xlink:href="#id39">March</textPath></text><path d="M 118.73160827565052 90.50648371742162 l 30.24628128128428 -15.329359850247364 a54.90909619504689,54.90909619504689 0 0,0 0.42002840483392384,0.846751633664511 l -30.505669699071614 14.806448628083903" fill="#91ff24" stroke="none" /><path d="M 119.61058180528143 92.48833698450437 l 26.34359763668185 -10.090686244161711 a49.21005291241943,49.21005291241943 0 0,0 0.2961868994153356,0.7936336355713683 l -26.51338912459881 9.63572947156101" fill="#dbff1b" stroke="none" /><path d="M 119.7369772167798 92.82701384747503 l 32.139271129671606 -11.68033707661101 a55.19595038845677,55.19595038845677 0 0,0 0.3168429414810981,0.8957576620964235 l -32.335567151962515 11.125381788087973" fill="#8dff24" stroke="none" /><path d="M 119.85752413597 93.16781622104841 l 10.719370006620618 -3.6881086170834485 a32.33609449988147,32.33609449988147 0 0,0 0.1765592430575329,0.5278896638573901 l -10.78126654344992 3.5030458503037445" fill="#ff2703" stroke="none" /><path d="M 120.18372546131832 94.20196356495316 l 10.886791522751539 -3.127371804112405 a32.32707747219079,32.32707747219079 0 0,0 0.14903279848734102,0.5361502703363759 l -10.939011091805241 2.9395102303570773" fill="#ff2703" stroke="none" /><path d="M 120.37134235888165 94.90015583598534 l 27.50332128246996 -6.88529258712652 a49.35207109854771,49.35207109854771 0 0,0 0.19921127944537306,0.8258593634392696 l -27.617765362176154 6.410847992027843" fill="#d9ff1c" stroke="none" /><path d="M 120.83666639777658 97.38593545837742 l 36.76810433952157 -4.612743515770767 a58.05632064121086,58.05632064121086 0 0,0 0.1158628525706477,0.9926421645736601 l -36.842057545095805 3.9791576128722537" fill="#6aff28" stroke="none" /><line stroke="#e1ed5e" stroke-width="0.3" x1="184.98032266829074" x2="189.97916517819016" y1="98.17113171792111" y2="98.06355123074" /><path d="M 185.9800911702706 98.14961562048488 a86.0,86.0 0 0,1 -9.607161424134198,41.387399972396054" fill="none" id="id40" stroke="none" /><text fill="#e1ed5e" style="font-size:6.75px; font-family:Arial;" text-anchor="middle"><textPath startOffset="21.466115282336823" xlink:href="#id40">April</textPath></text><path d="M 120.99824983174949 100.27111621757518 l 37.06253035242885 0.4785281213162337 a58.06561945101687,58.06561945101687 0 0,0 -0.021506226106962907,0.9993098200977666 l -37.04880206363688 -1.116427757204115" fill="#6aff28" stroke="none" /><path d="M 120.9904718944345 100.63252640178507 l 28.245134691711243 0.851138245215906 a49.25795587202619,49.25795587202619 0 0,0 -0.032833634396091334,0.8472902107883762 l -28.22629892446395 -1.3372057030182882" fill="#daff1b" stroke="none" /><path d="M 120.9764740272857 100.99374915477107 l 28.253038236190005 1.338472463503981 a49.2847251729829,49.2847251729829 0 0,0 -0.04743924482148706,0.8470595841697656 l -28.225812640480985 -1.82460376400917" fill="#daff1c" stroke="none" /><path d="M 120.8583938346157 102.4346265915055 l 19.88617700484103 2.3211478181519034 a41.02118285870192,41.02118285870192 0 0,0 -0.08789958655003098,0.7006461899784108 l -19.843275909044152 -2.663111762417709" fill="#ffaf10" stroke="none" /><path d="M 120.81339534386255 102.79330883721812 l 36.71726580974291 4.927723774539508 a58.046458267174174,58.046458267174174 0 0,0 -0.14142867249358157,0.9891518060194514 l -36.62700308623273 -5.559021052539369" fill="#6bff28" stroke="none" /><path d="M 120.32669344350535 105.2749913415812 l 13.718111077184302 3.5599945144111644 a35.17251327283218,35.17251327283218 0 0,0 -0.15712386333422665,0.5847163469785278 l -13.654799137508297 -3.7956017945652407" fill="#ff5507" stroke="none" /><path d="M 120.02730092923936 106.31721596034902 l 27.050386822489347 8.532509496532276 a49.36418772950706,49.36418772950706 0 0,0 -0.26258868055593504,0.8081648591955786 l -26.899505890917165 -8.99687325570565" fill="#d9ff1c" stroke="none" /><path d="M 119.67450827220406 107.3425965602758 l 37.03288806194163 13.820805721729437 a60.5278315748042,60.5278315748042 0 0,0 -0.3726949936391879,0.9729890233498388 l -36.78949878870893 -14.456218311912421" fill="#4dff2c" stroke="none" /><line stroke="#e1ed5e" stroke-width="0.3" x1="174.80103733775053" x2="179.2010983576182" y1="140.37084112569926" y2="142.7455964860345" /><path d="M 175.68104954172406 140.8457921977663 a86.0,86.0 0 0,1 -30.038265399797805,32.042727171017184" fill="none" id="id41" stroke="none" /><text fill="#e1ed5e" style="font-size:6.75px; font-family:Arial;" text-anchor="middle"><textPath startOffset="22.206326154141568" xlink:href="#id41">May</textPath></text><path d="M 118.48025628344425 109.97397251340804 l 35.12593527042667 18.95780596986886 a60.91528198338827,60.91528198338827 0 0,0 -0.5059553429912549,0.9184559121929406 l -34.79440351798391 -19.55963240045961" fill="#49ff2c" stroke="none" /><path d="M 118.30583269289576 110.29060199501025 l 24.708784375089518 13.890013639382389 a49.34530832777969,49.34530832777969 0 0,0 -0.4226026286665019,0.7368433043616248 l -24.46602975027064 -14.313276789602329" fill="#d9ff1c" stroke="none" /><path d="M 117.94076556474637 110.91462005526583 l 26.62479679075285 16.19772244227731 a52.16482017381036,52.16482017381036 0 0,0 -0.4732972765939465,0.7631059110031111 l -26.34203487449094 -16.653624684645695" fill="#b4ff20" stroke="none" /><path d="M 117.14729908036423 112.12312394758627 l 48.633239643835296 34.38365362449594 a80.56028571811947,80.56028571811947 0 0,0 -0.8102838226505693,1.1254133602357828 l -48.03417602880913 -35.215700590182855" fill="#48f7ff" stroke="none" /><path d="M 116.498646956653 112.99209946851258 l 26.080137089800786 20.53718320740853 a54.19562387902155,54.19562387902155 0 0,0 -0.5834599906694765,0.7279560494349485 l -25.722759187076456 -20.983067090421727" fill="#9aff23" stroke="none" /><path d="M 115.80600337817218 113.82643327865902 l 23.913776080309137 20.918775069464917 a52.772060632354844,52.772060632354844 0 0,0 -0.6039665599432287,0.6785628327017595 l -23.55015067071757 -21.327312071907546" fill="#acff21" stroke="none" /><path d="M 113.75828350139079 115.86535959552629 l 22.264681945614708 25.67450985520769 a54.98376845561037,54.98376845561037 0 0,0 -0.7203777585729686,0.6139215541175972 l -21.819438710464695 -26.05395579954823" fill="#90ff24" stroke="none" /><path d="M 113.20401910651253 116.32954008644616 l 5.634491235126754 6.968230638605413 a29.96123483184764,29.96123483184764 0 0,0 -0.40382395371859,0.32082217181956507 l -5.5137097886908135 -7.064186724430104" fill="#ff0000" stroke="none" /><path d="M 111.7513745106137 117.40417183066458 l 17.627771336027916 26.107308642644167 a52.501268019518996,52.501268019518996 0 0,0 -0.7533314477388309,0.49926700565300103 l -17.17576518954912 -26.40687366938849" fill="#afff20" stroke="none" /><line stroke="#e1ed5e" stroke-width="0.3" x1="143.8653032363475" x2="146.44561519142675" y1="172.8068346515853" y2="177.08958963109032" /><path d="M 144.38136562736335 173.6633856474863 a86.0,86.0 0 0,1 -40.68145358897372,12.25698825130547" fill="none" id="id42" stroke="none" /><text fill="#e1ed5e" style="font-size:6.75px; font-family:Arial;" text-anchor="middle"><textPath startOffset="21.466115282336833" xlink:href="#id42">June</textPath></text><path d="M 110.8373102113329 117.98757091392108 l 15.002251339438972 24.900464651683702 a50.07061549264907,50.07061549264907 0 0,0 -0.7420754408903069,0.4384312506151912 l -14.571408027520283 -25.155014474592644" fill="#cfff1d" stroke="none" /><path d="M 109.57404056367764 118.69057910512821 l 13.14275019166158 25.65746515093424 a49.82771930923127,49.82771930923127 0 0,0 -0.7667444182789689,0.3844615686780953 l -12.699151865699852 -25.879894560521635" fill="#d3ff1c" stroke="none" /><path d="M 108.59647513512805 119.15986991738527 l 12.799376598810413 28.52731925608947 a52.26710708167656,52.26710708167656 0 0,0 -0.8240265976282103,0.36122904449074794 l -12.306429326524448 -28.74341285387467" fill="#b3ff20" stroke="none" /><path d="M 107.59598834532513 119.57807347666477 l 22.787965035975386 58.73422042999433 a84.0,84.0 0 0,0 -1.3525191169589008,0.5114069995734765 l -21.77357569825621 -59.11777567967444" fill="#4dd2ff" stroke="none" /><path d="M 104.83641907484287 120.43548508189849 l 7.164196009883997 30.27111968963066 a52.107336622282254,52.107336622282254 0 0,0 -0.8746088680075189,0.19905813087650626 l -6.642066992483616 -30.38995455408485" fill="#b5ff20" stroke="none" /><line stroke="#e1ed5e" stroke-width="0.3" x1="102.19456741930631" x2="102.32365962044197" y1="184.97166512339345" y2="189.96999836594603" /><path d="M 102.22038585953345 185.97133177190398 a86.0,86.0 0 0,1 -42.740103519485714,-10.115201625700543" fill="none" id="id43" stroke="none" /><text fill="#e1ed5e" style="font-size:6.75px; font-family:Arial;" text-anchor="middle"><textPath startOffset="22.20632615414155" xlink:href="#id43">July</textPath></text><line stroke="#e1ed5e" stroke-width="0.3" x1="58.666819895761336" x2="56.23545636021788" y1="174.27360380694188" y2="178.64263932499728" /><path d="M 58.180547188652646 175.14741091055294 a86.0,86.0 0 0,1 -31.652253787137756,-30.449443065178592" fill="none" id="id44" stroke="none" /><text fill="#e1ed5e" style="font-size:6.75px; font-family:Arial;" text-anchor="middle"><textPath startOffset="22.20632615414155" xlink:href="#id44">August</textPath></text><path d="M 85.18274418774928 114.88116024355367 l -10.127337239187597 10.171014809115777 a35.353135608761185,35.353135608761185 0 0,0 -0.42753620102514095,-0.4330919144259275 l 10.300914065268271 -9.995182400709185" fill="#ff5808" stroke="none" /><path d="M 84.9287848128048 114.62390073753433 l -11.258668330598201 10.924510469691631 a36.68765570698238,36.68765570698238 0 0,0 -0.43587284495983364,-0.45701093534371506 l 11.445047726936993 -10.729092417765415" fill="#ff6d0a" stroke="none" /><path d="M 83.72743513129214 113.27417163493432 l -11.156951481096426 9.101164449342813 a35.39822074721461,35.39822074721461 0 0,0 -0.3810906502892009,-0.47546918160199153 l 11.31196004344049 -8.907767434162562" fill="#ff5908" stroke="none" /><line stroke="#e1ed5e" stroke-width="0.3" x1="26.63291911575756" x2="22.317208475507996" y1="142.92168965132927" y2="145.44649492493687" /><path d="M 25.769776987707644 143.4266507060508 a86.0,86.0 0 0,1 -11.730757126820373,-40.83630448921669" fill="none" id="id45" stroke="none" /><text fill="#e1ed5e" style="font-size:6.75px; font-family:Arial;" text-anchor="middle"><textPath startOffset="21.46611528233685" xlink:href="#id45">September</textPath></text><path d="M 81.35079622478065 109.6543875284942 l -10.619128238663308 5.497348866285618 a32.95770584630799,32.95770584630799 0 0,0 -0.2564758157236469,-0.5060511162897051 l 10.712182724173221 -5.313743538293227" fill="#ff3104" stroke="none" /><line stroke="#e1ed5e" stroke-width="0.3" x1="15.007084014347285" x2="10.007500721073583" y1="101.09737516637583" y2="101.16192664675087" /><path d="M 14.007167355692545 101.11028546245083 a86.0,86.0 0 0,1 10.666146001902534,-42.60595125391555" fill="none" id="id46" stroke="none" /><text fill="#e1ed5e" style="font-size:6.75px; font-family:Arial;" text-anchor="middle"><textPath startOffset="22.20632615414155" xlink:href="#id46">October</textPath></text><path d="M 79.32604984820605 96.31383870115002 l -12.71134880406529 -2.266431024245391 a33.911820088828456,33.911820088828456 0 0,0 0.10741048400511605,-0.5737911005098036 l 12.670452596150312 2.484900202217767" fill="#ff4106" stroke="none" /><path d="M 79.54389044137918 95.25157060432595 l -22.09130275842077 -5.128003010846837 a43.67866998841562,43.67866998841562 0 0,0 0.17631040682142773,-0.7309204616859396 l 21.999759551338528 5.5075087041921735" fill="#ffd614" stroke="none" /><path d="M 79.71946130924805 94.55025226153421 l -19.47023149401666 -5.2320035315584805 a41.16094678790752,41.16094678790752 0 0,0 0.18975829452778603,-0.6826615479429796 l 19.37728642892251 5.566376382920403" fill="#ffb110" stroke="none" /><path d="M 79.81627453868168 94.20196356495316 l -27.230791095242957 -7.8223972689259655 a49.332064568359,49.332064568359 0 0,0 0.24147834861580053,-0.814144946215024 l 27.09210684951545 8.289971601887528" fill="#d9ff1c" stroke="none" /><path d="M 79.91906864156998 93.8553929516997 l -21.62712454169741 -6.6177300007349915 a43.616959705157505,43.616959705157505 0 0,0 0.2258621515542428,-0.7160447428256589 l 21.51000690637496 6.989024909987065" fill="#ffd513" stroke="none" /><path d="M 80.02781315780177 93.51064311812611 l -13.698881479033798 -4.451036408898245 a35.40385638952128,35.40385638952128 0 0,0 0.1933096183113351,-0.5779711538382523 l 13.62023456695069 4.68618066565882" fill="#ff5908" stroke="none" /><path d="M 80.14247586403 93.16781622104843 l -18.891457456360975 -6.4997986813625666 a40.97835197717117,40.97835197717117 0 0,0 0.23522924211139212,-0.6650247437593195 l 18.776775133439774 6.824021051548497" fill="#ffae10" stroke="none" /><path d="M 80.2630227832202 92.82701384747504 l -29.111681661047026 -10.58002383738247 a51.974617245960005,51.974617245960005 0 0,0 0.3128263397273104,-0.8382190629982107 l 28.92525073281809 11.079566037410023" fill="#b6ff1f" stroke="none" /><path d="M 80.38941819471856 92.48833698450439 l -18.772046705255534 -7.190469429267434 a41.10205432580274,41.10205432580274 0 0,0 0.2587598426182982,-0.6585155751783202 l 18.645493312755544 7.512534009341518" fill="#ffb010" stroke="none" /><path d="M 80.65960295795068 91.81776055985345 l -26.05279343736217 -11.022017465603593 a49.28838834048225,49.28838834048225 0 0,0 0.3372952048289998,-0.7785238368802785 l 25.85920752269049 11.468840447070471" fill="#daff1c" stroke="none" /><path d="M 80.803312248108 91.48605970444005 l -20.65418908068865 -9.160358024204347 a43.5944171359308,43.5944171359308 0 0,0 0.3101383292114867,-0.683348698024119 l 20.493448434513812 9.514528731070538" fill="#ffd513" stroke="none" /><path d="M 80.95270993114464 91.15688171328213 l -15.488419991269723 -7.190835523690582 a38.07627797134768,38.07627797134768 0 0,0 0.281114995641013,-0.5920998740820436 l 15.362346801786959 7.456377813413158" fill="#ff820c" stroke="none" /><path d="M 81.43458229118936 90.18545643968196 l -25.946511691200413 -13.716533246151334 a50.34901622259892,50.34901622259892 0 0,0 0.4116437284637146,-0.7627133109957404 l 25.706559863518226 14.161127540479546" fill="#ccff1d" stroke="none" /><line stroke="#e1ed5e" stroke-width="0.3" x1="26.266209847984243" x2="21.928928074336255" y1="57.711370442889674" y2="55.22380399835377" /><path d="M 25.398753493254645 57.213857153982495 a86.0,86.0 0 0,1 29.58750427330803,-30.492523968695096" fill="none" id="id47" stroke="none" /><text fill="#e1ed5e" style="font-size:6.75px; font-family:Arial;" text-anchor="middle"><textPath startOffset="21.46611528233685" xlink:href="#id47">November</textPath></text><path d="M 81.78341655067845 89.55222093294921 l -19.621669757768068 -11.25363991146363 a43.61977752631084,43.61977752631084 0 0,0 0.3791603994849897,-0.6481080293691435 l 19.42504968381275 11.589727353186664" fill="#ffd513" stroke="none" /><path d="M 81.96595687620814 89.24020034530311 l -19.43182524490535 -11.59376991199636 a43.627667425540196,43.627667425540196 0 0,0 0.3903309269943827,-0.641601413371941 l 19.22937851962475 11.926539098575375" fill="#ffd513" stroke="none" /><path d="M 82.15384107792192 88.93136811851018 l -10.459755096226857 -6.487400411269612 a33.308242797783315,33.308242797783315 0 0,0 0.3063920631462335,-0.4846386636842253 l 10.34653543683466 6.666486722668052" fill="#ff3705" stroke="none" /><path d="M 82.34701348167596 88.62581576622439 l -20.065125236236888 -12.928375086778573 a44.86948120781655,44.86948120781655 0 0,0 0.4239169543512082,-0.645654604747414 l 19.83961164652776 13.271847755503655" fill="#ffe715" stroke="none" /><path d="M 84.31358615837235 86.03803664274999 l -14.499568251316608 -12.905590956908117 a40.4111245790041,40.4111245790041 0 0,0 0.4669531604263142,-0.515621342583185 l 14.27527145027425 13.15326508676086" fill="#ffa60f" stroke="none" /><path d="M 84.5562425177563 85.77008943001954 l -10.643611889456444 -9.807046342360842 a35.47289300777808,35.47289300777808 0 0,0 0.417621825512784,-0.44548984561732624 l 10.473222741973204 9.988805604856218" fill="#ff5a08" stroke="none" /><path d="M 84.80347519578584 85.50635884689758 l -10.406952008918777 -9.925600086738186 a35.38131382029457,35.38131382029457 0 0,0 0.4241305278906137,-0.4371037911172214 l 10.234557217325046 10.10326807340553" fill="#ff5808" stroke="none" /><path d="M 85.05521093208273 85.24692304244772 l -10.377536610627018 -10.244413323642382 a35.58222446852762,35.58222446852762 0 0,0 0.4340424790117822,-0.4321785626686601 l 10.199658331447923 10.421527736961151" fill="#ff5c08" stroke="none" /><path d="M 85.31137513191541 84.99185889309783 l -10.146442722762107 -10.367154548768308 a35.506143297387474,35.506143297387474 0 0,0 0.4404735849365586,-0.42373523972220084 l 9.96648589421312 10.540272875252823" fill="#ff5a08" stroke="none" /><path d="M 85.57189188830299 84.74124197986013 l -9.733198879789525 -10.293555143809941 a35.16659584841017,35.16659584841017 0 0,0 0.44342082544912165,-0.412111331507623 l 9.554570170545547 10.459571061392213" fill="#ff5507" stroke="none" /><path d="M 85.83668400450813 84.49514656593479 l -11.687838199672822 -12.794900453020805 a38.32960009303282,38.32960009303282 0 0,0 0.4909638702317268,-0.4407922102830748 l 11.465863341845123 12.994191672073159" fill="#ff860c" stroke="none" /><path d="M 86.10567301691215 84.25364557470407 l -9.365093453456332 -10.613402212546001 a35.15447921745081,35.15447921745081 0 0,0 0.4571860133156637,-0.3964672055615555 l 9.181013641493895 10.773034411527236" fill="#ff5507" stroke="none" /><path d="M 86.37877921826538 84.01681056812374 l -9.384987427604482 -11.012377985409708 a35.468948058163406,35.468948058163406 0 0,0 0.46809293458613266,-0.3920143710837482 l 9.19403695605924 11.172293513887269" fill="#ff5a08" stroke="none" /><path d="M 86.93701828274178 83.55741782278169 l -11.010316757576705 -13.858860251215038 a38.70014357469686,38.70014357469686 0 0,0 0.5251562394973683,-0.40989277481793623 l 10.77012796291991 14.046331415256196" fill="#ff8c0c" stroke="none" /><path d="M 87.51073957382395 83.11751280151077 l -8.77013913617775 -11.855126456100635 a35.74650344176727,35.74650344176727 0 0,0 0.49782058835811904,-0.361687828758825 l 8.56477323146585 12.004333519676129" fill="#ff5e08" stroke="none" /><path d="M 87.80319425747018 82.90503203632743 l -8.21143317057244 -11.509094262057017 a35.138135854761444,35.138135854761444 0 0,0 0.4953956114130356,-0.3470562844427282 l 8.012106419575742 11.648735389263688" fill="#ff5507" stroke="none" /><path d="M 88.09926311788651 82.69761687909137 l -8.34664946874486 -12.135124767039178 a35.728469386385896,35.728469386385896 0 0,0 0.5097181763905181,-0.34416398803179415 l 8.136526597947801 12.277000667369638" fill="#ff5e08" stroke="none" /><path d="M 88.39885842347998 82.49532879139004 l -9.37376307464506 -14.1438357188199 a37.96807363905947,37.96807363905947 0 0,0 0.5478846800040664,-0.3563594362785057 l 9.128911368856707 14.303094079257942" fill="#ff810b" stroke="none" /><path d="M 89.00827224532344 82.1063720568725 l -14.77620119827537 -24.05443917060648 a49.230341224723475,49.230341224723475 0 0,0 0.7258848160106411,-0.437337479665775 l 14.359954316047078 24.305223259730873" fill="#dbff1b" stroke="none" /><line stroke="#e1ed5e" stroke-width="0.3" x1="56.762969772571076" x2="54.21961505331055" y1="26.818313649435495" y2="22.513508569990535" /><path d="M 56.25429882871897 25.957352633546506 a86.0,86.0 0 0,1 42.265352541879196,-11.944610805530505" fill="none" id="id48" stroke="none" /><text fill="#e1ed5e" style="font-size:6.75px; font-family:Arial;" text-anchor="middle"><textPath startOffset="22.20632615414155" xlink:href="#id48">December</textPath></text><path d="M 89.94658935756843 81.56283822128135 l -9.046302406081054 -16.590204746653804 a39.89630865428913,39.89630865428913 0 0,0 0.60576836379313,-0.32358048085132374 l 8.759388995759618 16.743463954006877" fill="#ff9e0e" stroke="none" /><path d="M 90.26544431104013 81.39251694778311 l -8.75050682379851 -16.726485791930035 a39.87714747044642,39.87714747044642 0 0,0 0.6109549515948759,-0.3129548558259569 l 8.461291384614869 16.874633173068496" fill="#ff9e0e" stroke="none" /><path d="M 91.23893434514133 80.91482961587045 l -7.713548213057046 -16.80325062177228 a39.489133497631684,39.489133497631684 0 0,0 0.6202010644653151,-0.27826613919848586 l 7.423165030124957 16.933537091487295" fill="#ff980e" stroke="none" /><path d="M 92.23578459929587 80.48803036053334 l -6.919752750704707 -17.389781016652545 a39.71596810047545,39.71596810047545 0 0,0 0.6373785651521929,-0.2472929810089181 l 6.619391020552838 17.506316701552016" fill="#ff9b0e" stroke="none" /><path d="M 92.57280143429618 80.3572730644239 l -10.46316235857907 -27.671946464607714 a50.58402250678736,50.58402250678736 0 0,0 0.8170949746581148,-0.30094297491473593 l 9.985285058148385 27.847952707328773" fill="#c9ff1d" stroke="none" /><path d="M 94.63758080256005 79.69619591428918 l -2.948170900093128 -11.162701415671062 a32.54545861157454,32.54545861157454 0 0,0 0.5428754697764191,-0.13839104487256554 l 2.75558654163171 11.211795456712492" fill="#ff2b04" stroke="none" /></svg>